<?xml version="1.0" encoding="UTF-8"?>
<svg version="1.1" xmlns="http://www.w3.org/2000/svg" width="512" height="512">
<path d="M0 0 C10.09063977 8.22959115 15.53760716 19.44546075 16.89306641 32.30810547 C17.27450149 36.6407652 17.51140555 40.97404475 17.68359375 45.3203125 C18.29203125 45.57683594 18.90046875 45.83335938 19.52734375 46.09765625 C32.82371832 51.90504338 44.79695544 58.69615829 55.68359375 68.3203125 C56.66392578 69.12082031 56.66392578 69.12082031 57.6640625 69.9375 C81.64752891 89.52664475 95.61315554 121.39236862 99.40108109 151.46519852 C100.2343384 159.88621783 100.08704955 168.37713744 100.0637188 176.83021355 C100.05444939 180.50454048 100.06500972 184.17837405 100.08033752 187.85267639 C100.12000668 198.28483507 100.12164684 208.71694819 100.11938477 219.14916992 C100.11933323 225.57084474 100.13870677 231.99225013 100.16871834 238.41385078 C100.17938569 241.99629976 100.16751126 245.57819925 100.15489197 249.16062927 C100.21983001 290.56173361 116.41629735 315.36465756 143.98828125 344.41015625 C147.56879131 348.18617981 151.06997503 352.02533765 154.5234375 355.91796875 C156.18201189 357.76249542 157.85922259 359.57638715 159.5625 361.37890625 C160.05967529 361.90895264 160.55685059 362.43899902 161.0690918 362.98510742 C162.47504511 364.48139572 163.88770711 365.97137217 165.30078125 367.4609375 C170.31390615 373.47668738 171.34354143 378.36947671 171.16796875 386.05078125 C170.2417352 392.30285772 167.00649606 396.55048217 162.05859375 400.3203125 C157.08936183 402.41262068 152.3994138 402.48805593 147.05957031 402.52563477 C146.19091843 402.53553436 145.32226654 402.54543396 144.42729187 402.55563354 C141.55962844 402.58718978 138.69194845 402.61198277 135.82421875 402.63671875 C133.83452934 402.65729335 131.84484426 402.67828995 129.85516357 402.69969177 C124.62078351 402.75486018 119.38636434 402.80429255 114.1519165 402.85253906 C108.80957564 402.90279226 103.4672915 402.9584584 98.125 403.01367188 C87.64457972 403.12118948 77.16411016 403.22264868 66.68359375 403.3203125 C66.27643631 404.35467941 65.86927887 405.38904633 65.44978333 406.45475769 C64.90781583 407.82299928 64.36570952 409.19118589 63.82348633 410.55932617 C63.5560688 411.23976738 63.28865128 411.92020859 63.01313019 412.62126923 C58.44464432 424.1218229 51.26918511 433.47910809 42.68359375 442.3203125 C41.65685547 443.45726562 41.65685547 443.45726562 40.609375 444.6171875 C26.95259362 459.25846883 7.97817991 467.38091291 -11.31640625 471.3203125 C-12.22390625 471.51367188 -13.13140625 471.70703125 -14.06640625 471.90625 C-40.8948348 475.32429498 -68.79509005 469.23532687 -90.44140625 452.6328125 C-92.09137165 451.22403806 -93.71442551 449.78342185 -95.31640625 448.3203125 C-96.07002441 447.6382373 -96.07002441 447.6382373 -96.83886719 446.94238281 C-110.30278732 434.61056407 -119.53224883 420.67278476 -125.31640625 403.3203125 C-126.98104919 403.31484406 -126.98104919 403.31484406 -128.67932129 403.30926514 C-139.15489859 403.27227021 -149.63018315 403.2144482 -160.10553741 403.13640976 C-165.49061779 403.09695706 -170.87553518 403.06475764 -176.26074219 403.04931641 C-181.46104668 403.03413546 -186.66090302 402.99966393 -191.86100769 402.95200348 C-193.84160968 402.93720459 -195.82227565 402.92927234 -197.80293274 402.92842865 C-200.58459854 402.92605277 -203.36503208 402.89892322 -206.14648438 402.86621094 C-206.95928864 402.8712413 -207.7720929 402.87627167 -208.60952759 402.88145447 C-215.19652779 402.76216886 -220.49077561 400.88762989 -225.41015625 396.41796875 C-229.23079699 390.88865257 -229.99064076 386.29969741 -230.015625 379.62890625 C-228.34201391 371.70964039 -222.54584873 366.08516263 -217.06640625 360.4453125 C-215.72062287 359.03585415 -214.37556749 357.62570031 -213.03125 356.21484375 C-212.38784668 355.54275879 -211.74444336 354.87067383 -211.08154297 354.17822266 C-208.16824312 351.11180332 -205.36085135 347.95401919 -202.546875 344.796875 C-200.38330693 342.39459451 -198.18758036 340.02656274 -195.98217773 337.6628418 C-170.12559818 309.88883565 -158.66539257 283.8831694 -158.79998589 245.67411613 C-158.81284203 241.99990602 -158.80112224 238.32642274 -158.78395081 234.65223694 C-158.75747689 228.17092435 -158.75164637 221.68979586 -158.75305176 215.20843506 C-158.75529513 204.83650444 -158.74073332 194.46480139 -158.6974659 184.09295845 C-158.6877671 180.50886141 -158.6962693 176.92513752 -158.7061615 173.34104919 C-158.69005052 156.76569112 -157.763515 140.46849017 -152.19140625 124.6953125 C-151.74244995 123.39484985 -151.74244995 123.39484985 -151.28442383 122.06811523 C-145.21724819 105.15530167 -135.70503891 88.48862708 -122.31640625 76.3203125 C-121.17171875 75.1446875 -121.17171875 75.1446875 -120.00390625 73.9453125 C-119.11703125 73.0790625 -118.23015625 72.2128125 -117.31640625 71.3203125 C-116.64351563 70.66289063 -115.970625 70.00546875 -115.27734375 69.328125 C-104.39832948 59.08696824 -90.57160568 50.07204564 -76.31640625 45.3203125 C-76.27902344 44.37671875 -76.24164063 43.433125 -76.203125 42.4609375 C-75.39077792 26.59627693 -72.52663429 12.80062341 -60.50390625 1.3828125 C-42.60306414 -13.61151958 -18.64702199 -13.52144934 0 0 Z M-45.69140625 22.6953125 C-49.72743982 27.8390618 -50.31640625 31.73770269 -50.31640625 38.3203125 C-36.45640625 38.3203125 -22.59640625 38.3203125 -8.31640625 38.3203125 C-9.24380916 29.97368627 -10.01172468 25.02602971 -16.25390625 19.5078125 C-26.09623587 12.47757706 -37.52456363 13.79858298 -45.69140625 22.6953125 Z " fill="#D10028" transform="translate(285.31640625,22.6796875)"/>
<path d="M0 0 C10.09063977 8.22959115 15.53760716 19.44546075 16.89306641 32.30810547 C17.27450149 36.6407652 17.51140555 40.97404475 17.68359375 45.3203125 C18.29203125 45.57683594 18.90046875 45.83335938 19.52734375 46.09765625 C32.82371832 51.90504338 44.79695544 58.69615829 55.68359375 68.3203125 C56.66392578 69.12082031 56.66392578 69.12082031 57.6640625 69.9375 C81.64752891 89.52664475 95.61315554 121.39236862 99.40108109 151.46519852 C100.2343384 159.88621783 100.08704955 168.37713744 100.0637188 176.83021355 C100.05444939 180.50454048 100.06500972 184.17837405 100.08033752 187.85267639 C100.12000668 198.28483507 100.12164684 208.71694819 100.11938477 219.14916992 C100.11933323 225.57084474 100.13870677 231.99225013 100.16871834 238.41385078 C100.17938569 241.99629976 100.16751126 245.57819925 100.15489197 249.16062927 C100.21983001 290.56173361 116.41629735 315.36465756 143.98828125 344.41015625 C147.56879131 348.18617981 151.06997503 352.02533765 154.5234375 355.91796875 C156.18201189 357.76249542 157.85922259 359.57638715 159.5625 361.37890625 C160.05967529 361.90895264 160.55685059 362.43899902 161.0690918 362.98510742 C162.47504511 364.48139572 163.88770711 365.97137217 165.30078125 367.4609375 C170.31390615 373.47668738 171.34354143 378.36947671 171.16796875 386.05078125 C170.2417352 392.30285772 167.00649606 396.55048217 162.05859375 400.3203125 C157.08936183 402.41262068 152.3994138 402.48805593 147.05957031 402.52563477 C146.19091843 402.53553436 145.32226654 402.54543396 144.42729187 402.55563354 C141.55962844 402.58718978 138.69194845 402.61198277 135.82421875 402.63671875 C133.83452934 402.65729335 131.84484426 402.67828995 129.85516357 402.69969177 C124.62078351 402.75486018 119.38636434 402.80429255 114.1519165 402.85253906 C108.80957564 402.90279226 103.4672915 402.9584584 98.125 403.01367188 C87.64457972 403.12118948 77.16411016 403.22264868 66.68359375 403.3203125 C66.27643631 404.35467941 65.86927887 405.38904633 65.44978333 406.45475769 C64.90781583 407.82299928 64.36570952 409.19118589 63.82348633 410.55932617 C63.5560688 411.23976738 63.28865128 411.92020859 63.01313019 412.62126923 C58.44464432 424.1218229 51.26918511 433.47910809 42.68359375 442.3203125 C41.65685547 443.45726562 41.65685547 443.45726562 40.609375 444.6171875 C26.95259362 459.25846883 7.97817991 467.38091291 -11.31640625 471.3203125 C-12.22390625 471.51367188 -13.13140625 471.70703125 -14.06640625 471.90625 C-40.8948348 475.32429498 -68.79509005 469.23532687 -90.44140625 452.6328125 C-92.09137165 451.22403806 -93.71442551 449.78342185 -95.31640625 448.3203125 C-96.07002441 447.6382373 -96.07002441 447.6382373 -96.83886719 446.94238281 C-110.30278732 434.61056407 -119.53224883 420.67278476 -125.31640625 403.3203125 C-126.98104919 403.31484406 -126.98104919 403.31484406 -128.67932129 403.30926514 C-139.15489859 403.27227021 -149.63018315 403.2144482 -160.10553741 403.13640976 C-165.49061779 403.09695706 -170.87553518 403.06475764 -176.26074219 403.04931641 C-181.46104668 403.03413546 -186.66090302 402.99966393 -191.86100769 402.95200348 C-193.84160968 402.93720459 -195.82227565 402.92927234 -197.80293274 402.92842865 C-200.58459854 402.92605277 -203.36503208 402.89892322 -206.14648438 402.86621094 C-206.95928864 402.8712413 -207.7720929 402.87627167 -208.60952759 402.88145447 C-215.20590273 402.76199909 -220.66087467 400.95602668 -225.41015625 396.2421875 C-225.87421875 395.52546875 -226.33828125 394.80875 -226.81640625 394.0703125 C-227.30109375 393.36390625 -227.78578125 392.6575 -228.28515625 391.9296875 C-229.72372776 388.28966565 -229.38206308 385.22888367 -229.31640625 381.3203125 C-228.58520254 381.32009513 -227.85399883 381.31987776 -227.10063744 381.31965381 C-183.76960266 381.30613981 -140.43865824 381.26666775 -97.1076811 381.19345688 C-91.90560932 381.18469006 -86.7035372 381.17614027 -81.50146484 381.16772461 C-80.46582 381.16604555 -79.43017516 381.16436648 -78.36314714 381.16263654 C-61.59114373 381.13596217 -44.81917449 381.12687115 -28.04715204 381.12427107 C-10.83923674 381.1212123 6.36857969 381.09927442 23.57645035 381.05978793 C34.19581835 381.03601565 44.81498904 381.026993 55.43437999 381.03679939 C62.71516252 381.04211254 69.99576813 381.02909803 77.27650028 381.0016496 C81.47802228 380.98635173 85.67914838 380.97915569 89.88068199 380.99371529 C93.72903112 381.00687254 97.57661323 380.99696202 101.42487597 380.96887477 C102.81530769 380.96276758 104.20580757 380.96505131 105.59620404 380.97668324 C113.34174487 381.03639998 119.85535026 380.93990939 125.68359375 375.3203125 C129.30234749 370.29205284 130.6410286 365.45986347 129.68359375 359.3203125 C128.43285716 353.50215388 125.85860148 350.06959503 121.546875 346.0703125 C119.76892689 344.40045767 118.20117121 342.67640349 116.62109375 340.8203125 C113.0852527 336.71520906 109.39027178 332.77032896 105.68359375 328.8203125 C101.52759958 324.38829636 97.40705663 319.94661981 93.453125 315.33203125 C91.56084571 313.18076451 89.60411995 311.09556389 87.64257812 309.00756836 C76.09247801 296.63991598 67.65426242 282.89829266 62.80859375 266.6328125 C62.61765137 265.99335693 62.42670898 265.35390137 62.22998047 264.69506836 C61.64583085 262.581167 61.15882717 260.4614833 60.68359375 258.3203125 C60.51032059 257.54224747 60.33704742 256.76418243 60.15852356 255.96253967 C58.12284646 245.02519979 58.38735509 234.00782219 58.3786335 222.92157364 C58.37493417 219.13575396 58.35811103 215.35018799 58.33787537 211.56442261 C58.28974354 202.16489771 58.25788804 192.76534519 58.23657227 183.36572266 C58.21850133 175.40716569 58.18893989 167.44884217 58.14253044 159.49038315 C58.13096049 156.99082259 58.1249508 154.49122933 58.12484932 151.991642 C58.12413555 139.09244909 58.05026724 126.83771515 54.68359375 114.3203125 C54.49171478 113.54048508 54.29983582 112.76065765 54.10214233 111.9571991 C49.23955688 93.03429105 39.14684182 76.19660461 26.68359375 61.3203125 C26.13058594 60.63195312 25.57757813 59.94359375 25.0078125 59.234375 C20.8169958 54.17338872 16.03835684 50.21618601 10.84375 46.203125 C10.13089844 45.58179688 9.41804687 44.96046875 8.68359375 44.3203125 C8.68359375 43.6603125 8.68359375 43.0003125 8.68359375 42.3203125 C8.12671875 42.27132812 7.56984375 42.22234375 6.99609375 42.171875 C1.7179211 41.65475673 -3.2000299 40.71568787 -8.31640625 39.3203125 C-8.414375 38.67964844 -8.51234375 38.03898437 -8.61328125 37.37890625 C-9.83735227 30.29828851 -11.39559843 25.09133531 -16.75390625 20.0078125 C-22.48403513 16.23431299 -27.5312715 15.49285704 -34.31640625 16.3203125 C-40.22926041 18.12701794 -43.87996074 21.26671617 -47.31640625 26.3203125 C-49.13038483 30.58316216 -49.69059574 34.75081678 -50.31640625 39.3203125 C-53.35686605 40.13737417 -56.39897308 40.9481327 -59.44140625 41.7578125 C-60.7253125 42.10295898 -60.7253125 42.10295898 -62.03515625 42.45507812 C-66.44588008 43.62561637 -70.79093167 44.67487596 -75.31640625 45.3203125 C-75.89779899 29.55810929 -74.02925302 15.96876697 -62.98828125 3.7421875 C-45.07223117 -13.2724261 -19.83360337 -14.38187091 0 0 Z " fill="#B7022C" transform="translate(285.31640625,22.6796875)"/>
<path d="M0 0 C63.36 0 126.72 0 192 0 C185.93691539 16.97663692 179.37096091 28.48088387 167 41 C166.34515625 41.72703125 165.6903125 42.4540625 165.015625 43.203125 C151.89397471 57.44628386 132.57704305 65.20710208 114 69 C113.0925 69.19335938 112.185 69.38671875 111.25 69.5859375 C84.42157145 73.00398248 56.5213162 66.91501437 34.875 50.3125 C33.2250346 48.90372556 31.60198074 47.46310935 30 46 C29.49758789 45.5452832 28.99517578 45.09056641 28.47753906 44.62207031 C15.1495682 32.41476967 4.44408202 17.77632808 0 0 Z " fill="#808285" transform="translate(160,425)"/>
<path d="M0 0 C6.47517731 3.94141228 10.38123826 8.09680883 13.06640625 15.2578125 C13.28941158 18.28298483 13.2909339 20.78208156 13.03125 23.76171875 C12.97251205 24.63808487 12.91377411 25.51445099 12.85325623 26.41737366 C12.62044918 29.70039272 12.34489414 32.97835002 12.06640625 36.2578125 C11.95095959 37.66896742 11.83601611 39.08016358 11.72149658 40.49139404 C10.82412237 51.49984442 9.85414737 62.50145351 8.86938477 73.50238037 C8.39157457 78.85300568 7.92048923 84.20422772 7.44849205 89.55536842 C7.06972022 93.84351895 6.68780979 98.13134165 6.29849243 102.41854858 C5.66320935 109.42626929 5.03784352 116.43064205 4.53857422 123.44970703 C4.46098373 124.47697403 4.38339325 125.50424103 4.30345154 126.56263733 C4.17020777 128.35705078 4.05008261 130.15252386 3.94764709 131.94895935 C3.48678916 137.94058556 1.45773942 141.48386602 -2.49609375 146.0703125 C-6.06562713 149.01905747 -10.73541137 148.70490311 -15.1328125 148.67578125 C-19.58071653 148.01200757 -22.20278937 145.72903906 -24.93359375 142.2578125 C-26.879547 138.99354436 -27.31873627 136.21077741 -27.64794922 132.44335938 C-27.75514282 131.26280472 -27.86233643 130.08225006 -27.97277832 128.86592102 C-28.08101929 127.58243271 -28.18926025 126.2989444 -28.30078125 124.9765625 C-28.42094689 123.62157352 -28.54185297 122.26665003 -28.66345215 120.91178894 C-28.98747456 117.27953575 -29.30167608 113.64649557 -29.61388397 110.0132103 C-29.93851565 106.2528775 -30.27150015 102.49328609 -30.60400391 98.73364258 C-31.00391892 94.20676966 -31.40308351 89.67983781 -31.79818726 85.15254211 C-32.57287127 76.28225042 -33.3751674 67.41520719 -34.21484375 58.55078125 C-34.40383633 56.54166928 -34.59280225 54.53255479 -34.78173828 52.5234375 C-35.04050559 49.77460392 -35.30078518 47.02597087 -35.5668335 44.27783203 C-38.46218855 14.30406078 -38.46218855 14.30406078 -32.93359375 7.2578125 C-23.87936722 -2.46418779 -12.28758262 -6.28667018 0 0 Z " fill="#F0F0F0" transform="translate(267.93359375,140.7421875)"/>
<path d="M0 0 C3.3572917 2.32954934 4.66125677 3.81439869 5.78125 7.734375 C6.04813234 11.7185471 4.96697579 14.53850196 3.4375 18.125 C-15.8252061 66.54253172 -17.13438391 120.52411179 1.01171875 169.50390625 C1.34260498 170.40455811 1.67349121 171.30520996 2.0144043 172.2331543 C2.65277773 173.94428605 3.31065811 175.64831761 3.99145508 177.34301758 C5.96710543 182.56792764 6.2939345 185.64522391 4 191 C1.8483179 193.46810594 0.31597597 194.74159986 -2.9296875 195.37890625 C-6.61657641 195.59455447 -8.37082203 195.40412953 -11.56640625 193.3515625 C-16.10828715 188.96277871 -17.8217562 182.81417167 -20 177 C-20.25426758 176.33162109 -20.50853516 175.66324219 -20.77050781 174.97460938 C-24.21419677 165.77685309 -26.72521627 156.48303565 -28.75 146.875 C-28.94859619 145.93479004 -29.14719238 144.99458008 -29.35180664 144.02587891 C-32.42048375 128.70483491 -33.40744975 113.77179098 -33.375 98.1875 C-33.37478851 97.2462326 -33.37457703 96.30496521 -33.37435913 95.33517456 C-33.33915281 79.57625719 -32.28056289 64.45824779 -29 49 C-28.81276367 48.09362793 -28.62552734 47.18725586 -28.43261719 46.25341797 C-18.02197296 -2.78808832 -18.02197296 -2.78808832 0 0 Z " fill="#D10027" transform="translate(58,114)"/>
<path d="M0 0 C0.84304688 -0.03996094 1.68609375 -0.07992187 2.5546875 -0.12109375 C6.39659902 0.71385055 7.69207443 2.3698982 10.125 5.4375 C11.70451784 8.47154581 12.89671184 11.59974944 14.0625 14.8125 C14.40313477 15.73659668 14.74376953 16.66069336 15.09472656 17.61279297 C18.8402035 28.04712304 21.7866593 38.60377414 24.125 49.4375 C24.33672852 50.41235352 24.54845703 51.38720703 24.76660156 52.39160156 C30.98915455 82.59711632 30.65489642 116.32742206 24.125 146.4375 C23.91069336 147.43571777 23.69638672 148.43393555 23.47558594 149.46240234 C15.76246967 184.16019832 15.76246967 184.16019832 6.125 194.4375 C2.91144089 196.04427955 -0.38938483 195.90581682 -3.875 195.4375 C-7.44181187 193.49901529 -8.59874596 192.08236521 -10.1953125 188.35546875 C-11.09361333 183.17733238 -9.79448984 180.09066371 -7.875 175.3125 C-7.20769692 173.52382359 -6.54506975 171.73339695 -5.88671875 169.94140625 C-5.37890869 168.57072998 -5.37890869 168.57072998 -4.86083984 167.17236328 C11.87223995 120.75236331 11.56247178 66.86232603 -7.60253906 21.19458008 C-9.94541586 15.59510453 -11.5844916 11.5659748 -9.625 5.6875 C-7.15337889 1.0973465 -5.00783636 0.12938179 0 0 Z " fill="#D10027" transform="translate(458.875,113.5625)"/>
<path d="M0 0 C1.41784191 0.04518824 2.83582187 0.08624538 4.25390625 0.12304688 C7.71382428 0.22180209 11.16853111 0.37682192 14.625 0.5625 C9.06969305 16.92535212 1.74201105 29.30037505 -10.375 41.5625 C-11.02984375 42.28953125 -11.6846875 43.0165625 -12.359375 43.765625 C-25.48102529 58.00878386 -44.79795695 65.76960208 -63.375 69.5625 C-64.2825 69.75585938 -65.19 69.94921875 -66.125 70.1484375 C-92.95342855 73.56648248 -120.8536838 67.47751437 -142.5 50.875 C-146.6571419 47.35580062 -150.55842419 43.57039805 -154.4375 39.75 C-155.29722412 38.90465698 -155.29722412 38.90465698 -156.17431641 38.04223633 C-158.61473724 35.58147249 -160.26442653 33.89422042 -161.375 30.5625 C-157.81626017 32.25549273 -154.50253725 34.28597765 -151.125 36.3125 C-128.51028483 49.41828011 -102.73874255 53.28219848 -77.375 46.5625 C-61.6491412 42.16467641 -49.26095589 35.69260987 -36.375 25.5625 C-35.323125 24.77875 -34.27125 23.995 -33.1875 23.1875 C-28.35924403 18.68112776 -23.07346157 13.26252728 -20.29833984 7.21704102 C-15.85450462 -1.64009659 -8.76836525 -0.48509745 0 0 Z " fill="#424244" transform="translate(337.375,424.4375)"/>
<path d="M0 0 C3.39618697 2.3565379 4.69030306 3.81155349 5.73144531 7.80688477 C6.03536793 11.42052467 5.4627263 13.56834887 4.234375 16.96484375 C3.64269531 18.64936646 3.64269531 18.64936646 3.0390625 20.36791992 C2.61367187 21.54588135 2.18828125 22.72384277 1.75 23.9375 C-1.60290077 33.57773254 -4.57579538 42.86525819 -6 53 C-6.18046875 54.12277344 -6.3609375 55.24554688 -6.546875 56.40234375 C-8.70170554 74.21999271 -8.47354107 94.60808706 -4 112 C-3.78005371 112.85513184 -3.56010742 113.71026367 -3.33349609 114.59130859 C-1.11803387 123.00293277 1.23420953 131.30462287 4.5 139.375 C5.82388584 142.87028018 5.99469101 144.04778093 5.5625 147.9375 C3.73879488 151.51196203 2.53500094 153.07880383 -1 155 C-5.20954846 155.82657126 -7.9040866 155.70499307 -11.5625 153.3515625 C-24.75155581 140.62750546 -28.42754777 108.45696421 -29.16113281 91.2121582 C-29.43595445 65.61380086 -28.00092941 42.53549393 -20 18 C-19.77521973 17.30777344 -19.55043945 16.61554688 -19.31884766 15.90234375 C-15.83080762 5.41438738 -12.41579205 -2.5280102 0 0 Z " fill="#D00027" transform="translate(96,134)"/>
<path d="M0 0 C3.79142379 0.94055351 5.11590251 2.56891917 7.53515625 5.62890625 C9.15299189 8.80620009 10.35822847 12.07905199 11.53515625 15.44140625 C12.04671265 16.87456177 12.04671265 16.87456177 12.56860352 18.33666992 C19.19976848 37.66594372 21.76937345 57.12172217 21.78515625 77.44140625 C21.78583099 78.22169189 21.78650574 79.00197754 21.78720093 79.8059082 C21.77050226 91.97502259 21.22843638 103.71752322 18.53515625 115.62890625 C18.35823242 116.42635254 18.18130859 117.22379883 17.99902344 118.04541016 C11.717665 145.57381608 11.717665 145.57381608 3.53515625 154.62890625 C0.32159714 156.2356858 -2.97922858 156.09722307 -6.46484375 155.62890625 C-9.89468432 153.76486246 -11.14533286 152.27956288 -12.859375 148.7890625 C-14.41282798 142.88302462 -11.30833277 137.10510752 -9.27734375 131.62890625 C-5.87947598 121.99925102 -2.88990538 112.76974661 -1.46484375 102.62890625 C-1.284375 101.50484375 -1.10390625 100.38078125 -0.91796875 99.22265625 C2.49462426 70.998228 -1.35908421 42.59711887 -11.96484375 16.31640625 C-13.29678976 12.77564977 -13.46352218 11.6184989 -12.96484375 7.69140625 C-9.72891769 1.08472387 -7.11308555 0.18689715 0 0 Z " fill="#D10027" transform="translate(423.46484375,133.37109375)"/>
<path d="M0 0 C9.45774365 7.71342206 15.11333995 18.23808189 16.68359375 30.3203125 C16.9638441 35.32425616 16.86828333 40.31317279 16.68359375 45.3203125 C14.01675726 44.69603032 11.35012308 44.07090424 8.68359375 43.4453125 C7.93980469 43.27128906 7.19601562 43.09726563 6.4296875 42.91796875 C1.50307016 41.76128468 -3.40954441 40.55817992 -8.31640625 39.3203125 C-8.414375 38.67964844 -8.51234375 38.03898437 -8.61328125 37.37890625 C-9.83735227 30.29828851 -11.39559843 25.09133531 -16.75390625 20.0078125 C-22.48403513 16.23431299 -27.5312715 15.49285704 -34.31640625 16.3203125 C-40.22926041 18.12701794 -43.87996074 21.26671617 -47.31640625 26.3203125 C-49.13038483 30.58316216 -49.69059574 34.75081678 -50.31640625 39.3203125 C-53.35686605 40.13737417 -56.39897308 40.9481327 -59.44140625 41.7578125 C-60.29734375 41.98791016 -61.15328125 42.21800781 -62.03515625 42.45507812 C-66.44588008 43.62561637 -70.79093167 44.67487596 -75.31640625 45.3203125 C-75.89779899 29.55810929 -74.02925302 15.96876697 -62.98828125 3.7421875 C-45.07223117 -13.2724261 -19.83360337 -14.38187091 0 0 Z " fill="#808184" transform="translate(285.31640625,22.6796875)"/>
<path d="M0 0 C-4.27018032 14.35553082 -15.31186254 27.92450503 -27 37 C-28.47533203 38.17175781 -28.47533203 38.17175781 -29.98046875 39.3671875 C-38.94723737 46.26256511 -48.43312356 51.02519391 -59 55 C-60.78857422 55.68449219 -60.78857422 55.68449219 -62.61328125 56.3828125 C-86.51739989 63.85448237 -115.08363433 60.01940292 -137.15722656 48.98828125 C-141.10926496 46.86879908 -144.78855091 44.385749 -148.44921875 41.796875 C-150.9677834 39.96573971 -150.9677834 39.96573971 -153.65625 38.46484375 C-156.91032187 36.43104883 -158.65585594 34.0138995 -161 31 C-157.52337066 31 -157.00326094 31.53782134 -154.3125 33.5625 C-134.37202763 47.23319662 -108.63680722 51.89727951 -85 47.875 C-66.28605975 44.10547105 -51.00462821 36.7956738 -36 25 C-34.948125 24.21625 -33.89625 23.4325 -32.8125 22.625 C-26.92575514 17.1307048 -21.98663492 11.00169781 -18.375 3.8125 C-14.48152624 -2.47523636 -6.44931553 -0.66462412 0 0 Z " fill="#58595B" transform="translate(337,425)"/>
<path d="M0 0 C5.36000631 3.22753068 10.29395029 8.63601301 12.5625 14.5 C13.42516293 22.08340897 13.42710898 29.32099806 8.5625 35.5 C3.76479767 40.54810434 -0.60387386 44.10610293 -7.70703125 44.8359375 C-16.22326573 44.92983204 -22.11345494 44.6177288 -28.40234375 38.62890625 C-34.51772182 32.01329275 -35.97479364 26.71357268 -35.8125 17.7265625 C-34.97749568 10.54204617 -30.61733043 6.23202664 -25.28125 1.7265625 C-18.25978263 -2.94449842 -7.69581218 -3.41030108 0 0 Z " fill="#F0EFF0" transform="translate(267.4375,307.5)"/>
<path d="M0 0 C1.26626976 0.00067978 1.26626976 0.00067978 2.55812073 0.00137329 C3.44262909 -0.00198532 4.32713745 -0.00534393 5.2384491 -0.00880432 C8.17778406 -0.01834447 11.11706224 -0.02025895 14.05641174 -0.02133179 C16.090434 -0.02454221 18.12445602 -0.02790611 20.15847778 -0.03141785 C24.42825354 -0.03741677 28.69800902 -0.03925696 32.9677887 -0.03866577 C38.45044162 -0.0385641 43.93296519 -0.05221831 49.41558743 -0.06943798 C53.61821087 -0.08053331 57.82080281 -0.08258574 62.02343941 -0.08205605 C64.04532886 -0.08323982 66.06721904 -0.08768366 68.08909416 -0.09538841 C70.9121963 -0.10513882 73.73501444 -0.10232997 76.55812073 -0.09628296 C77.40027634 -0.10190247 78.24243195 -0.10752197 79.11010742 -0.11331177 C84.89450267 -0.08167836 84.89450267 -0.08167836 87.12281799 2.14663696 C86.58710371 5.68235125 86.58710371 5.68235125 85.12281799 7.14663696 C82.29778469 7.24717204 79.49716514 7.28279413 76.67164612 7.27603149 C75.78553146 7.27778381 74.89941681 7.27953613 73.9864502 7.28134155 C71.04230317 7.28576136 68.09821568 7.28282163 65.15406799 7.27944946 C63.11765023 7.28012247 61.08123255 7.28109246 59.04481506 7.28234863 C54.77084083 7.28382578 50.49688746 7.28167051 46.22291565 7.27700806 C40.7312326 7.27131076 35.23959843 7.27458968 29.74791718 7.28058052 C25.54104745 7.28418568 21.3341894 7.28304776 17.12731934 7.28045273 C15.10181676 7.27978333 13.07631313 7.28061231 11.05081177 7.28293228 C8.2251757 7.28545807 5.39961992 7.28161927 2.57398987 7.27603149 C1.30536354 7.27906784 1.30536354 7.27906784 0.0111084 7.28216553 C-5.7629196 7.26089937 -5.7629196 7.26089937 -6.87718201 6.14663696 C-7.00218201 3.64663696 -7.00218201 3.64663696 -6.87718201 1.14663696 C-5.03720506 -0.69333999 -2.44942205 0.01367067 0 0 Z " fill="#929497" transform="translate(189.87718200683594,432.8533630371094)"/>
<path d="M0 0 C13.98914128 -0.64898078 24.73110979 2.67780443 35.625 11.5625 C44.1303019 19.48789495 49.45885072 30.33763722 50.11132812 41.98779297 C50.23641609 46.33056464 50.16015452 50.65803301 50 55 C43.565 53.515 43.565 53.515 37 52 C37.66 51.67 38.32 51.34 39 51 C38.77461574 36.18610711 35.8288479 23.84798014 25 13 C17.66774551 6.38024374 9.29559198 3.68952461 0 1 C0 0.67 0 0.34 0 0 Z " fill="#5A5C5E" transform="translate(252,13)"/>
<path d="M0 0 C3 0.125 3 0.125 4 1.125 C4.125 3.625 4.125 3.625 4 6.125 C3 7.125 3 7.125 0 7.25 C-3 7.125 -3 7.125 -4 6.125 C-4.125 3.625 -4.125 3.625 -4 1.125 C-3 0.125 -3 0.125 0 0 Z " fill="#929497" transform="translate(289,432.875)"/>
</svg>
