<?xml version="1.0" encoding="UTF-8"?>
<svg version="1.1" xmlns="http://www.w3.org/2000/svg" width="50" height="50">
<path d="M0 0 C3 2 3 2 5 5 C5.86581772 9.4012401 6.01108378 11.47398762 3.52734375 15.22265625 C0.88162042 18.31775934 -1.60205196 20.73470131 -5 23 C-7.33199388 23.07905064 -9.66832622 23.08798769 -12 23 C-10.5807182 19.57440362 -8.94906975 17.93863545 -5.9375 15.8125 C-5.22464844 15.30332031 -4.51179688 14.79414063 -3.77734375 14.26953125 C-3.19082031 13.85058594 -2.60429688 13.43164062 -2 13 C-0.64381501 11.87465895 -0.64381501 11.87465895 -0.9375 8.9375 C-0.958125 7.968125 -0.97875 6.99875 -1 6 C-3.78839304 5.49734308 -3.78839304 5.49734308 -7 6 C-8.95451167 8.00104766 -10.42919923 9.74164334 -12 12 C-13.29241051 13.69859667 -14.61490475 15.37609523 -16 17 C-16.66 17 -17.32 17 -18 17 C-18.4415349 13.90925568 -18.67856314 11.99276727 -18 9 C-13.16919711 2.56995871 -8.32408775 -1.36877925 0 0 Z " fill="#000000" transform="translate(41,4)"/>
<path d="M0 0 C-1.4192818 3.42559638 -3.05093025 5.06136455 -6.0625 7.1875 C-6.77535156 7.69667969 -7.48820313 8.20585937 -8.22265625 8.73046875 C-9.10244141 9.35888672 -9.10244141 9.35888672 -10 10 C-11.35618499 11.12534105 -11.35618499 11.12534105 -11.0625 14.0625 C-11.041875 15.031875 -11.02125 16.00125 -11 17 C-8.21160696 17.50265692 -8.21160696 17.50265692 -5 17 C-3.04548833 14.99895234 -1.57080077 13.25835666 0 11 C1.29241051 9.30140333 2.61490475 7.62390477 4 6 C4.66 6 5.32 6 6 6 C6.55905131 9.83349466 6.73863151 11.8940383 4.546875 15.17578125 C-2.07238326 22.78236585 -2.07238326 22.78236585 -7.875 23.4375 C-11.21647704 23.33269352 -12.05818326 22.96121116 -15 21 C-17.04160423 17.93759365 -17.8471899 15.83972834 -17.62890625 12.12890625 C-15.18732819 3.86393702 -8.06290888 -0.30426071 0 0 Z " fill="#000000" transform="translate(21,23)"/>
<path d="M0 0 C-0.38936006 4.95302218 -2.89752267 7.50355043 -6.3125 10.8125 C-6.79912109 11.31458984 -7.28574219 11.81667969 -7.78710938 12.33398438 C-10.81118187 15.32549619 -11.56998188 16 -16 16 C-15.61063994 11.04697782 -13.10247733 8.49644957 -9.6875 5.1875 C-9.20087891 4.68541016 -8.71425781 4.18332031 -8.21289062 3.66601562 C-5.18881813 0.67450381 -4.43001812 0 0 0 Z " fill="#000000" transform="translate(33,17)"/>
</svg>
