<?xml version="1.0" encoding="UTF-8"?>
<svg version="1.1" xmlns="http://www.w3.org/2000/svg" width="50" height="50">
<path d="M0 0 C3.7125 -0.2475 7.425 -0.495 11.25 -0.75 C12.3937207 -0.85924805 13.53744141 -0.96849609 14.71582031 -1.08105469 C21.52007414 -1.2969522 25.83228187 0.40709707 30.75 4.9375 C35.99357285 10.32387302 37.19930857 15.2369666 37.16162109 22.61743164 C37.06965462 24.99713384 36.90585038 27.3736265 36.75 29.75 C36.5025 35.1125 36.255 40.475 36 46 C24.12 46 12.24 46 0 46 C0 30.82 0 15.64 0 0 Z M2 2 C2 15.86 2 29.72 2 44 C12.56 44 23.12 44 34 44 C34 34.43 34 24.86 34 15 C29.71 15 25.42 15 21 15 C21 10.71 21 6.42 21 2 C14.73 2 8.46 2 2 2 Z M23 5 C23 7.64 23 10.28 23 13 C25.64 13 28.28 13 31 13 C30.04578192 11.85073734 29.08647955 10.70569459 28.125 9.5625 C27.59132813 8.92441406 27.05765625 8.28632813 26.5078125 7.62890625 C25.0777243 5.89194996 25.0777243 5.89194996 23 5 Z " fill="#000000" transform="translate(7,2)"/>
<path d="M0 0 C0.99 0.33 1.98 0.66 3 1 C3.73046875 3.06640625 3.73046875 3.06640625 4.1875 5.5625 C4.34605469 6.38878906 4.50460938 7.21507812 4.66796875 8.06640625 C4.77753906 8.70449219 4.88710938 9.34257812 5 10 C7.31 10.33 9.62 10.66 12 11 C11.67 12.65 11.34 14.3 11 16 C10.34773438 15.94199219 9.69546875 15.88398437 9.0234375 15.82421875 C2.7700767 15.44054905 2.7700767 15.44054905 -2.4375 18.5 C-3.7059375 19.7375 -3.7059375 19.7375 -5 21 C-5.99 21 -6.98 21 -8 21 C-8 19.35 -8 17.7 -8 16 C-7.38125 15.7525 -6.7625 15.505 -6.125 15.25 C-3.55220744 13.73659261 -3.08332161 12.74699409 -2 10 C-1.76020238 7.63777768 -1.76020238 7.63777768 -1.875 5.25 C-1.89304687 4.45078125 -1.91109375 3.6515625 -1.9296875 2.828125 C-1.95289063 2.22484375 -1.97609375 1.6215625 -2 1 C-1.34 0.67 -0.68 0.34 0 0 Z " fill="#000000" transform="translate(23,19)"/>
</svg>
