<?xml version="1.0" encoding="UTF-8"?>
<svg version="1.1" xmlns="http://www.w3.org/2000/svg" width="512" height="512">
<path d="M0 0 C1.20336754 -0.00788544 1.20336754 -0.00788544 2.43104553 -0.01593018 C5.07467294 -0.02910039 7.71769492 -0.0204028 10.36132812 -0.01025391 C12.20308548 -0.0122755 14.04484206 -0.01518765 15.88659668 -0.01895142 C19.7433231 -0.02337073 23.59984084 -0.01695636 27.45654297 -0.00292969 C32.39633547 0.01416196 37.33563895 0.00431868 42.27541351 -0.01364708 C46.07757237 -0.02449552 49.87961558 -0.0210337 53.68177795 -0.0132637 C55.50301674 -0.01126463 57.32426609 -0.01371068 59.14549255 -0.02070236 C61.69232943 -0.02833431 64.23837798 -0.01668855 66.78515625 0 C67.53543594 -0.00607269 68.28571564 -0.01214539 69.05873108 -0.0184021 C74.56020692 0.04827139 77.81481386 1.30103184 81.67578125 5.17944336 C84.31278149 9.96614904 83.40331385 15.99808143 83.39257812 21.32568359 C83.4209375 22.60121094 83.44929687 23.87673828 83.47851562 25.19091797 C83.49774947 34.36065308 83.49774947 34.36065308 81.01757812 38.57177734 C76.6566544 41.10656426 72.26879338 42.31257489 67.39257812 43.51318359 C59.1972037 45.40571564 59.1972037 45.40571564 51.89257812 49.38818359 C49.73104953 53.71124079 50.61830965 59.45232824 50.58007812 64.20068359 C50.55107422 65.38984375 50.52207031 66.57900391 50.4921875 67.80419922 C50.47961914 69.52606445 50.47961914 69.52606445 50.46679688 71.28271484 C50.45221436 72.33305908 50.43763184 73.38340332 50.42260742 74.46557617 C51.02081269 78.18563605 52.20474457 79.77722724 54.89257812 82.38818359 C57.27394486 83.52698643 57.27394486 83.52698643 59.91992188 84.04833984 C60.87705078 84.28488281 61.83417969 84.52142578 62.8203125 84.76513672 C64.31014648 85.10448242 64.31014648 85.10448242 65.83007812 85.45068359 C77.91522204 88.26136527 77.91522204 88.26136527 81.89257812 92.38818359 C83.99348173 96.58999081 83.16045293 102.0323017 83.18774414 106.65454102 C83.20492818 108.68298389 83.24881187 110.70978353 83.29296875 112.73779297 C83.30134766 114.02105469 83.30972656 115.30431641 83.31835938 116.62646484 C83.34023315 118.39050659 83.34023315 118.39050659 83.36254883 120.19018555 C82.7934649 124.0626169 81.66971932 125.67184899 78.89257812 128.38818359 C75.14257812 129.70068359 75.14257812 129.70068359 71.89257812 130.38818359 C72.43527344 130.81228516 72.97796875 131.23638672 73.53710938 131.67333984 C74.61025391 132.553125 74.61025391 132.553125 75.70507812 133.45068359 C76.41277344 134.01916016 77.12046875 134.58763672 77.84960938 135.17333984 C84.0365075 141.88074182 83.32119537 149.69556153 83.28025818 158.31163025 C83.28443358 159.73915528 83.28991223 161.16667699 83.29657799 162.59419256 C83.31102434 166.50794313 83.30679046 170.42148296 83.29941118 174.33524501 C83.29467981 178.55960176 83.30718906 182.78391289 83.31742859 187.008255 C83.33462235 195.28048124 83.33545543 203.55263153 83.33021569 211.824871 C83.32617395 218.54851866 83.32761759 225.27214389 83.33296394 231.99579048 C83.33371237 232.95280726 83.33446079 233.90982403 83.33523189 234.89584132 C83.33676337 236.84002674 83.33830172 238.78421215 83.33984686 240.72839756 C83.3535739 258.95935128 83.34813269 277.19026208 83.33666164 295.42121483 C83.32672831 312.09904621 83.33967131 328.77676668 83.36359584 345.45458096 C83.38797918 362.58132069 83.39759663 379.70800875 83.39094311 396.83476549 C83.38744929 406.44938003 83.38969377 416.06390925 83.40719414 425.67851067 C83.42190651 433.86289412 83.42256415 442.04713215 83.40512323 450.23151272 C83.39660303 454.40671793 83.39448847 458.58166326 83.40977478 462.75685501 C83.42360157 466.58075523 83.41888498 470.40417244 83.39953554 474.22804458 C83.39398794 476.26279374 83.40806377 478.29756737 83.42288965 480.33227009 C83.35800819 488.37687239 82.78538478 494.51741169 76.82226562 500.44677734 C76.14421875 500.90181641 75.46617187 501.35685547 74.76757812 501.82568359 C74.084375 502.29876953 73.40117187 502.77185547 72.69726562 503.25927734 C69.85002502 505.04034344 68.16735952 505.51697826 64.83358765 505.54208374 C63.98415588 505.5506842 63.13472412 505.55928467 62.259552 505.56814575 C60.85852737 505.57453568 60.85852737 505.57453568 59.42919922 505.58105469 C58.44689331 505.58923218 57.4645874 505.59740967 56.45251465 505.60583496 C53.19035455 505.63071657 49.92823812 505.64721434 46.66601562 505.66162109 C45.55251362 505.66694477 44.43901161 505.67226845 43.29176712 505.67775345 C37.395202 505.70450027 31.49865815 505.72386809 25.60205078 505.73828125 C19.51560115 505.75490979 13.42969501 505.79966874 7.34345055 505.85065269 C2.66105541 505.88434178 -2.02121118 505.89586072 -6.70371628 505.90150833 C-8.94676225 505.90821886 -11.18979982 505.92343565 -13.43272781 505.94739914 C-16.57815743 505.97908052 -19.72212795 505.97908218 -22.86767578 505.97167969 C-23.78954681 505.98808502 -24.71141785 506.00449036 -25.66122437 506.02139282 C-32.77386606 505.95309903 -37.42002013 503.78915549 -42.63334084 498.98079491 C-49.27508311 491.75550909 -48.39493231 482.89706644 -48.36811829 473.69924927 C-48.37114086 472.29718792 -48.37503087 470.89512823 -48.37971085 469.49307144 C-48.38998599 465.64969878 -48.38781027 461.80641946 -48.38353026 457.96303916 C-48.38106216 453.81433848 -48.39007825 449.66566023 -48.39756775 445.51696777 C-48.41031446 437.39281001 -48.41210847 429.2686853 -48.40976749 421.14451922 C-48.40798412 414.54054483 -48.40973436 407.93658046 -48.41399193 401.33260727 C-48.41458712 400.39253138 -48.41518231 399.4524555 -48.41579553 398.48389246 C-48.41700729 396.57409478 -48.41822142 394.6642971 -48.41943791 392.75449942 C-48.43031336 374.84590378 -48.42815094 356.93732696 -48.42205306 339.02873026 C-48.416884 322.64905359 -48.42813905 306.26943639 -48.44715128 289.88977148 C-48.46652798 273.06700617 -48.47478597 256.244269 -48.47102803 239.42149246 C-48.46911572 229.97844541 -48.47160648 220.53544898 -48.48574257 211.09241104 C-48.49765519 203.05337201 -48.49906259 195.01441475 -48.4869524 186.97537459 C-48.48106287 182.87501827 -48.47996632 178.77481154 -48.4919548 174.67446518 C-48.50281061 170.91781922 -48.49971398 167.16144781 -48.48569312 163.40481471 C-48.48179501 161.4085842 -48.49259577 159.41234151 -48.50398999 157.41613972 C-48.45478745 149.23710912 -48.12286765 141.94486322 -42.66992188 135.51318359 C-40.52338374 133.73312758 -38.38787585 131.9929475 -36.10742188 130.38818359 C-37.71617188 130.04787109 -37.71617188 130.04787109 -39.35742188 129.70068359 C-43.52740325 128.24119011 -44.78041905 127.05768805 -47.10742188 123.38818359 C-48.42093941 119.44763099 -48.28977165 115.66558543 -48.31054688 111.55615234 C-48.31624695 110.68678543 -48.32194702 109.81741852 -48.32781982 108.92170715 C-48.33726465 107.08168757 -48.34380175 105.24165111 -48.34765625 103.40161133 C-48.35734924 100.59670216 -48.38837197 97.79252981 -48.41992188 94.98779297 C-48.42645355 93.19808377 -48.43170338 91.40836934 -48.43554688 89.61865234 C-48.45406708 88.3667939 -48.45406708 88.3667939 -48.47296143 87.08964539 C-48.45403471 82.10305893 -47.84823056 78.72084662 -45.10742188 74.38818359 C-41.84555401 71.43211584 -39.02572141 71.241401 -34.79492188 71.01318359 C-29.28471041 70.62702322 -25.08512531 69.33930994 -21.10742188 65.38818359 C-16.78674156 59.33912964 -16.54468433 54.50789671 -16.60351562 47.19677734 C-16.59409439 46.13330582 -16.58467316 45.06983429 -16.57496643 43.97413635 C-16.54639505 40.59112082 -16.54323573 37.20880984 -16.54492188 33.82568359 C-16.54131066 30.43909012 -16.53174936 27.05300633 -16.50416565 23.66651917 C-16.48741722 21.56415742 -16.48447 19.46162772 -16.49717712 17.35923767 C-16.45873093 12.00863546 -16.33586578 7.89232317 -13.10742188 3.38818359 C-8.91653421 0.13966165 -5.11646489 -0.04141218 0 0 Z " fill="#FA4958" transform="translate(156.107421875,6.61181640625)"/>
<path d="M0 0 C1.20336754 -0.00788544 1.20336754 -0.00788544 2.43104553 -0.01593018 C5.07467294 -0.02910039 7.71769492 -0.0204028 10.36132812 -0.01025391 C12.20308548 -0.0122755 14.04484206 -0.01518765 15.88659668 -0.01895142 C19.7433231 -0.02337073 23.59984084 -0.01695636 27.45654297 -0.00292969 C32.39633547 0.01416196 37.33563895 0.00431868 42.27541351 -0.01364708 C46.07757237 -0.02449552 49.87961558 -0.0210337 53.68177795 -0.0132637 C55.50301674 -0.01126463 57.32426609 -0.01371068 59.14549255 -0.02070236 C61.69232943 -0.02833431 64.23837798 -0.01668855 66.78515625 0 C67.53543594 -0.00607269 68.28571564 -0.01214539 69.05873108 -0.0184021 C74.56020692 0.04827139 77.81481386 1.30103184 81.67578125 5.17944336 C84.31278149 9.96614904 83.40331385 15.99808143 83.39257812 21.32568359 C83.4209375 22.60121094 83.44929687 23.87673828 83.47851562 25.19091797 C83.49774947 34.36065308 83.49774947 34.36065308 81.01757812 38.57177734 C76.6566544 41.10656426 72.26879338 42.31257489 67.39257812 43.51318359 C59.1972037 45.40571564 59.1972037 45.40571564 51.89257812 49.38818359 C49.73104953 53.71124079 50.61830965 59.45232824 50.58007812 64.20068359 C50.55107422 65.38984375 50.52207031 66.57900391 50.4921875 67.80419922 C50.47961914 69.52606445 50.47961914 69.52606445 50.46679688 71.28271484 C50.45221436 72.33305908 50.43763184 73.38340332 50.42260742 74.46557617 C51.02081269 78.18563605 52.20474457 79.77722724 54.89257812 82.38818359 C57.27394486 83.52698643 57.27394486 83.52698643 59.91992188 84.04833984 C60.87705078 84.28488281 61.83417969 84.52142578 62.8203125 84.76513672 C64.31014648 85.10448242 64.31014648 85.10448242 65.83007812 85.45068359 C77.91522204 88.26136527 77.91522204 88.26136527 81.89257812 92.38818359 C83.99348173 96.58999081 83.16045293 102.0323017 83.18774414 106.65454102 C83.20492818 108.68298389 83.24881187 110.70978353 83.29296875 112.73779297 C83.30134766 114.02105469 83.30972656 115.30431641 83.31835938 116.62646484 C83.34023315 118.39050659 83.34023315 118.39050659 83.36254883 120.19018555 C82.79897441 124.02512645 81.57844198 125.64919619 78.89257812 128.38818359 C76.59604113 129.53645209 75.30944645 129.50379534 72.75976562 129.48583984 C71.95410156 129.48261719 71.1484375 129.47939453 70.31835938 129.47607422 C69.47660156 129.46769531 68.63484375 129.45931641 67.76757812 129.45068359 C66.91808594 129.44617188 66.06859375 129.44166016 65.19335938 129.43701172 C63.09306904 129.42521233 60.99281482 129.40727665 58.89257812 129.38818359 C58.60382813 130.17193359 58.31507813 130.95568359 58.01757812 131.76318359 C56.89257812 134.38818359 56.89257812 134.38818359 54.89257812 136.38818359 C50.88571456 136.83339066 48.74555701 137.02244994 45.45507812 134.57568359 C43.89257812 132.38818359 43.89257812 132.38818359 43.89257812 129.38818359 C37.62257813 129.38818359 31.35257812 129.38818359 24.89257812 129.38818359 C24.56257813 131.03818359 24.23257813 132.68818359 23.89257812 134.38818359 C20.16002364 136.87655325 18.30816878 136.93044911 13.89257812 136.38818359 C11.45507812 134.01318359 11.45507812 134.01318359 9.89257812 131.38818359 C9.89257812 130.72818359 9.89257812 130.06818359 9.89257812 129.38818359 C3.95257813 129.38818359 -1.98742187 129.38818359 -8.10742188 129.38818359 C-8.76742187 131.03818359 -9.42742187 132.68818359 -10.10742188 134.38818359 C-12.10742188 136.38818359 -12.10742188 136.38818359 -15.48242188 136.76318359 C-19.10742188 136.38818359 -19.10742188 136.38818359 -21.54492188 134.57568359 C-23.10742188 132.38818359 -23.10742188 132.38818359 -23.10742188 129.38818359 C-24.34878906 129.43458984 -25.59015625 129.48099609 -26.86914062 129.52880859 C-28.51104358 129.5663378 -30.15297264 129.60273673 -31.79492188 129.63818359 C-32.61154297 129.67169922 -33.42816406 129.70521484 -34.26953125 129.73974609 C-38.26480359 129.80444686 -40.53881944 129.71567456 -44.06445312 127.68505859 C-48.49208973 122.7071421 -48.41516746 117.70557631 -48.40820312 111.36083984 C-48.41248825 110.49430283 -48.41677338 109.62776581 -48.42118835 108.73497009 C-48.42691731 106.90689974 -48.42744251 105.07880659 -48.4230957 103.25073242 C-48.41993637 100.46346923 -48.4434102 97.6772688 -48.46875 94.89013672 C-48.4710233 93.10953909 -48.47172634 91.32893863 -48.47070312 89.54833984 C-48.47991287 88.72004166 -48.48912262 87.89174347 -48.49861145 87.03834534 C-48.45920593 82.07697744 -47.82686457 78.70042497 -45.10742188 74.38818359 C-41.84555401 71.43211584 -39.02572141 71.241401 -34.79492188 71.01318359 C-29.28471041 70.62702322 -25.08512531 69.33930994 -21.10742188 65.38818359 C-16.78674156 59.33912964 -16.54468433 54.50789671 -16.60351562 47.19677734 C-16.59409439 46.13330582 -16.58467316 45.06983429 -16.57496643 43.97413635 C-16.54639505 40.59112082 -16.54323573 37.20880984 -16.54492188 33.82568359 C-16.54131066 30.43909012 -16.53174936 27.05300633 -16.50416565 23.66651917 C-16.48741722 21.56415742 -16.48447 19.46162772 -16.49717712 17.35923767 C-16.45873093 12.00863546 -16.33586578 7.89232317 -13.10742188 3.38818359 C-8.91653421 0.13966165 -5.11646489 -0.04141218 0 0 Z " fill="#918190" transform="translate(156.107421875,6.61181640625)"/>
<path d="M0 0 C27.72 0 55.44 0 84 0 C84 51.81 84 103.62 84 157 C8 157 8 157 2 153 C-0.13661768 149.29028195 -0.24768363 146.00949861 -0.24050903 141.78007507 C-0.24325836 140.52790695 -0.24600769 139.27573883 -0.24884033 137.98562622 C-0.241763 136.60589503 -0.23449339 135.22616482 -0.22705078 133.84643555 C-0.22648639 132.38758858 -0.22680378 130.92874105 -0.22793579 129.46989441 C-0.2285092 125.51572123 -0.21675679 121.56166959 -0.20278788 117.60752463 C-0.19027858 113.47287854 -0.18910986 109.3382296 -0.18673706 105.2035675 C-0.18052288 97.3767784 -0.16411289 89.55004522 -0.14403808 81.72328073 C-0.11749538 71.14501279 -0.10670594 60.56672954 -0.09503365 49.9884367 C-0.07623226 33.32558258 -0.03638617 16.66284648 0 0 Z " fill="#F4F6F7" transform="translate(155,274)"/>
<path d="M0 0 C6.14620643 -0.24066471 9.92738645 0.79776466 14.84375 4.4609375 C19.30613602 8.79277499 21.68008155 12.93331812 22.08425903 19.17524719 C22.09002025 20.63546306 22.08482265 22.0957483 22.07080078 23.5559082 C22.07109283 24.35643112 22.07138489 25.15695404 22.07168579 25.98173523 C22.07029705 28.61684158 22.05475739 31.25166204 22.0390625 33.88671875 C22.03533075 35.71803127 22.03248454 37.54934578 22.03048706 39.38066101 C22.02286337 44.19261216 22.00322573 49.00444191 21.9810791 53.81634521 C21.96059344 58.72976032 21.95147953 63.6431951 21.94140625 68.55664062 C21.91997864 78.19146807 21.88480678 87.82617368 21.84375 97.4609375 C12.27375 97.4609375 2.70375 97.4609375 -7.15625 97.4609375 C-7.15625 79.9709375 -7.15625 62.4809375 -7.15625 44.4609375 C-12.00699219 44.51894531 -16.85773438 44.57695312 -21.85546875 44.63671875 C-24.93167414 44.6622718 -28.00774837 44.68634144 -31.08398438 44.70507812 C-35.96503939 44.73494861 -40.84562468 44.77025392 -45.72631836 44.83813477 C-49.66209363 44.89253003 -53.59736512 44.9223735 -57.53348732 44.93532372 C-59.0338312 44.94455031 -60.53414802 44.9625684 -62.03427696 44.98958778 C-64.13893196 45.02598202 -66.24151565 45.03087911 -68.34643555 45.02856445 C-70.1418 45.04521904 -70.1418 45.04521904 -71.97343445 45.06221008 C-76.11161332 44.28045775 -77.61195395 42.75542943 -80.15625 39.4609375 C-80.21875 35.8359375 -80.21875 35.8359375 -79.15625 32.4609375 C-76.81322128 30.05852816 -75.452047 29.49578179 -72.09368896 29.10017395 C-70.29499359 29.1101667 -70.29499359 29.1101667 -68.45996094 29.12036133 C-67.79613403 29.11992325 -67.13230713 29.11948517 -66.44836426 29.11903381 C-64.26214818 29.12111779 -62.0767065 29.14442895 -59.890625 29.16796875 C-58.3717694 29.17356613 -56.85290837 29.17783556 -55.33404541 29.18083191 C-51.34233568 29.1922696 -47.350955 29.22172723 -43.359375 29.25494385 C-39.28389944 29.2856681 -35.20837056 29.29934226 -31.1328125 29.31445312 C-23.14047423 29.34659822 -15.14840309 29.39778126 -7.15625 29.4609375 C-7.28241867 27.37059899 -7.41841737 25.28085216 -7.55859375 23.19140625 C-7.63327881 22.02762451 -7.70796387 20.86384277 -7.78491211 19.66479492 C-8.22596788 15.85942025 -9.16272428 13.66791366 -11.15625 10.4609375 C-11.15625 9.8009375 -11.15625 9.1409375 -11.15625 8.4609375 C-10.228125 8.0690625 -9.3 7.6771875 -8.34375 7.2734375 C-4.98455676 5.77087938 -4.98455676 5.77087938 -3.90625 2.7734375 C-2.15625 0.4609375 -2.15625 0.4609375 0 0 Z " fill="#E22334" transform="translate(217.15625,135.5390625)"/>
<path d="M0 0 C4.32328804 -0.0744013 8.64623255 -0.12871968 12.9699707 -0.16479492 C14.43943782 -0.17984066 15.90886034 -0.20028238 17.37817383 -0.22631836 C19.4957177 -0.26288955 21.61266565 -0.27976801 23.73046875 -0.29296875 C25.63928833 -0.31653442 25.63928833 -0.31653442 27.58666992 -0.34057617 C32.17135209 0.11687549 34.57314555 1.56669892 37.78320312 4.79125977 C40.42020336 9.57796545 39.51073572 15.60989784 39.5 20.9375 C39.52835938 22.21302734 39.55671875 23.48855469 39.5859375 24.80273438 C39.60517134 33.97246949 39.60517134 33.97246949 37.125 38.18359375 C32.76407627 40.71838067 28.37621526 41.92439129 23.5 43.125 C15.30462558 45.01753204 15.30462558 45.01753204 8 49 C5.8384714 53.32305719 6.72573152 59.06414464 6.6875 63.8125 C6.64399414 65.59624023 6.64399414 65.59624023 6.59960938 67.41601562 C6.59123047 68.56392578 6.58285156 69.71183594 6.57421875 70.89453125 C6.55963623 71.94487549 6.54505371 72.99521973 6.5300293 74.07739258 C7.12823456 77.79745245 8.31216645 79.38904365 11 82 C13.38136674 83.13880284 13.38136674 83.13880284 16.02734375 83.66015625 C17.46303711 84.0149707 17.46303711 84.0149707 18.92773438 84.37695312 C19.92095703 84.60318359 20.91417969 84.82941406 21.9375 85.0625 C34.02264391 87.87318168 34.02264391 87.87318168 38 92 C40.10090361 96.20180722 39.26787481 101.6441181 39.29516602 106.26635742 C39.31235006 108.29480029 39.35623375 110.32159994 39.40039062 112.34960938 C39.40876953 113.63287109 39.41714844 114.91613281 39.42578125 116.23828125 C39.44036377 117.41430908 39.45494629 118.59033691 39.4699707 119.80200195 C38.90639629 123.63694286 37.68586386 125.2610126 35 128 C32.703463 129.1482685 31.41686833 129.11561175 28.8671875 129.09765625 C28.06152344 129.09443359 27.25585938 129.09121094 26.42578125 129.08789062 C25.58402344 129.07951172 24.74226563 129.07113281 23.875 129.0625 C23.02550781 129.05798828 22.17601562 129.05347656 21.30078125 129.04882812 C19.20049091 129.03702874 17.1002367 129.01909306 15 129 C14.9906543 128.41508789 14.98130859 127.83017578 14.97167969 127.22753906 C14.91786721 124.5675142 14.83424551 121.90922778 14.75 119.25 C14.73582031 118.32960938 14.72164062 117.40921875 14.70703125 116.4609375 C14.65290474 111.12267831 14.65290474 111.12267831 12.015625 106.703125 C11.35046875 106.14109375 10.6853125 105.5790625 10 105 C9.27792516 102.2101654 9.00193526 99.5176109 8.6875 96.65625 C7.81825627 93.29780832 6.73920951 92.10743897 4 90 C1.0957951 88.76930164 1.0957951 88.76930164 -2.125 87.9375 C-3.27097656 87.60621094 -4.41695312 87.27492188 -5.59765625 86.93359375 C-7.70730287 86.35471253 -9.81894667 85.78299549 -11.93359375 85.22265625 C-20.15103654 82.96377524 -20.15103654 82.96377524 -23 79 C-24.60930912 74.17207263 -24.26775272 69.24394272 -24.3125 64.1875 C-24.34150391 63.10662109 -24.37050781 62.02574219 -24.40039062 60.91210938 C-24.43774839 56.23089427 -24.31786003 52.75759386 -22.4921875 48.40625 C-19.18170933 45.20992625 -16.21499858 44.36121516 -11.8125 43.3125 C-10.28502325 42.90283936 -8.75767816 42.49268743 -7.23046875 42.08203125 C-5.82058095 41.72030623 -4.41045004 41.35952648 -3 41 C3.07383322 39.61106205 3.07383322 39.61106205 7.69946289 35.76757812 C9.99843098 30.87531188 9.47092615 25.81779708 9.4375 20.5 C9.45748047 19.37207031 9.47746094 18.24414062 9.49804688 17.08203125 C9.53840075 10.64483974 9.53840075 10.64483974 7.14453125 4.80078125 C4.84967426 2.87377019 2.85746206 1.87311341 0 1 C0 0.67 0 0.34 0 0 Z " fill="#7A6E79" transform="translate(200,7)"/>
<path d="M0 0 C0.74185547 -0.00029205 1.48371094 -0.00058411 2.24804688 -0.00088501 C4.69380494 0.00050545 7.13925626 0.01605313 9.58496094 0.03173828 C11.28318109 0.03546942 12.98140339 0.03831592 14.67962646 0.04031372 C19.144714 0.04794221 23.609671 0.06758397 28.07470703 0.08972168 C33.43449201 0.11379828 38.79432069 0.12296483 44.15414429 0.1346283 C52.29263224 0.15400883 60.43083387 0.19233679 68.56933594 0.22705078 C68.56933594 13.75705078 68.56933594 27.28705078 68.56933594 41.22705078 C40.84933594 41.22705078 13.12933594 41.22705078 -15.43066406 41.22705078 C-15.43066406 7.22705078 -15.43066406 7.22705078 -11.43066406 2.22705078 C-7.92824894 -0.31957794 -4.16827784 -0.04304652 0 0 Z " fill="#FBC06D" transform="translate(170.4306640625,232.77294921875)"/>
<path d="M0 0 C9.57 0 19.14 0 29 0 C29 33 29 66 29 100 C20.1725 100.0825 11.345 100.165 2.25 100.25 C-1.92414551 100.30462402 -1.92414551 100.30462402 -6.18261719 100.36035156 C-8.38736194 100.37203358 -10.5921153 100.38222656 -12.796875 100.390625 C-13.94236816 100.41108887 -15.08786133 100.43155273 -16.26806641 100.45263672 C-17.36393066 100.45312012 -18.45979492 100.45360352 -19.58886719 100.45410156 C-21.01449982 100.46742523 -21.01449982 100.46742523 -22.46893311 100.48101807 C-25.7691199 99.85383217 -26.94714917 98.60720842 -29 96 C-29.5625 93.0625 -29.5625 93.0625 -29 90 C-27.35 88.35 -25.7 86.7 -24 85 C-16.08 85 -8.16 85 0 85 C0 56.95 0 28.9 0 0 Z " fill="#D9E7EB" transform="translate(210,274)"/>
<path d="M0 0 C9.57 0 19.14 0 29 0 C29.16043524 16.15048056 29.16043524 16.15048056 29.1953125 23.0703125 C29.2191623 27.77980731 29.24728154 32.48898907 29.30175781 37.19824219 C29.345433 40.99785274 29.36918239 44.79712727 29.37950897 48.5969696 C29.38686174 50.04177637 29.40121968 51.48656614 29.42292023 52.93122864 C29.53718279 60.85806084 29.50073287 67.20609623 25 74 C22.9296875 76.05859375 22.9296875 76.05859375 20.875 77.4375 C20.19179687 77.91058594 19.50859375 78.38367188 18.8046875 78.87109375 C15.03136595 81.23146156 11.93158207 81.12917941 7.5859375 81.09765625 C6.85629791 81.0962413 6.12665833 81.09482635 5.37490845 81.09336853 C3.04156415 81.08776531 0.70831536 81.07521235 -1.625 81.0625 C-3.20572778 81.05748541 -4.78645707 81.05292243 -6.3671875 81.04882812 C-10.24482854 81.03779484 -14.12239807 81.02052811 -18 81 C-15.53386932 79.75884014 -13.05914945 78.55523429 -10.5625 77.375 C-5.92835517 74.72406984 -3.04688973 70.32545916 -1.45375061 65.26483154 C-0.88030009 62.40253494 -0.83555586 59.68256145 -0.79467773 56.76269531 C-0.77473251 55.50169006 -0.75478729 54.24068481 -0.73423767 52.94146729 C-0.71725599 51.57035443 -0.70037709 50.1992403 -0.68359375 48.828125 C-0.66301165 47.42136033 -0.64201485 46.01460167 -0.62062073 44.60784912 C-0.56552965 40.91226073 -0.51606345 37.21661774 -0.46777344 33.52093506 C-0.41746351 29.74698049 -0.36187843 25.97310387 -0.30664062 22.19921875 C-0.19872015 14.79953917 -0.09959659 7.39981507 0 0 Z " fill="#F82F40" transform="translate(210,431)"/>
<path d="M0 0 C1.08089401 0.00022659 2.16178802 0.00045319 3.2754364 0.00068665 C5.02398674 0.02391243 5.02398674 0.02391243 6.80786133 0.04760742 C8.00220291 0.05185226 9.19654449 0.05609711 10.42707825 0.06047058 C14.24824402 0.07728658 18.06888574 0.11494524 21.88989258 0.15307617 C24.4777756 0.16811918 27.06566687 0.18180825 29.65356445 0.1940918 C36.00353901 0.2246499 42.352378 0.28336883 48.70239258 0.34057617 C48.70239258 15.52057617 48.70239258 30.70057617 48.70239258 46.34057617 C23.62239258 46.34057617 -1.45760742 46.34057617 -27.29760742 46.34057617 C-27.29760742 46.01057617 -27.29760742 45.68057617 -27.29760742 45.34057617 C-12.11760742 45.34057617 3.06239258 45.34057617 18.70239258 45.34057617 C18.70239258 35.77057617 18.70239258 26.20057617 18.70239258 16.34057617 C12.01610441 16.45881062 12.01610441 16.45881062 5.33056641 16.61083984 C-3.40314386 16.6887222 -3.40314386 16.6887222 -7.29760742 13.34057617 C-9.29760742 10.34057617 -9.29760742 10.34057617 -9.11010742 6.84057617 C-7.77450944 1.08723104 -5.77619664 -0.04039298 0 0 Z " fill="#DBE2E6" transform="translate(190.297607421875,384.659423828125)"/>
<path d="M0 0 C9.57 0 19.14 0 29 0 C29 17.49 29 34.98 29 53 C19.43 53 9.86 53 0 53 C0 35.51 0 18.02 0 0 Z " fill="#F72F40" transform="translate(210,180)"/>
<path d="M0 0 C2.5 1.5625 2.5 1.5625 4 4 C4.44512168 7.5609734 4.61986591 9.91445191 2.8157959 13.07385254 C0.5464644 15.48109836 -1.37747986 16.21182445 -4.49023438 17.31835938 C-5.61570679 17.72558228 -6.7411792 18.13280518 -7.90075684 18.55236816 C-9.11944458 18.97852417 -10.33813232 19.40468018 -11.59375 19.84375 C-12.86389135 20.29814062 -14.13362023 20.75368571 -15.4029541 21.21032715 C-18.7484552 22.41041751 -22.09925076 23.59498043 -25.45141602 24.77630615 C-28.82502363 25.96808501 -32.19357865 27.17395794 -35.5625 28.37890625 C-41.63772004 30.55007679 -47.71699521 32.70948399 -53.80151367 34.85449219 C-55.92560746 35.61521641 -58.04317392 36.39443071 -60.15356445 37.19238281 C-61.61379028 37.74394043 -61.61379028 37.74394043 -63.10351562 38.30664062 C-63.95482056 38.63490845 -64.80612549 38.96317627 -65.68322754 39.3013916 C-69.26378932 40.38108785 -71.4409658 40.11219819 -75 39 C-76.9375 37.9375 -76.9375 37.9375 -78 36 C-78.61057692 30.50480769 -78.61057692 30.50480769 -78 28 C-75.14941782 24.64719563 -72.56394695 23.15952525 -68.45629883 21.66577148 C-67.34446732 21.25532089 -66.2326358 20.8448703 -65.08711243 20.42198181 C-63.88918564 19.99268875 -62.69125885 19.56339569 -61.45703125 19.12109375 C-60.21886154 18.66775162 -58.98069183 18.21440948 -57.70500183 17.74732971 C-54.41586588 16.54337818 -51.12194527 15.35308289 -47.8269043 14.16540527 C-44.50054675 12.96342551 -41.17932758 11.7474186 -37.85742188 10.53320312 C-19.60210249 3.87291501 -19.60210249 3.87291501 -11.9440918 1.23071289 C-11.27798386 1.00017715 -10.61187592 0.76964142 -9.92558289 0.53211975 C-6.40986867 -0.43942034 -3.63916928 -0.43176585 0 0 Z " fill="#FEE7C9" transform="translate(388,0)"/>
<path d="M0 0 C1.2358786 0.45097046 2.4717572 0.90194092 3.74508667 1.36657715 C6.32944497 2.31092252 8.91224287 3.25939867 11.49414062 4.21044922 C14.79404054 5.42513189 18.09923584 6.62467167 21.40590096 7.82079315 C24.58676077 8.97476703 27.7617195 10.14462106 30.9375 11.3125 C32.71086227 11.95173401 32.71086227 11.95173401 34.52005005 12.60388184 C36.16358963 13.21471619 36.16358963 13.21471619 37.84033203 13.83789062 C38.80182159 14.1900061 39.76331116 14.54212158 40.75393677 14.90490723 C43.60015589 16.30120036 45.30803728 17.70002433 47.3046875 20.15625 C47.75846223 23.78644782 47.74168616 26.17942947 46.2421875 29.53125 C43.39111812 31.92246948 40.97895576 31.88813104 37.3046875 32.15625 C34.07359314 31.42352295 34.07359314 31.42352295 30.73022461 30.20605469 C30.11461166 29.98668747 29.49899872 29.76732025 28.86473083 29.54130554 C26.84811073 28.81842233 24.84035224 28.07372193 22.83203125 27.328125 C21.42196849 26.81696114 20.01144252 26.30707343 18.60047913 25.79840088 C15.65096185 24.73156157 12.70533729 23.65481956 9.76245117 22.56982422 C6.00252056 21.18363391 2.23681474 19.81410236 -1.53151798 18.45093918 C-5.14144552 17.14449813 -8.74866535 15.83066218 -12.35546875 14.515625 C-13.37857493 14.1433289 -13.37857493 14.1433289 -14.42234993 13.76351166 C-16.36647044 13.05433027 -18.30863264 12.34004136 -20.25024414 11.62402344 C-21.35276016 11.21907654 -22.45527618 10.81412964 -23.59120178 10.39691162 C-32.14828864 6.97678579 -32.14828864 6.97678579 -34.6953125 3.15625 C-35.02690278 -0.4912431 -35.16862653 -2.94445334 -33.4453125 -6.21875 C-26.16447008 -12.97953225 -7.97578479 -2.92506963 0 0 Z " fill="#FEE7C9" transform="translate(344.6953125,117.84375)"/>
<path d="M0 0 C0.7662973 -0.00540298 1.5325946 -0.01080597 2.32211304 -0.01637268 C4.85112309 -0.02886443 7.37899581 -0.01236843 9.90795898 0.00561523 C11.66625529 0.00546027 13.42455194 0.00397175 15.18284607 0.00120544 C18.86570354 -0.00017869 22.54817163 0.01238297 26.23095703 0.03515625 C30.95465217 0.06356195 35.67770133 0.06079817 40.40144444 0.04806614 C44.03111808 0.04111633 47.66064202 0.04888987 51.29029655 0.06132317 C53.03224044 0.065843 54.77420035 0.06616983 56.51614571 0.06225777 C58.94859991 0.0593518 61.38015884 0.07582134 63.8125 0.09765625 C64.8949575 0.09090378 64.8949575 0.09090378 65.99928284 0.08401489 C68.86029199 0.12675187 70.85657266 0.16832703 73.25352478 1.81602478 C75.11009963 4.69242046 75.28324594 7.11991491 75.34155273 10.50170898 C73.57514101 13.30360344 72.31105452 15.01695809 69.34155273 16.50170898 C66.99925569 16.60941694 64.65382247 16.65064698 62.30908203 16.6628418 C61.22341446 16.67028915 61.22341446 16.67028915 60.11581421 16.67788696 C57.71579037 16.69251942 55.31583265 16.69931286 52.91577148 16.70483398 C51.24908954 16.71058518 49.58240761 16.71634291 47.91572571 16.72210693 C44.41777233 16.73262043 40.91984196 16.7384606 37.421875 16.74194336 C32.94276415 16.7474245 28.46395784 16.77144279 23.98494244 16.79991531 C20.54052345 16.81855418 17.09617757 16.82374799 13.65171242 16.82527924 C12.0007136 16.8283042 10.34971603 16.83632749 8.69876671 16.84946442 C6.38634586 16.86654906 4.07466566 16.86463893 1.76220703 16.8581543 C0.44697556 16.86179993 -0.86825592 16.86544556 -2.2233429 16.86920166 C-5.87561217 16.47847635 -7.76098864 15.71441257 -10.65844727 13.50170898 C-12.20431602 10.40997147 -11.95204248 7.90741346 -11.65844727 4.50170898 C-8.50163637 0.00437181 -5.12783771 -0.06889217 0 0 Z " fill="#FEE7C9" transform="translate(328.658447265625,66.498291015625)"/>
<path d="M0 0 C9.57 0 19.14 0 29 0 C29 13.53 29 27.06 29 41 C19.43 41 9.86 41 0 41 C0 27.47 0 13.94 0 0 Z " fill="#FBA630" transform="translate(210,233)"/>
<path d="M0 0 C1.08089401 0.00022659 2.16178802 0.00045319 3.2754364 0.00068665 C4.44113663 0.0161705 5.60683685 0.03165436 6.80786133 0.04760742 C8.00220291 0.05185226 9.19654449 0.05609711 10.42707825 0.06047058 C14.24824402 0.07728658 18.06888574 0.11494524 21.88989258 0.15307617 C24.4777756 0.16811918 27.06566687 0.18180825 29.65356445 0.1940918 C36.00337628 0.22719984 42.35279553 0.27900317 48.70239258 0.34057617 C48.70239258 5.29057617 48.70239258 10.24057617 48.70239258 15.34057617 C41.08526546 15.46408277 33.46871983 15.55487457 25.85083008 15.61523438 C23.25892995 15.64039373 20.66710086 15.67452468 18.07543945 15.71777344 C14.35195397 15.77835848 10.62940563 15.80677263 6.90551758 15.82885742 C5.16470917 15.86756706 5.16470917 15.86756706 3.38873291 15.90705872 C-4.61401436 15.909855 -4.61401436 15.909855 -8.06420898 13.03662109 C-9.74504467 9.36253787 -9.36764433 7.19270905 -8.29760742 3.34057617 C-5.90780366 0.0509977 -3.94496441 -0.02758716 0 0 Z " fill="#5A6D76" transform="translate(190.297607421875,384.659423828125)"/>
<path d="M0 0 C1.16931564 0.00707474 2.33863129 0.01414948 3.54338074 0.0214386 C7.27306455 0.04939631 11.00123972 0.11214253 14.73046875 0.17578125 C17.26104601 0.2008621 19.79164683 0.22367564 22.32226562 0.24414062 C28.52141341 0.29922838 34.71943542 0.38551518 40.91796875 0.48828125 C40.91796875 5.43828125 40.91796875 10.38828125 40.91796875 15.48828125 C33.30081988 15.58708681 25.68404323 15.65972157 18.06640625 15.70800781 C15.47454329 15.728135 12.88272579 15.75543941 10.29101562 15.79003906 C6.56759426 15.83850626 2.84477276 15.86123941 -0.87890625 15.87890625 C-2.61971466 15.90987396 -2.61971466 15.90987396 -4.39569092 15.94146729 C-6.01691864 15.94192047 -6.01691864 15.94192047 -7.67089844 15.94238281 C-9.09653107 15.95570648 -9.09653107 15.95570648 -10.55096436 15.96929932 C-13.85115115 15.34211342 -15.02918042 14.09548967 -17.08203125 11.48828125 C-17.81796022 7.64509662 -17.48158989 6.08556414 -15.30200195 2.82739258 C-10.40971658 -0.72655284 -5.89517394 -0.13421514 0 0 Z " fill="#5C7079" transform="translate(198.08203125,358.51171875)"/>
<path d="M0 0 C6.14620643 -0.24066471 9.92738645 0.79776466 14.84375 4.4609375 C18.28894041 7.80533777 20.0306337 10.92814675 21.84375 15.4609375 C21.84375 20.0809375 21.84375 24.7009375 21.84375 29.4609375 C12.27375 29.4609375 2.70375 29.4609375 -7.15625 29.4609375 C-7.48625 25.1709375 -7.81625 20.8809375 -8.15625 16.4609375 C-9.54341923 12.9224694 -9.54341923 12.9224694 -11.15625 10.4609375 C-11.15625 9.8009375 -11.15625 9.1409375 -11.15625 8.4609375 C-9.7640625 7.873125 -9.7640625 7.873125 -8.34375 7.2734375 C-4.98455676 5.77087938 -4.98455676 5.77087938 -3.90625 2.7734375 C-2.15625 0.4609375 -2.15625 0.4609375 0 0 Z " fill="#F72F40" transform="translate(217.15625,135.5390625)"/>
<path d="M0 0 C0.80179687 0.27070312 1.60359375 0.54140625 2.4296875 0.8203125 C6.45143237 2.3267855 8.99732703 3.42045978 10.83203125 7.4453125 C11.75 10.875 11.75 10.875 11.1875 13.625 C9.5054358 16.25779614 8.59465636 17.5275312 5.75 18.875 C-0.53496318 18.48908121 -5.80373533 16.82083369 -11.625 14.5 C-12.43066406 14.19578125 -13.23632812 13.8915625 -14.06640625 13.578125 C-14.83597656 13.27648437 -15.60554688 12.97484375 -16.3984375 12.6640625 C-17.09114746 12.39287598 -17.78385742 12.12168945 -18.49755859 11.84228516 C-20.25 10.875 -20.25 10.875 -22.25 7.875 C-22.58470491 4.19324596 -22.7457479 1.77206762 -20.9375 -1.5 C-15.31230736 -6.91685217 -6.29245908 -2.35193552 0 0 Z " fill="#FCC06C" transform="translate(282.25,95.125)"/>
<path d="M0 0 C2.33030405 1.60710624 2.89531369 2.69399385 3.8125 5.375 C4.04015388 8.56215425 3.54198246 10.20974602 2 13 C-1.55871738 16.30898283 -5.87024991 17.62012561 -10.375 19.1875 C-11.1175 19.46013672 -11.86 19.73277344 -12.625 20.01367188 C-16.85313811 21.50397851 -20.45634608 22.52426776 -25 22 C-27.875 19.9375 -27.875 19.9375 -30 17 C-30.58594236 13.28903174 -30.81288039 11.133106 -28.58203125 8.0234375 C-24.78989637 5.05168883 -20.65288935 3.73273208 -16.125 2.1875 C-15.23941406 1.86330078 -14.35382813 1.53910156 -13.44140625 1.20507812 C-8.61962987 -0.47284257 -5.05572244 -1.58439176 0 0 Z " fill="#FCC16C" transform="translate(290,36)"/>
<path d="M0 0 C1.23621094 -0.02384766 2.47242188 -0.04769531 3.74609375 -0.07226562 C4.93332031 -0.07033203 6.12054688 -0.06839844 7.34375 -0.06640625 C8.42849609 -0.06713135 9.51324219 -0.06785645 10.63085938 -0.06860352 C13.5 0.5625 13.5 0.5625 15.88085938 2.87915039 C17.5 5.5625 17.5 5.5625 17.5625 9.125 C16.23522075 13.41913875 15.39216843 14.32462373 11.5 16.5625 C7.65659273 17.12720701 3.87744154 17.07503164 0 17 C-1.03253906 17.00708984 -2.06507813 17.01417969 -3.12890625 17.02148438 C-12.59988319 16.94205037 -12.59988319 16.94205037 -16.5 13.5625 C-18.04586876 10.47076248 -17.79359521 7.96820448 -17.5 4.5625 C-13.04303047 -1.41141003 -6.82565359 -0.06049849 0 0 Z " fill="#FCC16C" transform="translate(281.5,66.4375)"/>
<path d="M0 0 C3.34058685 0.98980351 4.37405147 1.30126196 6.375 4 C7.01823049 7.94838585 6.83821294 11.94264338 6.8125 15.9375 C6.83248047 17.03513672 6.85246094 18.13277344 6.87304688 19.26367188 C6.87240234 20.32005859 6.87175781 21.37644531 6.87109375 22.46484375 C6.87294678 23.430271 6.8747998 24.39569824 6.87670898 25.39038086 C6.23065261 28.75081718 5.05557251 29.93026658 2.375 32 C-1.125 32.5625 -1.125 32.5625 -4.625 32 C-7.2285945 29.7969585 -8.45940494 27.99794957 -9.02197266 24.60766602 C-9.20054131 21.72766751 -9.21959934 18.88516378 -9.1875 16 C-9.21134766 15.01515625 -9.23519531 14.0303125 -9.25976562 13.015625 C-9.25007379 8.23431764 -9.18083121 5.76744208 -6.31640625 1.8125 C-3.625 0 -3.625 0 0 0 Z " fill="#B4ABB4" transform="translate(174.625,111)"/>
<path d="M0 0 C2.97334308 2.09596315 4.7538511 3.73980508 5.46728516 7.39233398 C5.6379001 10.27706668 5.63244982 13.11126152 5.5625 16 C5.57345703 16.98484375 5.58441406 17.9696875 5.59570312 18.984375 C5.55069298 23.42537635 5.43013169 26.25351339 3.18359375 30.15234375 C1 32 1 32 -2.5 32.5625 C-6.57089447 31.9082491 -7.49685779 31.18098545 -10 28 C-10.8147599 24.03843974 -10.60295573 20.03605391 -10.5625 16 C-10.58634766 14.906875 -10.61019531 13.81375 -10.63476562 12.6875 C-10.62009681 4.70766385 -10.62009681 4.70766385 -7.62109375 1.28515625 C-4.63241095 -0.18023368 -3.26080503 -0.73368113 0 0 Z " fill="#B4ABB4" transform="translate(143,111)"/>
<path d="M0 0 C3.54431741 1.28198715 4.75106883 1.96544105 6.9375 5.0625 C7.54365173 8.71447722 7.49502895 12.30616204 7.4375 16 C7.45296875 16.98935547 7.4684375 17.97871094 7.484375 18.99804688 C7.46037875 23.45834927 7.37627542 26.29842556 5.125 30.21875 C2.9375 32.0625 2.9375 32.0625 -0.5625 32.625 C-4.62912115 31.97143589 -5.55288306 31.22979105 -8.0625 28.0625 C-8.8723909 24.28807479 -8.66554431 20.4767094 -8.625 16.625 C-8.66077148 15.06942383 -8.66077148 15.06942383 -8.69726562 13.48242188 C-8.68776742 8.55285394 -8.68038474 5.91106171 -5.71875 1.84375 C-3.0625 0.0625 -3.0625 0.0625 0 0 Z " fill="#B4ACB5" transform="translate(208.0625,110.9375)"/>
<path d="M0 0 C0.90234375 -0.01546875 1.8046875 -0.0309375 2.734375 -0.046875 C9.27007674 -0.00820221 9.27007674 -0.00820221 12.59765625 2.30859375 C14.64080151 5.50136393 14.4713386 7.79662527 14 11.5 C12.45737187 13.60358381 11.31891683 14.34054159 9 15.5 C6.04622888 15.70411054 3.14399311 15.82382545 0.1875 15.875 C-0.62009766 15.91238281 -1.42769531 15.94976562 -2.25976562 15.98828125 C-6.65308706 16.05304766 -8.44144716 15.92860675 -12.0390625 13.16796875 C-14 10.5 -14 10.5 -14.5625 7.4375 C-13.0178946 -0.62877266 -6.8330496 -0.11713799 0 0 Z " fill="#FBA732" transform="translate(195,322.5)"/>
<path d="M0 0 C17.16 0 34.32 0 52 0 C52 3.63 52 7.26 52 11 C35.17 11 18.34 11 1 11 C1 10.67 1 10.34 1 10 C8.26 10 15.52 10 23 10 C23 7.03 23 4.06 23 1 C15.41 1 7.82 1 0 1 C0 0.67 0 0.34 0 0 Z " fill="#CFDCE1" transform="translate(187,374)"/>
<path d="M0 0 C1.9375 1.125 1.9375 1.125 3 3 C3.49573337 6.89504791 3.58016848 9.09493717 1.4375 12.4375 C-1.96719488 14.61999672 -4.03430012 14.63734462 -8 14 C-10.5 11.9375 -10.5 11.9375 -12 9 C-12 5.19715329 -11.7968187 2.98069994 -9.375 0 C-5.91616747 -1.45635054 -3.58701629 -0.91305869 0 0 Z " fill="#454145" transform="translate(175,27)"/>
</svg>
