<?xml version="1.0" encoding="UTF-8"?>
<svg version="1.1" xmlns="http://www.w3.org/2000/svg" width="50" height="50">
<path d="M0 0 C4.31633181 3.18586395 7.91120739 6.79612218 9.625 11.9375 C10.57416973 24.58701198 10.57416973 24.58701198 6.625 29.9375 C1.6016523 34.9608477 -1.93953616 37.07809677 -9.1875 37.1875 C-15.00495029 37.11049404 -18.78081164 36.53168836 -23.02734375 32.28515625 C-28.10018167 26.63938605 -28.68170367 22.40870416 -28.58203125 14.87890625 C-28.18423016 9.22712847 -25.94917386 6.28572704 -21.875 2.625 C-15.80117425 -2.44984125 -7.33000764 -2.307595 0 0 Z M-10.375 5.9375 C-11.71401792 7.04876659 -11.71401792 7.04876659 -11.47265625 9.87890625 C-11.46105469 11.07386719 -11.44945313 12.26882812 -11.4375 13.5 C-11.42847656 14.69753906 -11.41945313 15.89507812 -11.41015625 17.12890625 C-11.39855469 18.05574219 -11.38695313 18.98257812 -11.375 19.9375 C-10.055 19.9375 -8.735 19.9375 -7.375 19.9375 C-7.375 15.6475 -7.375 11.3575 -7.375 6.9375 C-8.365 6.6075 -9.355 6.2775 -10.375 5.9375 Z M-10.375 24.9375 C-10.375 26.2575 -10.375 27.5775 -10.375 28.9375 C-9.385 28.6075 -8.395 28.2775 -7.375 27.9375 C-7.705 26.9475 -8.035 25.9575 -8.375 24.9375 C-9.035 24.9375 -9.695 24.9375 -10.375 24.9375 Z " fill="#000000" transform="translate(34.375,8.0625)"/>
<path d="M0 0 C1.75 0.125 1.75 0.125 4 1 C9.58050481 8.33437774 9.76297779 15.01271621 9 24 C7.97839119 27.08267113 6.76410497 29.24358598 5 32 C4.01 32 3.02 32 2 32 C2.49558485 29.76986819 3.08170753 27.81780161 4.01953125 25.7265625 C6.10799269 19.91880917 5.90111629 13.25279074 3.625 7.5625 C3.08875 6.716875 2.5525 5.87125 2 5 C1.31471955 3.34089996 0.64108137 1.67667436 0 0 Z " fill="#000000" transform="translate(40,9)"/>
<path d="M0 0 C0.99 0 1.98 0 3 0 C1.96311225 2.71186026 0.93524342 5.10211615 -0.625 7.5625 C-3.09921115 13.74802788 -3.08378474 20.42601124 -0.5 26.5625 C-0.005 27.366875 0.49 28.17125 1 29 C1 29.99 1 30.98 1 32 C-0.8125 31.9375 -0.8125 31.9375 -3 31 C-7.1168117 24.67775346 -6.7821454 17.30843391 -6 10 C-4.73719307 6.03371909 -2.97050283 2.97050283 0 0 Z " fill="#000000" transform="translate(7,9)"/>
</svg>
