<?xml version="1.0" encoding="UTF-8"?>
<svg version="1.1" xmlns="http://www.w3.org/2000/svg" width="50" height="50">
<path d="M0 0 C3.125 1.875 3.125 1.875 5 5 C6.07649699 9.54780974 6.02167292 13.28393101 3.59765625 17.35546875 C-0.74315524 22.57014164 -0.74315524 22.57014164 -4.25 23.76953125 C-8.52926372 25.68425863 -11.48034622 28.94311696 -14.8125 32.1875 C-17.5315544 34.80247576 -20.25808668 37.40899089 -23 40 C-23.70713135 40.66902344 -24.4142627 41.33804688 -25.14282227 42.02734375 C-25.83561279 42.6615625 -26.52840332 43.29578125 -27.2421875 43.94921875 C-27.86077637 44.52115967 -28.47936523 45.09310059 -29.11669922 45.68237305 C-32.51165626 48.05761068 -34.99007603 47.67964813 -39 47 C-41.07500674 45.45023674 -41.89199259 44.6000241 -42.35449219 42.03065491 C-42.21521576 36.71657308 -41.5429731 31.83550668 -40.25 26.68359375 C-40.07243164 25.94166275 -39.89486328 25.19973175 -39.71191406 24.43531799 C-39.15078134 22.10029026 -38.57568538 19.76897747 -38 17.4375 C-37.61364845 15.8407207 -37.22822353 14.2437169 -36.84375 12.64648438 C-35.90650782 8.76164951 -34.95674001 4.88007693 -34 1 C-33.01 1 -32.02 1 -31 1 C-31.63189782 8.02350796 -32.94219189 14.70455725 -34.5625 21.5625 C-34.79646484 22.57119141 -35.03042969 23.57988281 -35.27148438 24.61914062 C-35.84308715 27.08053217 -36.4193354 29.54073347 -37 32 C-35.906875 32.2475 -34.81375 32.495 -33.6875 32.75 C-29.79307121 34.07014535 -29.15400491 34.73916795 -27 38 C-24.15459122 35.40877277 -21.3258896 32.79998776 -18.5 30.1875 C-17.68917969 29.44951172 -16.87835937 28.71152344 -16.04296875 27.95117188 C-15.27597656 27.23896484 -14.50898438 26.52675781 -13.71875 25.79296875 C-13.00654297 25.1383667 -12.29433594 24.48376465 -11.56054688 23.80932617 C-9.67343621 22.01960016 -9.67343621 22.01960016 -10 19 C-12.17301428 16.65079537 -14.37550398 14.49959682 -16.875 12.5 C-18 11 -18 11 -18.125 8.6875 C-14.83065159 0.81766768 -8.10871923 -1.76693375 0 0 Z M-6 7 C-6 8.32 -6 9.64 -6 11 C-4.68 11 -3.36 11 -2 11 C-2 9.68 -2 8.36 -2 7 C-3.32 7 -4.64 7 -6 7 Z M-39 37 C-39.16666667 40 -39.16666667 40 -39 43 C-37.88163776 44.34404775 -37.88163776 44.34404775 -35 44.125 C-32.11836224 44.34404775 -32.11836224 44.34404775 -31 43 C-30.83333333 40 -30.83333333 40 -31 37 C-32.11836224 35.65595225 -32.11836224 35.65595225 -35 35.875 C-37.88163776 35.65595225 -37.88163776 35.65595225 -39 37 Z " fill="#000000" transform="translate(44,1)"/>
</svg>
