<?xml version="1.0" encoding="UTF-8"?>
<svg version="1.1" xmlns="http://www.w3.org/2000/svg" width="512" height="512">
<path d="M0 0 C1.01790619 0.00215515 2.03581238 0.0043103 3.08456421 0.00653076 C17.69363523 0.05620146 32.02575853 0.30709809 46.375 3.3125 C47.34985352 3.51117676 48.32470703 3.70985352 49.32910156 3.91455078 C97.7109774 14.03517194 141.69928269 35.9516877 177.375 70.3125 C178.3640332 71.26068604 178.3640332 71.26068604 179.37304688 72.22802734 C188.86130305 81.37247479 197.6012044 90.66984009 205.375 101.3125 C206.23306152 102.46355017 207.09113451 103.61459177 207.94921875 104.765625 C213.98736829 112.95680614 219.34595521 121.47054105 224.375 130.3125 C224.73948242 130.94430176 225.10396484 131.57610352 225.47949219 132.22705078 C247.08534998 169.97532572 256.85198095 212.74189997 256.6875 255.9375 C256.68534485 256.95540619 256.6831897 257.97331238 256.68096924 259.02206421 C256.63129854 273.63113523 256.38040191 287.96325853 253.375 302.3125 C253.07698486 303.77478027 253.07698486 303.77478027 252.77294922 305.26660156 C242.65232806 353.6484774 220.7358123 397.63678269 186.375 433.3125 C185.74287598 433.97185547 185.11075195 434.63121094 184.45947266 435.31054688 C175.31502521 444.79880305 166.01765991 453.5387044 155.375 461.3125 C154.22394983 462.17056152 153.07290823 463.02863451 151.921875 463.88671875 C143.73224019 469.92427396 135.22961724 475.30707302 126.375 480.3125 C125.66778809 480.7146875 124.96057617 481.116875 124.23193359 481.53125 C101.09654164 494.5566741 75.92537591 503.30551461 49.9375 508.625 C49.21860596 508.77235596 48.49971191 508.91971191 47.7590332 509.0715332 C33.08339502 511.86090125 18.55831162 512.66142619 3.64770508 512.62817383 C0.70811513 512.6250221 -2.2304558 512.64854926 -5.16992188 512.67382812 C-18.54306192 512.71848737 -31.43916711 511.51301542 -44.625 509.3125 C-46.33055054 509.03031616 -46.33055054 509.03031616 -48.07055664 508.74243164 C-91.33802759 500.97044532 -132.38793216 480.98345309 -165.625 452.3125 C-166.37007813 451.67828125 -167.11515625 451.0440625 -167.8828125 450.390625 C-181.38779833 438.57948485 -194.05918743 425.82889772 -204.625 411.3125 C-205.48149066 410.16255169 -206.33826433 409.01281411 -207.1953125 407.86328125 C-213.23534209 399.67315742 -218.61867614 391.16870382 -223.625 382.3125 C-224.0271875 381.60528809 -224.429375 380.89807617 -224.84375 380.16943359 C-237.8691741 357.03404164 -246.61801461 331.86287591 -251.9375 305.875 C-252.08485596 305.15610596 -252.23221191 304.43721191 -252.3840332 303.6965332 C-255.35789088 288.05024391 -255.99800362 272.57681954 -255.9375 256.6875 C-255.93534485 255.66959381 -255.9331897 254.65168762 -255.93096924 253.60293579 C-255.88129854 238.99386477 -255.63040191 224.66174147 -252.625 210.3125 C-252.42632324 209.33764648 -252.22764648 208.36279297 -252.02294922 207.35839844 C-241.90232806 158.9765226 -219.9858123 114.98821731 -185.625 79.3125 C-184.99287598 78.65314453 -184.36075195 77.99378906 -183.70947266 77.31445312 C-174.56502521 67.82619695 -165.26765991 59.0862956 -154.625 51.3125 C-153.47394983 50.45443848 -152.32290823 49.59636549 -151.171875 48.73828125 C-142.98224019 42.70072604 -134.47961724 37.31792698 -125.625 32.3125 C-124.91778809 31.9103125 -124.21057617 31.508125 -123.48193359 31.09375 C-100.34654164 18.0683259 -75.17537591 9.31948539 -49.1875 4 C-48.46860596 3.85264404 -47.74971191 3.70528809 -47.0090332 3.5534668 C-31.36274391 0.57960912 -15.88931954 -0.06050362 0 0 Z M-102.9832859 158.07939339 C-103.93352854 161.38615123 -103.90687024 164.63149278 -103.89242554 168.04220581 C-103.89695665 168.82543217 -103.90148776 169.60865853 -103.90615618 170.41561902 C-103.91882617 173.0426014 -103.91717815 175.66937715 -103.91552734 178.29638672 C-103.92151096 180.1788459 -103.92831612 182.06130262 -103.93588257 183.9437561 C-103.95356643 189.05947453 -103.95823895 194.17512607 -103.95951414 199.2908721 C-103.9614124 203.56030839 -103.96876908 207.82972907 -103.97585833 212.09915936 C-103.99214885 222.17142026 -103.99702667 232.24364541 -103.99560547 242.31591797 C-103.99440375 252.70877794 -104.01551021 263.10143034 -104.0470928 273.49423778 C-104.0732366 282.4149428 -104.08397356 291.33557994 -104.08269465 300.25632298 C-104.08218447 305.58521068 -104.08789851 310.91391394 -104.10905075 316.24276352 C-104.12840124 321.25460855 -104.12857941 326.26609259 -104.11401749 331.27795029 C-104.11192435 333.11697923 -104.11666027 334.95603058 -104.1287384 336.79502106 C-104.14416576 339.30671491 -104.13490007 341.81716011 -104.11947632 344.3288269 C-104.12976344 345.05568345 -104.14005057 345.78253999 -104.15064943 346.5314225 C-104.08231 351.57122563 -102.86608491 354.47708317 -99.625 358.3125 C-96.14364821 360.98876281 -92.10985921 360.59777464 -87.89529419 360.57992554 C-86.72045465 360.58672221 -86.72045465 360.58672221 -85.52188098 360.59365618 C-82.8948986 360.60632617 -80.26812285 360.60467815 -77.64111328 360.60302734 C-75.7586541 360.60901096 -73.87619738 360.61581612 -71.9937439 360.62338257 C-66.87802547 360.64106643 -61.76237393 360.64573895 -56.6466279 360.64701414 C-52.37719161 360.6489124 -48.10777093 360.65626908 -43.83834064 360.66335833 C-33.76607974 360.67964885 -23.69385459 360.68452667 -13.62158203 360.68310547 C-3.22872206 360.68190375 7.16393034 360.70301021 17.55673778 360.7345928 C26.4774428 360.7607366 35.39807994 360.77147356 44.31882298 360.77019465 C49.64771068 360.76968447 54.97641394 360.77539851 60.30526352 360.79655075 C65.31710855 360.81590124 70.32859259 360.81607941 75.34045029 360.80151749 C77.17947923 360.79942435 79.01853058 360.80416027 80.85752106 360.8162384 C83.36921491 360.83166576 85.87966011 360.82240007 88.3913269 360.80697632 C89.11818345 360.81726344 89.84503999 360.82755057 90.5939225 360.83814943 C95.63372563 360.76981 98.53958317 359.55358491 102.375 356.3125 C105.05126281 352.83114821 104.66027464 348.79735921 104.64242554 344.58279419 C104.64922221 343.40795465 104.64922221 343.40795465 104.65615618 342.20938098 C104.66882617 339.5823986 104.66717815 336.95562285 104.66552734 334.32861328 C104.67151096 332.4461541 104.67831612 330.56369738 104.68588257 328.6812439 C104.70356643 323.56552547 104.70823895 318.44987393 104.70951414 313.3341279 C104.7114124 309.06469161 104.71876908 304.79527093 104.72585833 300.52584064 C104.74214885 290.45357974 104.74702667 280.38135459 104.74560547 270.30908203 C104.74440375 259.91622206 104.76551021 249.52356966 104.7970928 239.13076222 C104.8232366 230.2100572 104.83397356 221.28942006 104.83269465 212.36867702 C104.83218447 207.03978932 104.83789851 201.71108606 104.85905075 196.38223648 C104.87840124 191.37039145 104.87857941 186.35890741 104.86401749 181.34704971 C104.86192435 179.50802077 104.86666027 177.66896942 104.8787384 175.82997894 C104.89416576 173.31828509 104.88490007 170.80783989 104.86947632 168.2961731 C104.87976344 167.56931655 104.89005057 166.84246001 104.90064943 166.0935775 C104.83231 161.05377437 103.61608491 158.14791683 100.375 154.3125 C96.89364821 151.63623719 92.85985921 152.02722536 88.64529419 152.04507446 C87.47045465 152.03827779 87.47045465 152.03827779 86.27188098 152.03134382 C83.6448986 152.01867383 81.01812285 152.02032185 78.39111328 152.02197266 C76.5086541 152.01598904 74.62619738 152.00918388 72.7437439 152.00161743 C67.62802547 151.98393357 62.51237393 151.97926105 57.3966279 151.97798586 C53.12719161 151.9760876 48.85777093 151.96873092 44.58834064 151.96164167 C34.51607974 151.94535115 24.44385459 151.94047333 14.37158203 151.94189453 C3.97872206 151.94309625 -6.41393034 151.92198979 -16.80673778 151.8904072 C-25.7274428 151.8642634 -34.64807994 151.85352644 -43.56882298 151.85480535 C-48.89771068 151.85531553 -54.22641394 151.84960149 -59.55526352 151.82844925 C-64.56710855 151.80909876 -69.57859259 151.80892059 -74.59045029 151.82348251 C-76.42947923 151.82557565 -78.26853058 151.82083973 -80.10752106 151.8087616 C-82.61921491 151.79333424 -85.12966011 151.80259993 -87.6413269 151.81802368 C-88.36818345 151.80773656 -89.09503999 151.79744943 -89.8439225 151.78685057 C-95.52068344 151.86382711 -99.47896993 153.52088866 -102.9832859 158.07939339 Z " fill="#33AFC0" transform="translate(255.625,-0.3125)"/>
</svg>
