<?xml version="1.0" encoding="UTF-8"?>
<svg version="1.1" xmlns="http://www.w3.org/2000/svg" width="50" height="50">
<path d="M0 0 C15.18 0 30.36 0 46 0 C46 16.5 46 33 46 50 C42 49 42 49 40.0390625 46.75 C34.75949257 40.73573264 30.64281806 38.76173639 22.5390625 38.1171875 C15.00926015 37.74460114 7.56083504 37.93367689 0 38 C0 25.46 0 12.92 0 0 Z M21 10 C20.67 11.65 20.34 13.3 20 15 C22.475 15.495 22.475 15.495 25 16 C25.33 14.35 25.66 12.7 26 11 C24.35 10.67 22.7 10.34 21 10 Z M10 16 C10 17.32 10 18.64 10 20 C11.32 20 12.64 20 14 20 C14 18.68 14 17.36 14 16 C12.68 16 11.36 16 10 16 Z M32 16 C32 17.32 32 18.64 32 20 C33.32 20 34.64 20 36 20 C36 18.68 36 17.36 36 16 C34.68 16 33.36 16 32 16 Z M16 27 C20.62 27 25.24 27 30 27 C27.74369999 22.02238062 27.74369999 22.02238062 25.0625 21.3359375 C24.381875 21.34882813 23.70125 21.36171875 23 21.375 C22.319375 21.36210937 21.63875 21.34921875 20.9375 21.3359375 C18.25630001 22.02238062 18.25630001 22.02238062 16 27 Z M9 24 C8.01 25.485 8.01 25.485 7 27 C9.31 27 11.62 27 14 27 C14 26.01 14 25.02 14 24 C11.58380177 23.74969023 11.58380177 23.74969023 9 24 Z M32 24 C32 24.99 32 25.98 32 27 C34.31 27 36.62 27 39 27 C38.34 26.01 37.68 25.02 37 24 C34.41619823 23.74969023 34.41619823 23.74969023 32 24 Z " fill="#000000" transform="translate(2,0)"/>
</svg>
