<svg xmlns="http://www.w3.org/2000/svg" xmlns:xlink="http://www.w3.org/1999/xlink" width="200" zoomAndPan="magnify" viewBox="0 0 150 44.999999" height="60" preserveAspectRatio="xMidYMid meet" version="1.0"><defs><g/><clipPath id="aca09a0b0e"><path d="M 46.160156 12.863281 L 61 12.863281 L 61 27 L 46.160156 27 Z M 46.160156 12.863281 " clip-rule="nonzero"/></clipPath><clipPath id="d81913148f"><path d="M 52 24 L 55 24 L 55 36.113281 L 52 36.113281 Z M 52 24 " clip-rule="nonzero"/></clipPath><clipPath id="9695d13950"><path d="M 46.160156 20 L 47 20 L 47 21 L 46.160156 21 Z M 46.160156 20 " clip-rule="nonzero"/></clipPath><clipPath id="84a490a21c"><path d="M 46.160156 20 L 48 20 L 48 21 L 46.160156 21 Z M 46.160156 20 " clip-rule="nonzero"/></clipPath><clipPath id="4930388b4f"><path d="M 47 19 L 61.160156 19 L 61.160156 27 L 47 27 Z M 47 19 " clip-rule="nonzero"/></clipPath><clipPath id="9b79c84f25"><path d="M 46.160156 19 L 53 19 L 53 24 L 46.160156 24 Z M 46.160156 19 " clip-rule="nonzero"/></clipPath><clipPath id="aa5f51f540"><path d="M 59 20 L 61.160156 20 L 61.160156 24 L 59 24 Z M 59 20 " clip-rule="nonzero"/></clipPath><clipPath id="ce95ce3c8e"><path d="M 46.160156 19 L 53 19 L 53 23 L 46.160156 23 Z M 46.160156 19 " clip-rule="nonzero"/></clipPath><clipPath id="f4ba1417f8"><path d="M 46.160156 21 L 54 21 L 54 24 L 46.160156 24 Z M 46.160156 21 " clip-rule="nonzero"/></clipPath><clipPath id="2fae2a222c"><path d="M 46.160156 21 L 47 21 L 47 22 L 46.160156 22 Z M 46.160156 21 " clip-rule="nonzero"/></clipPath><clipPath id="8d4ffe899a"><path d="M 46.160156 21 L 48 21 L 48 23 L 46.160156 23 Z M 46.160156 21 " clip-rule="nonzero"/></clipPath></defs><g clip-path="url(#aca09a0b0e)"><path fill="#554289" d="M 53.6875 15.328125 C 51.351562 15.328125 49.453125 17.21875 49.453125 19.546875 C 49.453125 21.871094 51.351562 23.761719 53.6875 23.761719 C 56.023438 23.761719 57.921875 21.871094 57.921875 19.546875 C 57.921875 17.21875 56.023438 15.328125 53.6875 15.328125 Z M 53.6875 26.230469 C 49.984375 26.230469 46.976562 23.230469 46.976562 19.546875 C 46.976562 15.859375 49.984375 12.863281 53.6875 12.863281 C 57.386719 12.863281 60.398438 15.859375 60.398438 19.546875 C 60.398438 23.230469 57.386719 26.230469 53.6875 26.230469 " fill-opacity="1" fill-rule="nonzero"/></g><g clip-path="url(#d81913148f)"><path fill="#554289" d="M 54.925781 36.113281 L 52.449219 36.113281 L 52.449219 24.816406 L 54.925781 24.816406 L 54.925781 36.113281 " fill-opacity="1" fill-rule="nonzero"/></g><path fill="#554289" d="M 58.359375 31.738281 L 49.015625 31.738281 L 49.015625 29.273438 L 58.359375 29.273438 L 58.359375 31.738281 " fill-opacity="1" fill-rule="nonzero"/><g clip-path="url(#9695d13950)"><path fill="#ffa7c1" d="M 46.820312 20.425781 C 46.796875 20.421875 46.777344 20.421875 46.757812 20.421875 C 46.757812 20.417969 46.757812 20.410156 46.753906 20.40625 C 46.777344 20.414062 46.796875 20.417969 46.820312 20.425781 " fill-opacity="1" fill-rule="nonzero"/></g><g clip-path="url(#84a490a21c)"><path fill="#554289" d="M 47.484375 20.523438 L 46.707031 20.484375 L 46.695312 20.4375 C 46.691406 20.433594 46.691406 20.425781 46.6875 20.417969 L 46.667969 20.304688 L 46.777344 20.339844 C 46.796875 20.347656 46.816406 20.355469 46.835938 20.359375 L 47.484375 20.523438 " fill-opacity="1" fill-rule="nonzero"/></g><g clip-path="url(#4930388b4f)"><path fill="#ffa7c1" d="M 48.882812 25.445312 C 49.160156 25.933594 49.5 26.46875 50.027344 26.664062 C 50.550781 26.855469 51.132812 26.679688 51.683594 26.457031 C 52.277344 26.21875 52.914062 25.929688 53.625 25.570312 C 53.910156 25.425781 54.199219 25.277344 54.484375 25.128906 C 54.5 25.121094 54.515625 25.113281 54.53125 25.105469 C 54.828125 24.945312 55.128906 24.785156 55.421875 24.628906 C 55.730469 24.464844 56.042969 24.296875 56.351562 24.132812 C 56.554688 24.027344 56.824219 23.886719 57.097656 23.746094 C 57.15625 23.71875 57.214844 23.6875 57.273438 23.660156 C 57.292969 23.652344 57.308594 23.640625 57.324219 23.632812 C 57.347656 23.625 57.367188 23.613281 57.390625 23.605469 C 57.40625 23.597656 57.421875 23.589844 57.4375 23.582031 C 57.625 23.492188 57.8125 23.417969 58.007812 23.363281 C 58.109375 23.335938 58.207031 23.3125 58.308594 23.292969 C 58.464844 23.265625 58.621094 23.242188 58.773438 23.222656 C 58.953125 23.199219 59.136719 23.175781 59.316406 23.136719 C 59.433594 23.113281 59.558594 23.082031 59.679688 23.042969 L 59.6875 23.039062 C 60.007812 22.9375 60.308594 22.792969 60.585938 22.609375 L 60.597656 22.601562 C 60.6875 22.542969 60.800781 22.46875 60.828125 22.382812 C 60.839844 22.339844 60.835938 22.296875 60.816406 22.261719 C 60.792969 22.222656 60.75 22.195312 60.707031 22.1875 C 60.65625 22.179688 60.652344 22.179688 60.640625 22.171875 C 60.605469 22.160156 60.589844 22.125 60.597656 22.09375 C 60.609375 22.058594 60.644531 22.039062 60.675781 22.042969 C 60.765625 22.058594 60.882812 22.019531 60.964844 21.945312 C 61.011719 21.898438 61.0625 21.824219 61.050781 21.722656 C 61.042969 21.65625 61.019531 21.609375 60.980469 21.578125 C 60.910156 21.527344 60.789062 21.515625 60.589844 21.546875 C 60.550781 21.554688 60.519531 21.53125 60.511719 21.492188 C 60.503906 21.457031 60.53125 21.421875 60.566406 21.414062 C 60.699219 21.390625 60.84375 21.355469 60.925781 21.234375 C 60.949219 21.195312 60.957031 21.148438 60.945312 21.101562 C 60.929688 21.035156 60.878906 20.972656 60.8125 20.9375 C 60.746094 20.898438 60.714844 20.898438 60.617188 20.902344 L 60.546875 20.902344 C 60.511719 20.902344 60.484375 20.875 60.480469 20.84375 C 60.476562 20.808594 60.496094 20.777344 60.53125 20.769531 L 60.535156 20.769531 L 60.542969 20.765625 L 60.546875 20.765625 C 60.6875 20.734375 60.785156 20.671875 60.789062 20.609375 C 60.800781 20.476562 60.726562 20.414062 60.667969 20.382812 C 60.609375 20.355469 60.535156 20.34375 60.460938 20.351562 C 60.179688 20.375 59.929688 20.496094 59.667969 20.621094 C 59.40625 20.746094 59.136719 20.878906 58.832031 20.902344 C 58.765625 20.910156 58.703125 20.878906 58.667969 20.820312 C 58.628906 20.765625 58.625 20.691406 58.660156 20.632812 C 58.765625 20.4375 58.992188 20.347656 59.082031 20.316406 C 59.148438 20.292969 59.210938 20.277344 59.269531 20.261719 C 59.441406 20.214844 59.589844 20.175781 59.734375 20.03125 C 59.753906 20.015625 59.78125 19.984375 59.792969 19.964844 C 59.820312 19.929688 59.828125 19.894531 59.816406 19.863281 C 59.800781 19.824219 59.761719 19.796875 59.703125 19.785156 C 59.539062 19.757812 59.335938 19.785156 59.210938 19.816406 C 58.585938 19.972656 58.191406 20.152344 57.78125 20.707031 C 57.679688 20.847656 57.589844 20.984375 57.503906 21.113281 C 57.390625 21.289062 57.273438 21.46875 57.125 21.65625 C 57.046875 21.753906 56.953125 21.84375 56.839844 21.929688 C 56.617188 22.101562 56.355469 22.222656 56.179688 22.296875 C 55.441406 22.621094 54.449219 22.898438 53.652344 23.121094 L 53.550781 23.152344 C 52.589844 23.421875 51.597656 23.699219 50.847656 24.03125 C 50.839844 24.035156 50.828125 24.039062 50.820312 24.039062 L 50.816406 24.039062 L 50.8125 24.035156 C 50.804688 24.035156 50.792969 24.035156 50.785156 24.027344 C 50.59375 23.917969 50.414062 23.8125 50.242188 23.710938 C 50.183594 23.679688 50.125 23.644531 50.066406 23.613281 C 49.765625 23.445312 49.496094 23.292969 49.199219 23.195312 C 48.960938 23.117188 48.707031 23.070312 48.460938 23.027344 C 48.28125 22.996094 48.09375 22.960938 47.914062 22.914062 C 47.867188 22.902344 47.820312 22.886719 47.769531 22.875 C 47.757812 22.871094 47.742188 22.867188 47.730469 22.859375 C 47.691406 22.851562 47.65625 22.835938 47.621094 22.824219 C 47.613281 22.820312 47.605469 22.820312 47.59375 22.816406 C 47.9375 23.664062 48.359375 24.527344 48.882812 25.445312 " fill-opacity="1" fill-rule="nonzero"/></g><g clip-path="url(#9b79c84f25)"><path fill="#ffa7c1" d="M 46.746094 21.792969 C 46.742188 21.824219 46.863281 21.90625 47.28125 22.085938 C 47.699219 22.265625 48.183594 22.359375 48.605469 22.445312 C 48.875 22.5 49.132812 22.550781 49.335938 22.617188 C 49.769531 22.753906 50.5625 23.226562 50.859375 23.40625 C 51.253906 23.226562 52.09375 22.964844 52.726562 22.78125 C 52.15625 22.558594 51.589844 22.324219 51.117188 22.089844 C 50.925781 22 50.683594 21.871094 50.480469 21.695312 C 50.371094 21.605469 50.277344 21.507812 50.203125 21.40625 C 50.0625 21.214844 49.953125 21.03125 49.847656 20.851562 C 49.769531 20.714844 49.683594 20.574219 49.585938 20.425781 C 49.203125 19.855469 48.820312 19.65625 48.199219 19.46875 C 48.078125 19.433594 47.875 19.394531 47.710938 19.417969 C 47.652344 19.425781 47.609375 19.453125 47.59375 19.488281 C 47.578125 19.519531 47.585938 19.554688 47.613281 19.589844 C 47.625 19.613281 47.652344 19.644531 47.664062 19.660156 C 47.804688 19.8125 47.953125 19.859375 48.125 19.914062 C 48.183594 19.933594 48.242188 19.953125 48.304688 19.976562 C 48.398438 20.011719 48.617188 20.113281 48.714844 20.3125 C 48.746094 20.371094 48.738281 20.445312 48.699219 20.5 C 48.660156 20.554688 48.597656 20.582031 48.53125 20.574219 C 48.226562 20.535156 47.960938 20.390625 47.707031 20.253906 C 47.449219 20.113281 47.207031 19.980469 46.925781 19.945312 C 46.839844 19.933594 46.761719 19.945312 46.699219 19.980469 C 46.621094 20.023438 46.585938 20.09375 46.589844 20.1875 C 46.589844 20.242188 46.664062 20.304688 46.777344 20.339844 C 46.796875 20.347656 46.816406 20.355469 46.835938 20.359375 C 46.871094 20.367188 46.894531 20.398438 46.886719 20.433594 C 46.882812 20.46875 46.855469 20.492188 46.820312 20.492188 C 46.796875 20.492188 46.773438 20.488281 46.753906 20.488281 C 46.65625 20.480469 46.621094 20.480469 46.550781 20.515625 C 46.480469 20.546875 46.429688 20.609375 46.410156 20.671875 C 46.394531 20.71875 46.402344 20.765625 46.425781 20.808594 C 46.5 20.933594 46.644531 20.976562 46.773438 21.003906 C 46.8125 21.011719 46.832031 21.050781 46.824219 21.085938 C 46.816406 21.121094 46.78125 21.144531 46.746094 21.136719 C 46.550781 21.097656 46.425781 21.097656 46.355469 21.148438 C 46.3125 21.175781 46.289062 21.222656 46.277344 21.289062 C 46.261719 21.390625 46.308594 21.46875 46.355469 21.511719 C 46.429688 21.589844 46.546875 21.636719 46.636719 21.625 L 46.644531 21.625 C 46.675781 21.625 46.703125 21.648438 46.710938 21.679688 C 46.71875 21.714844 46.699219 21.746094 46.664062 21.757812 C 46.652344 21.761719 46.652344 21.761719 46.601562 21.769531 C 46.554688 21.777344 46.511719 21.800781 46.488281 21.839844 C 46.464844 21.871094 46.460938 21.910156 46.46875 21.953125 L 46.746094 21.792969 C 46.746094 21.792969 46.746094 21.804688 46.746094 21.792969 " fill-opacity="1" fill-rule="nonzero"/></g><path fill="#ffa7c1" d="M 58.386719 23.859375 C 58.386719 23.859375 58.257812 23.875 58.03125 23.941406 C 57.800781 24.011719 57.457031 24.1875 57.453125 24.1875 L 54.246094 25.875 C 54.660156 26.09375 55.046875 26.285156 55.417969 26.457031 C 55.960938 26.703125 56.535156 26.910156 57.0625 26.742188 C 57.601562 26.570312 57.964844 26.050781 58.261719 25.578125 C 58.675781 24.921875 59.03125 24.292969 59.34375 23.679688 C 58.917969 23.765625 58.433594 23.851562 58.402344 23.855469 C 58.398438 23.859375 58.390625 23.859375 58.386719 23.859375 " fill-opacity="1" fill-rule="nonzero"/><path fill="#ffa7c1" d="M 57.4375 23.582031 C 57.625 23.492188 57.8125 23.417969 58.007812 23.363281 C 58.109375 23.335938 58.207031 23.3125 58.308594 23.292969 C 58.207031 23.3125 58.109375 23.335938 58.007812 23.363281 C 57.8125 23.417969 57.625 23.492188 57.4375 23.582031 " fill-opacity="1" fill-rule="nonzero"/><path fill="#ffa7c1" d="M 53.652344 23.121094 C 54.449219 22.898438 55.441406 22.621094 56.179688 22.296875 C 56.355469 22.222656 56.617188 22.101562 56.839844 21.929688 C 56.953125 21.84375 57.046875 21.753906 57.125 21.65625 C 57.273438 21.46875 57.390625 21.289062 57.503906 21.113281 C 57.589844 20.984375 57.679688 20.847656 57.78125 20.707031 C 58.191406 20.152344 58.585938 19.972656 59.210938 19.816406 C 59.335938 19.785156 59.539062 19.757812 59.703125 19.785156 C 59.761719 19.796875 59.800781 19.824219 59.816406 19.863281 C 59.828125 19.894531 59.820312 19.929688 59.792969 19.964844 C 59.78125 19.984375 59.753906 20.015625 59.734375 20.03125 C 59.589844 20.175781 59.441406 20.214844 59.269531 20.261719 C 59.210938 20.277344 59.148438 20.292969 59.082031 20.316406 C 58.992188 20.347656 58.765625 20.4375 58.660156 20.632812 C 58.625 20.691406 58.628906 20.765625 58.667969 20.820312 C 58.703125 20.878906 58.765625 20.910156 58.832031 20.902344 C 59.136719 20.878906 59.40625 20.746094 59.667969 20.621094 C 59.929688 20.496094 60.179688 20.375 60.460938 20.351562 C 60.535156 20.34375 60.609375 20.355469 60.667969 20.382812 C 60.726562 20.414062 60.800781 20.476562 60.789062 20.609375 C 60.785156 20.671875 60.6875 20.734375 60.546875 20.765625 L 60.542969 20.765625 L 60.546875 20.765625 L 60.65625 20.738281 L 60.636719 20.808594 C 60.769531 20.765625 60.851562 20.695312 60.855469 20.613281 C 60.867188 20.472656 60.800781 20.375 60.695312 20.324219 C 60.628906 20.289062 60.542969 20.277344 60.457031 20.285156 C 59.863281 20.332031 59.414062 20.789062 58.824219 20.835938 C 58.738281 20.84375 58.675781 20.746094 58.71875 20.664062 C 58.792969 20.527344 58.953125 20.429688 59.105469 20.378906 C 59.355469 20.296875 59.574219 20.289062 59.785156 20.078125 C 59.800781 20.0625 59.832031 20.027344 59.847656 20.007812 C 59.941406 19.886719 59.878906 19.75 59.714844 19.71875 C 59.550781 19.691406 59.34375 19.714844 59.195312 19.75 C 58.535156 19.914062 58.136719 20.113281 57.730469 20.667969 C 57.484375 20.996094 57.328125 21.292969 57.070312 21.613281 C 56.992188 21.710938 56.898438 21.796875 56.800781 21.875 C 56.605469 22.023438 56.378906 22.140625 56.152344 22.238281 C 55.464844 22.535156 54.585938 22.789062 53.699219 23.039062 C 53.699219 23.046875 53.703125 23.054688 53.703125 23.058594 C 53.699219 23.089844 53.679688 23.113281 53.652344 23.121094 " fill-opacity="1" fill-rule="nonzero"/><path fill="#ffa7c1" d="M 50.785156 24.027344 C 50.59375 23.917969 50.414062 23.8125 50.242188 23.710938 C 50.414062 23.8125 50.59375 23.917969 50.785156 24.027344 " fill-opacity="1" fill-rule="nonzero"/><path fill="#ffa7c1" d="M 53.625 25.570312 C 53.910156 25.425781 54.199219 25.277344 54.484375 25.128906 C 54.199219 25.277344 53.910156 25.425781 53.625 25.570312 C 52.914062 25.929688 52.277344 26.21875 51.683594 26.457031 C 51.132812 26.679688 50.550781 26.855469 50.027344 26.664062 C 49.5 26.46875 49.160156 25.933594 48.882812 25.445312 C 48.359375 24.527344 47.9375 23.664062 47.59375 22.816406 C 47.605469 22.820312 47.613281 22.820312 47.621094 22.824219 C 47.582031 22.8125 47.546875 22.800781 47.511719 22.785156 C 47.882812 23.714844 48.332031 24.613281 48.824219 25.480469 C 49.113281 25.992188 49.460938 26.527344 50.003906 26.726562 C 50.554688 26.929688 51.164062 26.738281 51.710938 26.519531 C 52.347656 26.265625 52.96875 25.976562 53.582031 25.667969 L 53.511719 25.628906 L 53.625 25.570312 " fill-opacity="1" fill-rule="nonzero"/><path fill="#ffa7c1" d="M 57.390625 23.605469 C 57.367188 23.613281 57.347656 23.625 57.324219 23.632812 C 57.347656 23.625 57.367188 23.613281 57.390625 23.605469 " fill-opacity="1" fill-rule="nonzero"/><g clip-path="url(#aa5f51f540)"><path fill="#ffa7c1" d="M 60.5625 20.902344 L 60.546875 20.902344 L 60.539062 20.828125 L 60.496094 20.820312 L 60.539062 20.828125 L 60.535156 20.769531 L 60.53125 20.769531 C 60.496094 20.777344 60.476562 20.808594 60.480469 20.84375 C 60.484375 20.875 60.511719 20.902344 60.546875 20.902344 L 60.617188 20.902344 C 60.714844 20.898438 60.746094 20.898438 60.8125 20.9375 C 60.878906 20.972656 60.929688 21.035156 60.945312 21.101562 C 60.957031 21.148438 60.949219 21.195312 60.925781 21.234375 C 60.84375 21.355469 60.699219 21.390625 60.566406 21.414062 C 60.53125 21.421875 60.503906 21.457031 60.511719 21.492188 C 60.519531 21.53125 60.550781 21.554688 60.589844 21.546875 C 60.789062 21.515625 60.910156 21.527344 60.980469 21.578125 C 61.019531 21.609375 61.042969 21.65625 61.050781 21.722656 C 61.0625 21.824219 61.011719 21.898438 60.964844 21.945312 C 60.882812 22.019531 60.765625 22.058594 60.675781 22.042969 C 60.644531 22.039062 60.609375 22.058594 60.597656 22.09375 C 60.589844 22.125 60.605469 22.160156 60.640625 22.171875 C 60.652344 22.179688 60.65625 22.179688 60.707031 22.1875 C 60.75 22.195312 60.792969 22.222656 60.816406 22.261719 C 60.835938 22.296875 60.839844 22.339844 60.828125 22.382812 C 60.800781 22.46875 60.6875 22.542969 60.597656 22.601562 L 60.585938 22.609375 C 60.308594 22.792969 60.007812 22.9375 59.6875 23.039062 L 59.824219 22.996094 L 59.785156 23.078125 C 60.082031 22.976562 60.363281 22.835938 60.621094 22.667969 C 60.726562 22.597656 60.855469 22.515625 60.890625 22.402344 C 60.9375 22.257812 60.835938 22.144531 60.71875 22.121094 C 60.660156 22.113281 60.679688 22.117188 60.664062 22.109375 C 60.855469 22.144531 61.148438 21.972656 61.117188 21.714844 C 61.085938 21.457031 60.859375 21.4375 60.578125 21.480469 C 60.71875 21.457031 60.886719 21.417969 60.980469 21.273438 C 61.074219 21.132812 60.988281 20.957031 60.847656 20.878906 C 60.765625 20.835938 60.71875 20.832031 60.628906 20.832031 L 60.613281 20.898438 L 60.5625 20.902344 " fill-opacity="1" fill-rule="nonzero"/></g><path fill="#ffa7c1" d="M 50.816406 24.039062 L 50.8125 24.035156 L 50.816406 24.039062 " fill-opacity="1" fill-rule="nonzero"/><path fill="#ffa7c1" d="M 56.351562 24.132812 C 56.042969 24.296875 55.730469 24.464844 55.421875 24.628906 C 55.128906 24.785156 54.828125 24.945312 54.53125 25.105469 C 54.832031 24.945312 55.136719 24.78125 55.429688 24.625 C 55.738281 24.460938 56.042969 24.296875 56.351562 24.132812 C 56.625 23.988281 56.871094 23.863281 57.097656 23.75 C 57.15625 23.71875 57.214844 23.6875 57.273438 23.660156 C 57.214844 23.6875 57.15625 23.71875 57.097656 23.746094 C 56.824219 23.886719 56.554688 24.027344 56.351562 24.132812 " fill-opacity="1" fill-rule="nonzero"/><path fill="#ffa7c1" d="M 47.730469 22.859375 C 47.742188 22.867188 47.757812 22.871094 47.769531 22.875 C 47.757812 22.871094 47.742188 22.867188 47.730469 22.859375 " fill-opacity="1" fill-rule="nonzero"/><path fill="#ffa7c1" d="M 50.847656 24.03125 C 50.835938 24.035156 50.828125 24.039062 50.816406 24.039062 L 50.820312 24.039062 C 50.828125 24.039062 50.839844 24.035156 50.847656 24.03125 " fill-opacity="1" fill-rule="nonzero"/><path fill="#ffa7c1" d="M 50.785156 24.027344 C 50.792969 24.035156 50.804688 24.035156 50.8125 24.035156 C 50.804688 24.035156 50.792969 24.035156 50.785156 24.027344 " fill-opacity="1" fill-rule="nonzero"/><path fill="#ffa7c1" d="M 47.621094 22.824219 C 47.65625 22.835938 47.691406 22.851562 47.730469 22.859375 C 47.691406 22.851562 47.65625 22.835938 47.621094 22.824219 " fill-opacity="1" fill-rule="nonzero"/><path fill="#ffa7c1" d="M 47.769531 22.875 C 47.820312 22.886719 47.867188 22.902344 47.914062 22.914062 C 47.867188 22.902344 47.820312 22.886719 47.769531 22.875 " fill-opacity="1" fill-rule="nonzero"/><path fill="#ffa7c1" d="M 50.820312 23.96875 C 50.582031 23.828125 50.339844 23.691406 50.101562 23.554688 C 49.816406 23.394531 49.527344 23.234375 49.21875 23.132812 C 48.800781 22.992188 48.355469 22.960938 47.929688 22.847656 C 47.777344 22.808594 47.625 22.757812 47.476562 22.699219 C 47.488281 22.730469 47.5 22.757812 47.511719 22.785156 C 47.546875 22.800781 47.582031 22.8125 47.621094 22.824219 C 47.65625 22.835938 47.691406 22.851562 47.730469 22.859375 C 47.742188 22.867188 47.757812 22.871094 47.769531 22.875 C 47.820312 22.886719 47.867188 22.902344 47.914062 22.914062 C 48.09375 22.960938 48.28125 22.996094 48.460938 23.027344 C 48.707031 23.070312 48.960938 23.117188 49.199219 23.195312 C 49.496094 23.292969 49.765625 23.445312 50.066406 23.613281 C 50.125 23.644531 50.183594 23.679688 50.242188 23.710938 C 50.414062 23.8125 50.59375 23.917969 50.785156 24.027344 C 50.792969 24.035156 50.804688 24.035156 50.8125 24.035156 L 50.816406 24.039062 C 50.828125 24.039062 50.835938 24.035156 50.847656 24.03125 C 51.597656 23.699219 52.589844 23.421875 53.550781 23.152344 L 53.652344 23.121094 C 53.679688 23.113281 53.699219 23.089844 53.703125 23.058594 C 53.703125 23.054688 53.699219 23.046875 53.699219 23.039062 C 53.675781 23.046875 53.65625 23.050781 53.632812 23.058594 C 52.625 23.339844 51.601562 23.625 50.820312 23.96875 " fill-opacity="1" fill-rule="nonzero"/><g clip-path="url(#ce95ce3c8e)"><path fill="#ffa7c1" d="M 51.144531 22.03125 C 50.925781 21.925781 50.707031 21.800781 50.523438 21.644531 C 50.425781 21.5625 50.335938 21.46875 50.257812 21.367188 C 50.015625 21.035156 49.871094 20.730469 49.644531 20.390625 C 49.261719 19.816406 48.871094 19.601562 48.21875 19.40625 C 48.074219 19.359375 47.867188 19.328125 47.703125 19.351562 C 47.539062 19.371094 47.46875 19.507812 47.554688 19.628906 C 47.570312 19.648438 47.597656 19.6875 47.617188 19.707031 C 47.816406 19.925781 48.03125 19.941406 48.28125 20.039062 C 48.433594 20.097656 48.585938 20.203125 48.65625 20.339844 C 48.695312 20.421875 48.628906 20.519531 48.539062 20.507812 C 47.953125 20.433594 47.523438 19.957031 46.933594 19.878906 C 46.835938 19.867188 46.742188 19.878906 46.667969 19.921875 C 46.574219 19.972656 46.515625 20.058594 46.519531 20.1875 C 46.523438 20.277344 46.613281 20.355469 46.753906 20.40625 C 46.777344 20.414062 46.796875 20.417969 46.820312 20.425781 C 46.796875 20.425781 46.777344 20.421875 46.757812 20.421875 C 46.65625 20.414062 46.609375 20.410156 46.519531 20.453125 C 46.375 20.527344 46.28125 20.699219 46.367188 20.84375 C 46.457031 20.992188 46.621094 21.039062 46.757812 21.070312 C 46.480469 21.011719 46.253906 21.019531 46.210938 21.277344 C 46.167969 21.535156 46.449219 21.71875 46.644531 21.691406 C 46.628906 21.699219 46.648438 21.695312 46.589844 21.703125 C 46.5625 21.707031 46.53125 21.71875 46.507812 21.730469 C 46.5625 21.738281 46.621094 21.742188 46.675781 21.75 C 46.703125 21.738281 46.71875 21.707031 46.710938 21.679688 C 46.703125 21.648438 46.675781 21.625 46.644531 21.625 L 46.636719 21.625 C 46.546875 21.636719 46.429688 21.589844 46.355469 21.511719 C 46.308594 21.46875 46.261719 21.390625 46.277344 21.289062 C 46.289062 21.222656 46.3125 21.175781 46.355469 21.148438 C 46.425781 21.097656 46.550781 21.097656 46.746094 21.136719 C 46.78125 21.144531 46.816406 21.121094 46.824219 21.085938 C 46.832031 21.050781 46.8125 21.011719 46.773438 21.003906 C 46.644531 20.976562 46.5 20.933594 46.425781 20.808594 C 46.402344 20.765625 46.394531 20.71875 46.410156 20.671875 C 46.429688 20.609375 46.480469 20.546875 46.550781 20.515625 C 46.621094 20.480469 46.65625 20.480469 46.753906 20.488281 C 46.773438 20.488281 46.796875 20.492188 46.820312 20.492188 C 46.855469 20.492188 46.882812 20.46875 46.886719 20.433594 C 46.894531 20.398438 46.871094 20.367188 46.835938 20.359375 C 46.816406 20.355469 46.796875 20.347656 46.777344 20.339844 C 46.664062 20.304688 46.589844 20.242188 46.589844 20.1875 C 46.585938 20.09375 46.621094 20.023438 46.699219 19.980469 C 46.761719 19.945312 46.839844 19.933594 46.925781 19.945312 C 47.207031 19.980469 47.449219 20.113281 47.707031 20.253906 C 47.960938 20.390625 48.226562 20.535156 48.53125 20.574219 C 48.597656 20.582031 48.660156 20.554688 48.699219 20.5 C 48.738281 20.445312 48.746094 20.371094 48.714844 20.3125 C 48.617188 20.113281 48.398438 20.011719 48.304688 19.976562 C 48.242188 19.953125 48.183594 19.933594 48.125 19.914062 C 47.953125 19.859375 47.804688 19.8125 47.664062 19.660156 C 47.652344 19.644531 47.625 19.613281 47.613281 19.589844 C 47.585938 19.554688 47.578125 19.519531 47.59375 19.488281 C 47.609375 19.453125 47.652344 19.425781 47.710938 19.417969 C 47.875 19.394531 48.078125 19.433594 48.199219 19.46875 C 48.820312 19.65625 49.203125 19.855469 49.585938 20.425781 C 49.683594 20.574219 49.769531 20.714844 49.847656 20.851562 C 49.953125 21.03125 50.0625 21.214844 50.203125 21.40625 C 50.277344 21.507812 50.371094 21.605469 50.480469 21.695312 C 50.683594 21.871094 50.925781 22 51.117188 22.089844 C 51.589844 22.324219 52.15625 22.558594 52.726562 22.78125 C 52.765625 22.769531 52.800781 22.761719 52.835938 22.75 C 52.21875 22.507812 51.632812 22.269531 51.144531 22.03125 " fill-opacity="1" fill-rule="nonzero"/></g><path fill="#ffa7c1" d="M 57.4375 23.582031 C 57.421875 23.589844 57.40625 23.597656 57.390625 23.605469 C 57.40625 23.597656 57.421875 23.589844 57.4375 23.582031 " fill-opacity="1" fill-rule="nonzero"/><path fill="#ffa7c1" d="M 54.53125 25.105469 C 54.515625 25.113281 54.5 25.121094 54.484375 25.128906 C 54.5 25.121094 54.515625 25.113281 54.53125 25.105469 " fill-opacity="1" fill-rule="nonzero"/><path fill="#ffa7c1" d="M 59.316406 23.136719 C 59.136719 23.175781 58.953125 23.199219 58.773438 23.222656 C 58.621094 23.242188 58.464844 23.265625 58.308594 23.292969 C 58.464844 23.265625 58.621094 23.242188 58.773438 23.222656 C 58.953125 23.199219 59.136719 23.175781 59.316406 23.136719 C 59.441406 23.113281 59.5625 23.082031 59.679688 23.042969 L 59.6875 23.039062 L 59.679688 23.042969 C 59.558594 23.082031 59.433594 23.113281 59.316406 23.136719 " fill-opacity="1" fill-rule="nonzero"/><path fill="#ffa7c1" d="M 57.324219 23.632812 C 57.308594 23.640625 57.292969 23.652344 57.273438 23.660156 C 57.292969 23.652344 57.308594 23.640625 57.324219 23.632812 " fill-opacity="1" fill-rule="nonzero"/><path fill="#ffa7c1" d="M 58.300781 23.363281 C 58.210938 23.382812 58.117188 23.402344 58.027344 23.425781 C 57.886719 23.464844 57.75 23.519531 57.617188 23.574219 C 57.75 23.519531 57.886719 23.464844 58.027344 23.425781 C 58.117188 23.402344 58.210938 23.382812 58.300781 23.363281 " fill-opacity="1" fill-rule="nonzero"/><path fill="#ffa7c1" d="M 59.6875 23.039062 L 59.679688 23.042969 C 59.5625 23.082031 59.441406 23.113281 59.316406 23.136719 C 59.136719 23.175781 58.953125 23.199219 58.773438 23.222656 C 58.621094 23.242188 58.464844 23.265625 58.308594 23.292969 C 58.207031 23.3125 58.109375 23.335938 58.007812 23.363281 C 57.8125 23.417969 57.625 23.492188 57.4375 23.582031 C 57.421875 23.589844 57.40625 23.597656 57.390625 23.605469 C 57.367188 23.613281 57.347656 23.625 57.324219 23.632812 C 57.308594 23.640625 57.292969 23.652344 57.273438 23.660156 C 57.214844 23.6875 57.15625 23.71875 57.097656 23.75 C 56.871094 23.863281 56.625 23.988281 56.351562 24.132812 C 56.042969 24.296875 55.738281 24.460938 55.429688 24.625 C 55.136719 24.78125 54.832031 24.945312 54.53125 25.105469 C 54.515625 25.113281 54.5 25.121094 54.484375 25.128906 C 54.199219 25.277344 53.910156 25.425781 53.625 25.570312 L 53.511719 25.628906 L 53.582031 25.667969 C 53.605469 25.65625 53.628906 25.644531 53.652344 25.632812 C 54.574219 25.171875 55.472656 24.671875 56.382812 24.191406 C 56.632812 24.0625 56.878906 23.933594 57.128906 23.808594 C 57.179688 23.78125 57.230469 23.753906 57.285156 23.730469 C 57.394531 23.675781 57.503906 23.625 57.617188 23.574219 C 57.75 23.519531 57.886719 23.464844 58.027344 23.425781 C 58.117188 23.402344 58.210938 23.382812 58.300781 23.363281 C 58.609375 23.304688 58.921875 23.277344 59.230469 23.222656 C 59.277344 23.214844 59.324219 23.203125 59.367188 23.195312 C 59.480469 23.171875 59.589844 23.140625 59.699219 23.105469 C 59.726562 23.097656 59.757812 23.085938 59.785156 23.078125 L 59.824219 22.996094 L 59.6875 23.039062 " fill-opacity="1" fill-rule="nonzero"/><path fill="#ffa7c1" d="M 58.261719 25.578125 C 57.964844 26.050781 57.601562 26.570312 57.0625 26.742188 C 56.535156 26.910156 55.960938 26.703125 55.417969 26.457031 C 55.046875 26.285156 54.660156 26.09375 54.246094 25.875 L 54.175781 25.914062 C 54.574219 26.125 54.980469 26.328125 55.390625 26.515625 C 55.925781 26.761719 56.523438 26.980469 57.085938 26.804688 C 57.636719 26.628906 58.007812 26.109375 58.320312 25.613281 C 58.71875 24.980469 59.089844 24.332031 59.429688 23.664062 C 59.402344 23.667969 59.371094 23.675781 59.34375 23.679688 C 59.03125 24.292969 58.675781 24.921875 58.261719 25.578125 " fill-opacity="1" fill-rule="nonzero"/><path fill="#ffa7c1" d="M 59.691406 23.125 C 59.691406 23.117188 59.695312 23.113281 59.699219 23.105469 C 59.59375 23.140625 59.484375 23.167969 59.378906 23.191406 C 59.5 23.167969 59.609375 23.144531 59.691406 23.125 " fill-opacity="1" fill-rule="nonzero"/><path fill="#ffa7c1" d="M 59.230469 23.222656 C 58.921875 23.277344 58.609375 23.304688 58.300781 23.363281 C 58.601562 23.304688 58.90625 23.28125 59.207031 23.226562 C 59.214844 23.226562 59.222656 23.222656 59.230469 23.222656 " fill-opacity="1" fill-rule="nonzero"/><path fill="#ffa7c1" d="M 57.285156 23.730469 C 57.394531 23.675781 57.503906 23.625 57.617188 23.574219 C 57.503906 23.625 57.394531 23.675781 57.285156 23.730469 " fill-opacity="1" fill-rule="nonzero"/><path fill="#ffa7c1" d="M 59.699219 23.105469 C 59.589844 23.140625 59.480469 23.171875 59.367188 23.195312 L 59.378906 23.191406 C 59.484375 23.167969 59.59375 23.140625 59.699219 23.105469 " fill-opacity="1" fill-rule="nonzero"/><path fill="#ffa7c1" d="M 60.535156 20.769531 L 60.542969 20.765625 Z M 60.535156 20.769531 " fill-opacity="1" fill-rule="nonzero"/><path fill="#ffa7c1" d="M 60.5625 20.832031 L 60.5625 20.835938 L 60.546875 20.835938 L 60.5625 20.835938 C 60.589844 20.835938 60.609375 20.835938 60.628906 20.832031 L 60.636719 20.808594 C 60.613281 20.816406 60.589844 20.824219 60.5625 20.832031 " fill-opacity="1" fill-rule="nonzero"/><path fill="#ffa7c1" d="M 60.546875 20.765625 L 60.542969 20.765625 L 60.535156 20.769531 L 60.539062 20.828125 L 60.496094 20.820312 L 60.539062 20.828125 L 60.546875 20.902344 L 60.5625 20.902344 L 60.613281 20.898438 L 60.628906 20.832031 C 60.609375 20.835938 60.589844 20.835938 60.5625 20.835938 L 60.546875 20.835938 C 60.550781 20.832031 60.554688 20.832031 60.5625 20.832031 C 60.589844 20.824219 60.613281 20.816406 60.636719 20.808594 L 60.65625 20.738281 L 60.546875 20.765625 " fill-opacity="1" fill-rule="nonzero"/><path fill="#ffa7c1" d="M 60.5625 20.832031 C 60.554688 20.832031 60.550781 20.832031 60.546875 20.835938 L 60.5625 20.835938 L 60.5625 20.832031 " fill-opacity="1" fill-rule="nonzero"/><path fill="#ffa7c1" d="M 60.546875 20.835938 C 60.550781 20.832031 60.554688 20.832031 60.5625 20.832031 C 60.554688 20.832031 60.550781 20.832031 60.546875 20.835938 " fill-opacity="1" fill-rule="nonzero"/><path fill="#ffa7c1" d="M 57.347656 23.773438 C 57.359375 23.769531 57.371094 23.761719 57.382812 23.757812 C 57.371094 23.761719 57.359375 23.769531 57.347656 23.773438 " fill-opacity="1" fill-rule="nonzero"/><path fill="#ffa7c1" d="M 59.507812 23.230469 C 59.523438 23.226562 59.539062 23.222656 59.554688 23.21875 C 59.539062 23.222656 59.523438 23.226562 59.507812 23.230469 " fill-opacity="1" fill-rule="nonzero"/><path fill="#ffa7c1" d="M 59.34375 23.269531 C 59.351562 23.269531 59.359375 23.265625 59.367188 23.265625 C 59.359375 23.265625 59.351562 23.269531 59.34375 23.269531 C 59.160156 23.308594 58.972656 23.332031 58.792969 23.355469 C 58.640625 23.375 58.488281 23.398438 58.339844 23.425781 C 58.488281 23.398438 58.640625 23.375 58.792969 23.355469 C 58.972656 23.332031 59.160156 23.308594 59.34375 23.269531 " fill-opacity="1" fill-rule="nonzero"/><path fill="#ffa7c1" d="M 57.472656 23.714844 C 57.476562 23.710938 57.484375 23.707031 57.488281 23.707031 C 57.484375 23.707031 57.476562 23.710938 57.472656 23.714844 " fill-opacity="1" fill-rule="nonzero"/><path fill="#ffa7c1" d="M 54.460938 25.292969 C 54.515625 25.261719 54.570312 25.234375 54.625 25.207031 C 54.570312 25.234375 54.515625 25.265625 54.460938 25.292969 " fill-opacity="1" fill-rule="nonzero"/><path fill="#ffa7c1" d="M 54.988281 25.015625 C 55.007812 25.003906 55.027344 24.992188 55.050781 24.980469 C 55.027344 24.992188 55.007812 25.003906 54.988281 25.015625 " fill-opacity="1" fill-rule="nonzero"/><path fill="#ffa7c1" d="M 56.609375 24.152344 L 56.621094 24.144531 C 56.617188 24.148438 56.613281 24.148438 56.609375 24.152344 " fill-opacity="1" fill-rule="nonzero"/><path fill="#ffa7c1" d="M 54.015625 25.523438 C 54.074219 25.492188 54.128906 25.464844 54.183594 25.4375 C 54.128906 25.464844 54.074219 25.492188 54.015625 25.523438 " fill-opacity="1" fill-rule="nonzero"/><path fill="#ffa7c1" d="M 59.367188 23.195312 C 59.324219 23.203125 59.277344 23.214844 59.230469 23.222656 C 59.261719 23.21875 59.296875 23.210938 59.328125 23.203125 C 59.34375 23.203125 59.355469 23.199219 59.367188 23.195312 " fill-opacity="1" fill-rule="nonzero"/><path fill="#ffa7c1" d="M 57.382812 23.757812 C 57.410156 23.742188 57.441406 23.726562 57.472656 23.714844 C 57.441406 23.726562 57.410156 23.742188 57.382812 23.757812 " fill-opacity="1" fill-rule="nonzero"/><path fill="#ffa7c1" d="M 58.339844 23.425781 C 58.238281 23.445312 58.140625 23.464844 58.046875 23.492188 C 57.855469 23.542969 57.675781 23.617188 57.488281 23.707031 C 57.671875 23.621094 57.855469 23.542969 58.046875 23.492188 C 58.140625 23.464844 58.238281 23.445312 58.339844 23.425781 " fill-opacity="1" fill-rule="nonzero"/><path fill="#ffa7c1" d="M 56.414062 24.253906 C 56.480469 24.21875 56.546875 24.183594 56.609375 24.152344 C 56.539062 24.1875 56.476562 24.222656 56.414062 24.253906 C 56.105469 24.414062 55.796875 24.582031 55.484375 24.746094 C 55.339844 24.824219 55.195312 24.902344 55.050781 24.980469 C 55.199219 24.902344 55.347656 24.820312 55.496094 24.742188 C 55.800781 24.578125 56.109375 24.414062 56.414062 24.253906 " fill-opacity="1" fill-rule="nonzero"/><path fill="#ffa7c1" d="M 54.625 25.207031 C 54.746094 25.140625 54.867188 25.078125 54.988281 25.015625 C 54.867188 25.078125 54.746094 25.140625 54.625 25.207031 " fill-opacity="1" fill-rule="nonzero"/><path fill="#ffa7c1" d="M 57.347656 23.773438 C 57.285156 23.804688 57.222656 23.835938 57.160156 23.867188 C 56.972656 23.964844 56.785156 24.058594 56.621094 24.144531 C 56.8125 24.042969 56.992188 23.953125 57.160156 23.867188 C 57.222656 23.835938 57.285156 23.804688 57.347656 23.773438 " fill-opacity="1" fill-rule="nonzero"/><path fill="#ffa7c1" d="M 54.183594 25.4375 C 54.277344 25.390625 54.367188 25.339844 54.460938 25.292969 C 54.367188 25.339844 54.277344 25.390625 54.183594 25.4375 " fill-opacity="1" fill-rule="nonzero"/><path fill="#ffa7c1" d="M 59.367188 23.265625 C 59.414062 23.253906 59.460938 23.242188 59.507812 23.230469 C 59.460938 23.242188 59.414062 23.253906 59.367188 23.265625 " fill-opacity="1" fill-rule="nonzero"/><path fill="#ffa7c1" d="M 59.328125 23.203125 C 59.34375 23.199219 59.359375 23.195312 59.378906 23.191406 L 59.367188 23.195312 C 59.355469 23.199219 59.34375 23.203125 59.328125 23.203125 C 59.296875 23.210938 59.261719 23.21875 59.230469 23.222656 C 59.222656 23.222656 59.214844 23.226562 59.207031 23.226562 C 59.246094 23.21875 59.289062 23.214844 59.328125 23.203125 " fill-opacity="1" fill-rule="nonzero"/><path fill="#ffa7c1" d="M 52.84375 23.210938 C 52.820312 23.21875 52.792969 23.226562 52.769531 23.234375 C 52.792969 23.226562 52.820312 23.21875 52.84375 23.210938 " fill-opacity="1" fill-rule="nonzero"/><path fill="#ffa7c1" d="M 51.328125 23.695312 C 51.308594 23.703125 51.285156 23.710938 51.265625 23.71875 C 51.285156 23.710938 51.308594 23.703125 51.328125 23.695312 " fill-opacity="1" fill-rule="nonzero"/><path fill="#ffa7c1" d="M 51.171875 23.753906 C 51.152344 23.761719 51.132812 23.769531 51.113281 23.777344 C 51.132812 23.769531 51.152344 23.761719 51.171875 23.753906 " fill-opacity="1" fill-rule="nonzero"/><path fill="#ffa7c1" d="M 51.816406 23.523438 C 51.789062 23.53125 51.765625 23.539062 51.742188 23.550781 C 51.765625 23.539062 51.789062 23.53125 51.816406 23.523438 " fill-opacity="1" fill-rule="nonzero"/><path fill="#ffa7c1" d="M 51.488281 23.636719 C 51.464844 23.644531 51.441406 23.652344 51.417969 23.660156 C 51.441406 23.652344 51.464844 23.644531 51.488281 23.636719 " fill-opacity="1" fill-rule="nonzero"/><path fill="#ffa7c1" d="M 53.015625 23.160156 C 52.996094 23.167969 52.972656 23.175781 52.949219 23.179688 C 52.972656 23.175781 52.996094 23.167969 53.015625 23.160156 " fill-opacity="1" fill-rule="nonzero"/><path fill="#ffa7c1" d="M 52.667969 23.261719 C 52.644531 23.269531 52.617188 23.277344 52.59375 23.285156 C 52.617188 23.277344 52.644531 23.269531 52.667969 23.261719 " fill-opacity="1" fill-rule="nonzero"/><path fill="#ffa7c1" d="M 51.652344 23.578125 C 51.625 23.589844 51.601562 23.597656 51.578125 23.605469 C 51.601562 23.597656 51.625 23.589844 51.652344 23.578125 " fill-opacity="1" fill-rule="nonzero"/><path fill="#ffa7c1" d="M 52.496094 23.3125 C 52.46875 23.320312 52.445312 23.328125 52.417969 23.335938 C 52.445312 23.328125 52.46875 23.320312 52.496094 23.3125 " fill-opacity="1" fill-rule="nonzero"/><path fill="#ffa7c1" d="M 53.195312 23.109375 C 53.171875 23.117188 53.152344 23.125 53.128906 23.128906 C 53.152344 23.125 53.171875 23.117188 53.195312 23.109375 " fill-opacity="1" fill-rule="nonzero"/><path fill="#ffa7c1" d="M 51.011719 23.816406 C 50.996094 23.820312 50.980469 23.828125 50.964844 23.835938 C 50.980469 23.828125 50.996094 23.820312 51.011719 23.816406 " fill-opacity="1" fill-rule="nonzero"/><path fill="#ffa7c1" d="M 52.320312 23.363281 C 52.296875 23.371094 52.269531 23.378906 52.246094 23.386719 C 52.269531 23.378906 52.296875 23.371094 52.320312 23.363281 " fill-opacity="1" fill-rule="nonzero"/><path fill="#ffa7c1" d="M 53.363281 23.0625 C 53.347656 23.066406 53.332031 23.074219 53.316406 23.078125 C 53.332031 23.074219 53.347656 23.066406 53.363281 23.0625 " fill-opacity="1" fill-rule="nonzero"/><path fill="#ffa7c1" d="M 51.980469 23.472656 C 51.957031 23.480469 51.933594 23.488281 51.90625 23.496094 C 51.933594 23.488281 51.957031 23.480469 51.980469 23.472656 " fill-opacity="1" fill-rule="nonzero"/><path fill="#ffa7c1" d="M 52.152344 23.417969 C 52.125 23.425781 52.101562 23.433594 52.074219 23.441406 C 52.101562 23.433594 52.125 23.425781 52.152344 23.417969 " fill-opacity="1" fill-rule="nonzero"/><path fill="#ffa7c1" d="M 47.945312 22.785156 C 47.796875 22.746094 47.648438 22.695312 47.5 22.636719 C 47.648438 22.695312 47.796875 22.746094 47.945312 22.785156 " fill-opacity="1" fill-rule="nonzero"/><path fill="#ffa7c1" d="M 52.417969 23.335938 C 52.386719 23.34375 52.355469 23.355469 52.320312 23.363281 C 52.355469 23.355469 52.386719 23.34375 52.417969 23.335938 " fill-opacity="1" fill-rule="nonzero"/><path fill="#ffa7c1" d="M 53.316406 23.078125 C 53.277344 23.089844 53.234375 23.097656 53.195312 23.109375 C 53.234375 23.097656 53.277344 23.089844 53.316406 23.078125 " fill-opacity="1" fill-rule="nonzero"/><path fill="#ffa7c1" d="M 53.128906 23.128906 C 53.089844 23.140625 53.054688 23.152344 53.015625 23.160156 C 53.054688 23.152344 53.089844 23.140625 53.128906 23.128906 " fill-opacity="1" fill-rule="nonzero"/><path fill="#ffa7c1" d="M 52.59375 23.285156 C 52.558594 23.292969 52.527344 23.304688 52.496094 23.3125 C 52.527344 23.304688 52.558594 23.292969 52.59375 23.285156 " fill-opacity="1" fill-rule="nonzero"/><path fill="#ffa7c1" d="M 52.769531 23.234375 C 52.734375 23.242188 52.703125 23.253906 52.667969 23.261719 C 52.703125 23.253906 52.734375 23.242188 52.769531 23.234375 " fill-opacity="1" fill-rule="nonzero"/><path fill="#ffa7c1" d="M 52.949219 23.179688 C 52.914062 23.191406 52.878906 23.199219 52.84375 23.210938 C 52.878906 23.199219 52.914062 23.191406 52.949219 23.179688 " fill-opacity="1" fill-rule="nonzero"/><path fill="#ffa7c1" d="M 51.265625 23.71875 C 51.234375 23.730469 51.203125 23.742188 51.171875 23.753906 C 51.203125 23.742188 51.234375 23.730469 51.265625 23.71875 " fill-opacity="1" fill-rule="nonzero"/><path fill="#ffa7c1" d="M 51.113281 23.777344 C 51.078125 23.789062 51.046875 23.800781 51.011719 23.816406 C 51.046875 23.800781 51.078125 23.789062 51.113281 23.777344 " fill-opacity="1" fill-rule="nonzero"/><path fill="#ffa7c1" d="M 50.964844 23.835938 C 50.917969 23.855469 50.871094 23.875 50.824219 23.894531 C 50.871094 23.875 50.917969 23.855469 50.964844 23.835938 " fill-opacity="1" fill-rule="nonzero"/><path fill="#ffa7c1" d="M 52.074219 23.441406 C 52.042969 23.449219 52.011719 23.460938 51.980469 23.472656 C 52.011719 23.460938 52.042969 23.449219 52.074219 23.441406 " fill-opacity="1" fill-rule="nonzero"/><path fill="#ffa7c1" d="M 51.417969 23.660156 C 51.390625 23.671875 51.359375 23.683594 51.328125 23.695312 C 51.359375 23.683594 51.390625 23.671875 51.417969 23.660156 " fill-opacity="1" fill-rule="nonzero"/><path fill="#ffa7c1" d="M 51.90625 23.496094 C 51.875 23.503906 51.847656 23.515625 51.816406 23.523438 C 51.847656 23.515625 51.875 23.503906 51.90625 23.496094 " fill-opacity="1" fill-rule="nonzero"/><path fill="#ffa7c1" d="M 51.742188 23.550781 C 51.710938 23.558594 51.679688 23.570312 51.652344 23.578125 C 51.679688 23.570312 51.710938 23.558594 51.742188 23.550781 " fill-opacity="1" fill-rule="nonzero"/><path fill="#ffa7c1" d="M 52.246094 23.386719 C 52.214844 23.398438 52.183594 23.40625 52.152344 23.417969 C 52.183594 23.40625 52.214844 23.398438 52.246094 23.386719 " fill-opacity="1" fill-rule="nonzero"/><path fill="#ffa7c1" d="M 51.578125 23.605469 C 51.546875 23.613281 51.519531 23.625 51.488281 23.636719 C 51.519531 23.625 51.546875 23.613281 51.578125 23.605469 " fill-opacity="1" fill-rule="nonzero"/><path fill="#554289" d="M 54.246094 25.875 L 57.453125 24.1875 C 57.457031 24.1875 57.800781 24.011719 58.03125 23.941406 C 58.257812 23.875 58.386719 23.859375 58.386719 23.859375 C 58.390625 23.859375 58.398438 23.859375 58.402344 23.855469 C 58.433594 23.851562 58.917969 23.765625 59.34375 23.679688 C 59.421875 23.523438 59.5 23.367188 59.574219 23.214844 C 59.566406 23.214844 59.558594 23.21875 59.554688 23.21875 C 59.539062 23.222656 59.523438 23.226562 59.507812 23.230469 C 59.460938 23.242188 59.414062 23.253906 59.367188 23.265625 C 59.359375 23.265625 59.351562 23.269531 59.34375 23.269531 C 59.160156 23.308594 58.972656 23.332031 58.792969 23.355469 C 58.640625 23.375 58.488281 23.398438 58.339844 23.425781 C 58.238281 23.445312 58.140625 23.464844 58.046875 23.492188 C 57.855469 23.542969 57.671875 23.621094 57.488281 23.707031 C 57.484375 23.707031 57.476562 23.710938 57.472656 23.714844 C 57.441406 23.726562 57.410156 23.742188 57.382812 23.757812 C 57.371094 23.761719 57.359375 23.769531 57.347656 23.773438 C 57.285156 23.804688 57.222656 23.835938 57.160156 23.867188 C 56.992188 23.953125 56.8125 24.042969 56.621094 24.144531 L 56.609375 24.152344 C 56.546875 24.183594 56.480469 24.21875 56.414062 24.253906 C 56.109375 24.414062 55.800781 24.578125 55.496094 24.742188 C 55.347656 24.820312 55.199219 24.902344 55.050781 24.980469 C 55.027344 24.992188 55.007812 25.003906 54.988281 25.015625 C 54.867188 25.078125 54.746094 25.140625 54.625 25.207031 C 54.570312 25.234375 54.515625 25.261719 54.460938 25.292969 C 54.367188 25.339844 54.277344 25.390625 54.183594 25.4375 C 54.128906 25.464844 54.074219 25.492188 54.015625 25.523438 C 53.945312 25.558594 53.871094 25.597656 53.796875 25.632812 C 53.949219 25.71875 54.101562 25.800781 54.246094 25.875 " fill-opacity="1" fill-rule="nonzero"/><g clip-path="url(#f4ba1417f8)"><path fill="#554289" d="M 48.484375 22.894531 C 48.734375 22.9375 48.996094 22.984375 49.242188 23.066406 C 49.550781 23.171875 49.828125 23.324219 50.132812 23.496094 C 50.355469 23.621094 50.582031 23.753906 50.824219 23.894531 C 50.871094 23.875 50.917969 23.855469 50.964844 23.835938 C 50.980469 23.828125 50.996094 23.820312 51.011719 23.816406 C 51.046875 23.800781 51.078125 23.789062 51.113281 23.777344 C 51.132812 23.769531 51.152344 23.761719 51.171875 23.753906 C 51.203125 23.742188 51.234375 23.730469 51.265625 23.71875 C 51.285156 23.710938 51.308594 23.703125 51.328125 23.695312 C 51.359375 23.683594 51.390625 23.671875 51.417969 23.660156 C 51.441406 23.652344 51.464844 23.644531 51.488281 23.636719 C 51.519531 23.625 51.546875 23.613281 51.578125 23.605469 C 51.601562 23.597656 51.625 23.589844 51.652344 23.578125 C 51.679688 23.570312 51.710938 23.558594 51.742188 23.550781 C 51.765625 23.539062 51.789062 23.53125 51.816406 23.523438 C 51.847656 23.515625 51.875 23.503906 51.90625 23.496094 C 51.933594 23.488281 51.957031 23.480469 51.980469 23.472656 C 52.011719 23.460938 52.042969 23.449219 52.074219 23.441406 C 52.101562 23.433594 52.125 23.425781 52.152344 23.417969 C 52.183594 23.40625 52.214844 23.398438 52.246094 23.386719 C 52.269531 23.378906 52.296875 23.371094 52.320312 23.363281 C 52.355469 23.355469 52.386719 23.34375 52.417969 23.335938 C 52.445312 23.328125 52.46875 23.320312 52.496094 23.3125 C 52.527344 23.304688 52.558594 23.292969 52.59375 23.285156 C 52.617188 23.277344 52.644531 23.269531 52.667969 23.261719 C 52.703125 23.253906 52.734375 23.242188 52.769531 23.234375 C 52.792969 23.226562 52.820312 23.21875 52.84375 23.210938 C 52.878906 23.199219 52.914062 23.191406 52.949219 23.179688 C 52.972656 23.175781 52.996094 23.167969 53.015625 23.160156 C 53.054688 23.152344 53.089844 23.140625 53.128906 23.128906 C 53.152344 23.125 53.171875 23.117188 53.195312 23.109375 C 53.234375 23.097656 53.277344 23.089844 53.316406 23.078125 C 53.332031 23.074219 53.347656 23.066406 53.363281 23.0625 C 53.382812 23.058594 53.402344 23.054688 53.421875 23.046875 C 53.195312 22.960938 52.960938 22.871094 52.726562 22.78125 C 52.09375 22.964844 51.253906 23.226562 50.859375 23.40625 C 50.5625 23.226562 49.769531 22.753906 49.335938 22.617188 C 49.132812 22.550781 48.875 22.5 48.605469 22.445312 C 48.183594 22.359375 47.699219 22.265625 47.28125 22.085938 C 47.003906 21.964844 46.859375 21.863281 46.796875 21.808594 C 46.765625 21.78125 46.730469 21.753906 46.691406 21.730469 C 46.679688 21.71875 46.667969 21.714844 46.667969 21.714844 L 46.445312 21.820312 L 46.46875 21.957031 C 46.496094 22.046875 46.601562 22.125 46.691406 22.1875 L 46.703125 22.195312 C 46.945312 22.375 47.214844 22.523438 47.5 22.636719 C 47.648438 22.695312 47.796875 22.746094 47.945312 22.785156 C 48.125 22.828125 48.308594 22.863281 48.484375 22.894531 " fill-opacity="1" fill-rule="nonzero"/></g><path fill="#554289" d="M 59.691406 23.125 C 59.679688 23.144531 59.667969 23.167969 59.660156 23.1875 C 59.625 23.199219 59.589844 23.210938 59.554688 23.21875 C 59.539062 23.222656 59.523438 23.226562 59.507812 23.230469 C 59.460938 23.242188 59.414062 23.253906 59.367188 23.265625 C 59.359375 23.265625 59.351562 23.269531 59.34375 23.269531 C 59.160156 23.308594 58.972656 23.332031 58.792969 23.355469 C 58.640625 23.375 58.488281 23.398438 58.339844 23.425781 C 58.238281 23.445312 58.140625 23.464844 58.046875 23.492188 C 57.855469 23.542969 57.675781 23.617188 57.488281 23.707031 C 57.484375 23.707031 57.476562 23.710938 57.472656 23.714844 C 57.441406 23.726562 57.410156 23.742188 57.382812 23.757812 C 57.371094 23.761719 57.359375 23.769531 57.347656 23.773438 C 57.285156 23.804688 57.222656 23.835938 57.160156 23.867188 C 56.972656 23.964844 56.785156 24.058594 56.621094 24.144531 C 56.617188 24.148438 56.613281 24.148438 56.609375 24.152344 C 56.539062 24.1875 56.476562 24.222656 56.417969 24.253906 C 56.105469 24.414062 55.796875 24.582031 55.484375 24.746094 C 55.34375 24.824219 55.195312 24.902344 55.050781 24.980469 C 55.027344 24.992188 55.007812 25.003906 54.988281 25.015625 C 54.867188 25.078125 54.746094 25.140625 54.625 25.207031 C 54.570312 25.234375 54.515625 25.261719 54.460938 25.292969 C 54.367188 25.339844 54.277344 25.390625 54.183594 25.4375 C 54.128906 25.464844 54.074219 25.496094 54.015625 25.523438 C 53.917969 25.574219 53.824219 25.621094 53.726562 25.671875 C 53.710938 25.660156 53.691406 25.652344 53.675781 25.644531 L 53.652344 25.632812 C 54.570312 25.171875 55.472656 24.671875 56.382812 24.191406 C 56.632812 24.0625 56.878906 23.933594 57.128906 23.808594 C 57.179688 23.78125 57.230469 23.753906 57.285156 23.730469 C 57.394531 23.675781 57.503906 23.625 57.617188 23.574219 C 57.75 23.515625 57.886719 23.464844 58.027344 23.425781 C 58.117188 23.402344 58.210938 23.382812 58.300781 23.363281 C 58.601562 23.304688 58.90625 23.28125 59.207031 23.226562 C 59.25 23.21875 59.289062 23.214844 59.328125 23.203125 C 59.34375 23.199219 59.359375 23.195312 59.378906 23.191406 C 59.5 23.167969 59.609375 23.144531 59.691406 23.125 " fill-opacity="1" fill-rule="nonzero"/><path fill="#554289" d="M 53.796875 25.632812 C 53.871094 25.597656 53.945312 25.558594 54.015625 25.523438 C 53.917969 25.574219 53.824219 25.621094 53.726562 25.671875 C 53.875 25.753906 54.023438 25.835938 54.175781 25.914062 L 54.246094 25.875 C 54.101562 25.800781 53.949219 25.71875 53.796875 25.632812 " fill-opacity="1" fill-rule="nonzero"/><path fill="#554289" d="M 59.574219 23.214844 C 59.5 23.367188 59.421875 23.523438 59.34375 23.679688 C 59.371094 23.675781 59.402344 23.667969 59.429688 23.664062 C 59.507812 23.503906 59.585938 23.347656 59.660156 23.1875 C 59.625 23.199219 59.589844 23.210938 59.554688 23.21875 C 59.558594 23.21875 59.566406 23.214844 59.574219 23.214844 " fill-opacity="1" fill-rule="nonzero"/><path fill="#554289" d="M 53.421875 23.046875 C 53.402344 23.054688 53.382812 23.058594 53.363281 23.0625 C 53.414062 23.050781 53.460938 23.035156 53.511719 23.023438 L 53.527344 23.015625 C 53.296875 22.929688 53.0625 22.839844 52.835938 22.75 C 52.800781 22.761719 52.765625 22.769531 52.726562 22.78125 C 52.960938 22.871094 53.195312 22.960938 53.421875 23.046875 " fill-opacity="1" fill-rule="nonzero"/><g clip-path="url(#2fae2a222c)"><path fill="#554289" d="M 46.40625 21.972656 C 46.40625 21.980469 46.410156 21.984375 46.410156 21.988281 L 46.46875 21.953125 C 46.460938 21.910156 46.464844 21.871094 46.488281 21.839844 C 46.511719 21.800781 46.554688 21.777344 46.601562 21.769531 C 46.652344 21.761719 46.652344 21.761719 46.664062 21.757812 C 46.667969 21.757812 46.6875 21.746094 46.699219 21.734375 C 46.65625 21.726562 46.652344 21.699219 46.605469 21.703125 C 46.589844 21.703125 46.546875 21.707031 46.507812 21.730469 C 46.429688 21.777344 46.375 21.863281 46.40625 21.972656 " fill-opacity="1" fill-rule="nonzero"/></g><path fill="#554289" d="M 47.4375 22.644531 C 47.320312 22.609375 47.207031 22.566406 47.09375 22.515625 C 47.078125 22.511719 47.0625 22.503906 47.046875 22.496094 C 47.167969 22.5625 47.289062 22.621094 47.414062 22.671875 C 47.417969 22.664062 47.421875 22.660156 47.429688 22.652344 L 47.4375 22.644531 " fill-opacity="1" fill-rule="nonzero"/><path fill="#554289" d="M 49.21875 23.132812 C 49.527344 23.234375 49.816406 23.394531 50.101562 23.554688 C 50.339844 23.691406 50.582031 23.828125 50.820312 23.96875 C 51.601562 23.625 52.625 23.339844 53.632812 23.058594 C 53.613281 23.046875 53.589844 23.039062 53.566406 23.03125 C 52.660156 23.28125 51.265625 23.699219 50.96875 23.875 C 50.933594 23.898438 50.890625 23.910156 50.847656 23.910156 C 50.804688 23.910156 50.761719 23.898438 50.722656 23.875 C 50.710938 23.867188 49.664062 23.214844 49.191406 23.0625 C 49.011719 23.003906 48.769531 22.957031 48.515625 22.90625 C 48.175781 22.839844 47.800781 22.765625 47.4375 22.644531 L 47.429688 22.652344 C 47.421875 22.660156 47.417969 22.664062 47.414062 22.671875 C 47.433594 22.683594 47.457031 22.691406 47.476562 22.699219 C 47.625 22.757812 47.777344 22.808594 47.929688 22.847656 C 48.355469 22.960938 48.800781 22.992188 49.21875 23.132812 " fill-opacity="1" fill-rule="nonzero"/><g clip-path="url(#8d4ffe899a)"><path fill="#554289" d="M 47.4375 22.644531 C 47.457031 22.632812 47.480469 22.628906 47.5 22.636719 C 47.214844 22.523438 46.945312 22.375 46.703125 22.195312 L 46.691406 22.1875 C 46.601562 22.125 46.496094 22.046875 46.46875 21.957031 L 46.46875 21.953125 L 46.410156 21.988281 C 46.449219 22.097656 46.566406 22.179688 46.664062 22.25 C 46.785156 22.339844 46.914062 22.421875 47.046875 22.496094 C 47.0625 22.503906 47.078125 22.511719 47.09375 22.515625 C 47.207031 22.566406 47.320312 22.609375 47.4375 22.644531 " fill-opacity="1" fill-rule="nonzero"/></g><path fill="#554289" d="M 53.363281 23.0625 C 53.347656 23.066406 53.332031 23.074219 53.316406 23.078125 C 53.277344 23.089844 53.234375 23.097656 53.195312 23.109375 C 53.171875 23.117188 53.152344 23.125 53.128906 23.128906 C 53.089844 23.140625 53.054688 23.152344 53.015625 23.160156 C 52.996094 23.167969 52.972656 23.175781 52.949219 23.179688 C 52.914062 23.191406 52.878906 23.199219 52.84375 23.210938 C 52.820312 23.21875 52.792969 23.226562 52.769531 23.234375 C 52.734375 23.242188 52.703125 23.253906 52.667969 23.261719 C 52.644531 23.269531 52.617188 23.277344 52.59375 23.285156 C 52.558594 23.292969 52.527344 23.304688 52.496094 23.3125 C 52.46875 23.320312 52.445312 23.328125 52.417969 23.335938 C 52.386719 23.34375 52.355469 23.355469 52.320312 23.363281 C 52.296875 23.371094 52.269531 23.378906 52.246094 23.386719 C 52.214844 23.398438 52.183594 23.40625 52.152344 23.417969 C 52.125 23.425781 52.101562 23.433594 52.074219 23.441406 C 52.042969 23.449219 52.011719 23.460938 51.980469 23.472656 C 51.957031 23.480469 51.933594 23.488281 51.90625 23.496094 C 51.875 23.503906 51.847656 23.515625 51.816406 23.523438 C 51.789062 23.53125 51.765625 23.539062 51.742188 23.550781 C 51.710938 23.558594 51.679688 23.570312 51.652344 23.578125 C 51.625 23.589844 51.601562 23.597656 51.578125 23.605469 C 51.546875 23.613281 51.519531 23.625 51.488281 23.636719 C 51.464844 23.644531 51.441406 23.652344 51.417969 23.660156 C 51.390625 23.671875 51.359375 23.683594 51.328125 23.695312 C 51.308594 23.703125 51.285156 23.710938 51.265625 23.71875 C 51.234375 23.730469 51.203125 23.742188 51.171875 23.753906 C 51.152344 23.761719 51.132812 23.769531 51.113281 23.777344 C 51.078125 23.789062 51.046875 23.800781 51.011719 23.816406 C 50.996094 23.820312 50.980469 23.828125 50.964844 23.835938 C 50.917969 23.855469 50.871094 23.875 50.824219 23.894531 C 50.582031 23.753906 50.355469 23.621094 50.132812 23.496094 C 49.828125 23.324219 49.550781 23.171875 49.242188 23.066406 C 48.996094 22.984375 48.734375 22.9375 48.484375 22.894531 C 48.308594 22.863281 48.125 22.828125 47.945312 22.785156 C 47.796875 22.746094 47.648438 22.695312 47.5 22.636719 C 47.480469 22.628906 47.457031 22.632812 47.4375 22.644531 C 47.800781 22.765625 48.175781 22.839844 48.515625 22.90625 C 48.769531 22.957031 49.011719 23.003906 49.191406 23.0625 C 49.664062 23.214844 50.710938 23.867188 50.722656 23.875 C 50.761719 23.898438 50.804688 23.910156 50.847656 23.910156 C 50.890625 23.910156 50.933594 23.898438 50.96875 23.875 C 51.265625 23.699219 52.660156 23.28125 53.566406 23.03125 C 53.554688 23.027344 53.542969 23.023438 53.527344 23.015625 L 53.511719 23.023438 C 53.460938 23.035156 53.414062 23.050781 53.363281 23.0625 " fill-opacity="1" fill-rule="nonzero"/><g fill="#554289" fill-opacity="1"><g transform="translate(15.280421, 34.869022)"><g><path d="M 31.078125 -21.59375 C 32.003906 -21.59375 32.78125 -21.625 33.40625 -21.6875 L 33.265625 -21.0625 C 32.546875 -20.863281 31.910156 -20.546875 31.359375 -20.109375 C 30.804688 -19.671875 30.234375 -18.910156 29.640625 -17.828125 L 20 0.15625 L 18.40625 0.15625 L 16.5 -13.5 L 8.265625 0.15625 L 6.671875 0.15625 L 4.25 -19.109375 C 4.175781 -19.804688 3.984375 -20.300781 3.671875 -20.59375 C 3.367188 -20.894531 3.023438 -21.050781 2.640625 -21.0625 L 2.78125 -21.6875 C 3.78125 -21.625 5.210938 -21.59375 7.078125 -21.59375 C 8.804688 -21.59375 10.132812 -21.625 11.0625 -21.6875 L 10.90625 -21.0625 C 10.3125 -21.03125 9.890625 -20.890625 9.640625 -20.640625 C 9.398438 -20.398438 9.28125 -19.941406 9.28125 -19.265625 C 9.28125 -18.929688 9.289062 -18.675781 9.3125 -18.5 L 10.78125 -5.203125 L 16.390625 -14.421875 L 15.734375 -19.109375 C 15.660156 -19.785156 15.5 -20.273438 15.25 -20.578125 C 15.007812 -20.890625 14.734375 -21.050781 14.421875 -21.0625 L 14.578125 -21.6875 C 15.535156 -21.625 16.863281 -21.59375 18.5625 -21.59375 C 20.6875 -21.59375 22.28125 -21.625 23.34375 -21.6875 L 23.1875 -21.0625 C 22.269531 -21.03125 21.628906 -20.894531 21.265625 -20.65625 C 20.910156 -20.414062 20.734375 -19.972656 20.734375 -19.328125 C 20.734375 -19.179688 20.753906 -18.90625 20.796875 -18.5 L 22.421875 -5.703125 L 28.71875 -17.296875 C 29.226562 -18.265625 29.484375 -19.019531 29.484375 -19.5625 C 29.484375 -20.070312 29.273438 -20.441406 28.859375 -20.671875 C 28.441406 -20.898438 27.796875 -21.03125 26.921875 -21.0625 L 27.078125 -21.6875 C 27.910156 -21.625 29.242188 -21.59375 31.078125 -21.59375 Z M 31.078125 -21.59375 "/></g></g></g><g fill="#554289" fill-opacity="1"><g transform="translate(62.481641, 33.516506)"><g><path d="M 21.859375 -4.359375 L 21.1875 -2.40625 C 20.539062 -0.550781 19.328125 0.375 17.546875 0.375 C 16.503906 0.375 15.785156 0.0507812 15.390625 -0.59375 C 15.191406 -0.894531 15.09375 -1.300781 15.09375 -1.8125 C 15.09375 -2.40625 15.226562 -3.101562 15.5 -3.90625 L 17.921875 -11.1875 C 18.066406 -11.65625 18.140625 -12.015625 18.140625 -12.265625 C 18.140625 -12.617188 18.015625 -12.796875 17.765625 -12.796875 C 17.023438 -12.796875 16.140625 -11.910156 15.109375 -10.140625 C 14.078125 -8.378906 13.039062 -5.804688 12 -2.421875 L 12 -2.5 L 11.296875 0 L 7.4375 0 L 10.734375 -11.1875 C 10.867188 -11.65625 10.9375 -12.023438 10.9375 -12.296875 C 10.9375 -12.628906 10.796875 -12.796875 10.515625 -12.796875 C 9.703125 -12.796875 8.785156 -11.863281 7.765625 -10 C 6.753906 -8.132812 5.800781 -5.703125 4.90625 -2.703125 L 4.90625 -2.71875 L 4.203125 0 L 0.40625 0 L 3.6875 -11.640625 C 3.78125 -11.953125 3.828125 -12.210938 3.828125 -12.421875 C 3.828125 -12.796875 3.664062 -12.984375 3.34375 -12.984375 C 3.019531 -12.984375 2.726562 -12.816406 2.46875 -12.484375 C 2.207031 -12.160156 1.929688 -11.617188 1.640625 -10.859375 L 1.125 -9.484375 L 0.625 -9.484375 L 1.34375 -11.53125 C 1.707031 -12.519531 2.207031 -13.226562 2.84375 -13.65625 C 3.476562 -14.09375 4.191406 -14.3125 4.984375 -14.3125 C 5.753906 -14.3125 6.3125 -14.113281 6.65625 -13.71875 C 7 -13.320312 7.171875 -12.800781 7.171875 -12.15625 C 7.171875 -11.6875 7.085938 -11.144531 6.921875 -10.53125 L 6.328125 -8.21875 C 7.210938 -10.414062 8.117188 -11.976562 9.046875 -12.90625 C 9.972656 -13.84375 11.082031 -14.3125 12.375 -14.3125 C 13.789062 -14.3125 14.5 -13.609375 14.5 -12.203125 C 14.5 -11.703125 14.390625 -11.050781 14.171875 -10.25 L 13.6875 -8.515625 C 14.59375 -10.648438 15.503906 -12.148438 16.421875 -13.015625 C 17.347656 -13.878906 18.414062 -14.3125 19.625 -14.3125 C 20.375 -14.3125 20.925781 -14.125 21.28125 -13.75 C 21.644531 -13.375 21.828125 -12.859375 21.828125 -12.203125 C 21.828125 -11.617188 21.703125 -10.96875 21.453125 -10.25 L 18.8125 -2.296875 C 18.707031 -1.953125 18.65625 -1.691406 18.65625 -1.515625 C 18.65625 -1.128906 18.820312 -0.9375 19.15625 -0.9375 C 19.769531 -0.9375 20.335938 -1.648438 20.859375 -3.078125 L 21.34375 -4.359375 Z M 21.859375 -4.359375 "/></g></g></g><g fill="#554289" fill-opacity="1"><g transform="translate(85.557451, 33.516506)"><g><path d="M 12.609375 -12.1875 C 12.609375 -10.695312 11.769531 -9.394531 10.09375 -8.28125 C 8.425781 -7.164062 6.488281 -6.300781 4.28125 -5.6875 C 4.175781 -5.070312 4.125 -4.460938 4.125 -3.859375 C 4.125 -2.898438 4.296875 -2.222656 4.640625 -1.828125 C 4.992188 -1.429688 5.515625 -1.234375 6.203125 -1.234375 C 6.753906 -1.234375 7.378906 -1.410156 8.078125 -1.765625 C 8.785156 -2.117188 9.472656 -2.679688 10.140625 -3.453125 L 10.5625 -3.234375 C 9.914062 -2.222656 9.046875 -1.367188 7.953125 -0.671875 C 6.867188 0.0234375 5.65625 0.375 4.3125 0.375 C 3.070312 0.375 2.054688 0.0390625 1.265625 -0.625 C 0.472656 -1.289062 0.078125 -2.222656 0.078125 -3.421875 C 0.078125 -5.023438 0.507812 -6.675781 1.375 -8.375 C 2.238281 -10.082031 3.414062 -11.5 4.90625 -12.625 C 6.394531 -13.75 8.03125 -14.3125 9.8125 -14.3125 C 10.632812 -14.3125 11.304688 -14.125 11.828125 -13.75 C 12.347656 -13.382812 12.609375 -12.863281 12.609375 -12.1875 Z M 9.21875 -13.796875 C 8.695312 -13.796875 8.101562 -13.425781 7.4375 -12.6875 C 6.769531 -11.957031 6.15625 -11.003906 5.59375 -9.828125 C 5.039062 -8.648438 4.628906 -7.441406 4.359375 -6.203125 C 5.640625 -6.753906 6.628906 -7.351562 7.328125 -8 C 8.046875 -8.644531 8.613281 -9.382812 9.03125 -10.21875 C 9.445312 -11.0625 9.65625 -11.957031 9.65625 -12.90625 C 9.65625 -13.25 9.617188 -13.484375 9.546875 -13.609375 C 9.472656 -13.734375 9.363281 -13.796875 9.21875 -13.796875 Z M 9.21875 -13.796875 "/></g></g></g><g fill="#554289" fill-opacity="1"><g transform="translate(98.200621, 33.516506)"><g><path d="M 15.0625 -4.359375 L 14.390625 -2.40625 C 13.742188 -0.550781 12.539062 0.375 10.78125 0.375 C 9.769531 0.375 9.050781 0.078125 8.625 -0.515625 C 8.394531 -0.859375 8.28125 -1.28125 8.28125 -1.78125 C 8.28125 -2.351562 8.421875 -3.0625 8.703125 -3.90625 L 11.125 -11.1875 C 11.289062 -11.664062 11.375 -12.050781 11.375 -12.34375 C 11.375 -12.757812 11.203125 -12.96875 10.859375 -12.96875 C 10.316406 -12.96875 9.664062 -12.414062 8.90625 -11.3125 C 8.144531 -10.21875 7.375 -8.773438 6.59375 -6.984375 C 5.820312 -5.203125 5.148438 -3.320312 4.578125 -1.34375 L 4.234375 0 L 0.4375 0 L 3.6875 -11.640625 C 3.800781 -11.960938 3.859375 -12.25 3.859375 -12.5 C 3.859375 -12.820312 3.703125 -12.984375 3.390625 -12.984375 C 3.054688 -12.984375 2.757812 -12.828125 2.5 -12.515625 C 2.238281 -12.203125 1.960938 -11.648438 1.671875 -10.859375 L 1.15625 -9.484375 L 0.640625 -9.484375 L 1.375 -11.53125 C 1.71875 -12.519531 2.175781 -13.226562 2.75 -13.65625 C 3.320312 -14.09375 4.023438 -14.3125 4.859375 -14.3125 C 6.398438 -14.3125 7.171875 -13.578125 7.171875 -12.109375 C 7.171875 -11.597656 7.097656 -11.070312 6.953125 -10.53125 L 6.125 -7.28125 C 6.851562 -9.113281 7.554688 -10.535156 8.234375 -11.546875 C 8.910156 -12.566406 9.59375 -13.28125 10.28125 -13.6875 C 10.976562 -14.101562 11.75 -14.3125 12.59375 -14.3125 C 14.207031 -14.3125 15.015625 -13.59375 15.015625 -12.15625 C 15.015625 -11.613281 14.894531 -10.976562 14.65625 -10.25 L 12.015625 -2.296875 C 11.910156 -1.972656 11.859375 -1.710938 11.859375 -1.515625 C 11.859375 -1.128906 12.03125 -0.9375 12.375 -0.9375 C 12.65625 -0.9375 12.9375 -1.085938 13.21875 -1.390625 C 13.5 -1.703125 13.78125 -2.265625 14.0625 -3.078125 L 14.5625 -4.359375 Z M 15.0625 -4.359375 "/></g></g></g><g fill="#554289" fill-opacity="1"><g transform="translate(114.456127, 33.516506)"><g><path d="M 7.40625 -18.40625 C 7.40625 -17.957031 7.289062 -17.519531 7.0625 -17.09375 C 6.84375 -16.675781 6.484375 -16.097656 5.984375 -15.359375 C 5.367188 -14.460938 4.921875 -13.726562 4.640625 -13.15625 L 4.265625 -13.15625 C 4.242188 -13.976562 4.160156 -14.832031 4.015625 -15.71875 C 3.921875 -16.289062 3.875 -16.753906 3.875 -17.109375 L 3.90625 -17.515625 C 3.945312 -18.128906 4.160156 -18.640625 4.546875 -19.046875 C 4.941406 -19.460938 5.4375 -19.671875 6.03125 -19.671875 C 6.445312 -19.671875 6.773438 -19.554688 7.015625 -19.328125 C 7.265625 -19.109375 7.394531 -18.800781 7.40625 -18.40625 Z M 7.40625 -18.40625 "/></g></g></g><g fill="#554289" fill-opacity="1"><g transform="translate(120.602487, 33.516506)"><g><path d="M 2 -0.375 C 2.269531 -0.25 2.617188 -0.1875 3.046875 -0.1875 C 3.722656 -0.1875 4.269531 -0.390625 4.6875 -0.796875 C 5.101562 -1.210938 5.3125 -1.78125 5.3125 -2.5 C 5.3125 -3.082031 5.1875 -3.675781 4.9375 -4.28125 C 4.6875 -4.894531 4.304688 -5.585938 3.796875 -6.359375 C 3.722656 -6.460938 3.507812 -6.785156 3.15625 -7.328125 C 2.8125 -7.867188 2.550781 -8.382812 2.375 -8.875 C 2.207031 -9.375 2.125 -9.863281 2.125 -10.34375 C 2.125 -11.519531 2.5625 -12.472656 3.4375 -13.203125 C 4.3125 -13.941406 5.507812 -14.3125 7.03125 -14.3125 C 8.195312 -14.3125 9.171875 -14.097656 9.953125 -13.671875 C 10.734375 -13.253906 11.125 -12.535156 11.125 -11.515625 C 11.125 -11.003906 10.976562 -10.539062 10.6875 -10.125 C 10.40625 -9.71875 10.003906 -9.515625 9.484375 -9.515625 C 9.035156 -9.515625 8.675781 -9.679688 8.40625 -10.015625 C 8.132812 -10.359375 8 -10.796875 8 -11.328125 C 8 -11.773438 8.078125 -12.191406 8.234375 -12.578125 C 8.398438 -12.960938 8.601562 -13.289062 8.84375 -13.5625 C 8.601562 -13.695312 8.285156 -13.765625 7.890625 -13.765625 C 7.242188 -13.765625 6.738281 -13.5625 6.375 -13.15625 C 6.007812 -12.757812 5.816406 -12.203125 5.796875 -11.484375 C 5.796875 -10.992188 5.890625 -10.550781 6.078125 -10.15625 C 6.265625 -9.757812 6.582031 -9.203125 7.03125 -8.484375 L 7.40625 -7.921875 C 7.988281 -6.972656 8.398438 -6.191406 8.640625 -5.578125 C 8.878906 -4.960938 9 -4.351562 9 -3.75 C 9 -2.957031 8.789062 -2.25 8.375 -1.625 C 7.96875 -1.007812 7.378906 -0.519531 6.609375 -0.15625 C 5.847656 0.195312 4.957031 0.375 3.9375 0.375 C 2.65625 0.375 1.59375 0.128906 0.75 -0.359375 C -0.09375 -0.859375 -0.515625 -1.65625 -0.515625 -2.75 C -0.515625 -3.289062 -0.378906 -3.75 -0.109375 -4.125 C 0.160156 -4.5 0.53125 -4.6875 1 -4.6875 C 1.46875 -4.6875 1.835938 -4.488281 2.109375 -4.09375 C 2.390625 -3.695312 2.53125 -3.195312 2.53125 -2.59375 C 2.53125 -2.195312 2.484375 -1.835938 2.390625 -1.515625 C 2.304688 -1.203125 2.175781 -0.820312 2 -0.375 Z M 2 -0.375 "/></g></g></g><g fill="#554289" fill-opacity="1"><g transform="translate(78.441382, 17.180433)"><g><path d="M 3.015625 -7.65625 C 3.378906 -7.65625 3.671875 -7.617188 3.890625 -7.546875 C 4.109375 -7.472656 4.332031 -7.367188 4.5625 -7.234375 C 4.632812 -7.191406 4.703125 -7.15625 4.765625 -7.125 C 4.828125 -7.101562 4.878906 -7.09375 4.921875 -7.09375 C 4.984375 -7.09375 5.03125 -7.128906 5.0625 -7.203125 C 5.101562 -7.273438 5.132812 -7.390625 5.15625 -7.546875 L 5.40625 -7.546875 C 5.363281 -7.078125 5.34375 -6.273438 5.34375 -5.140625 L 5.109375 -5.140625 C 5.078125 -5.515625 4.988281 -5.875 4.84375 -6.21875 C 4.695312 -6.570312 4.488281 -6.851562 4.21875 -7.0625 C 3.957031 -7.28125 3.648438 -7.390625 3.296875 -7.390625 C 2.953125 -7.390625 2.671875 -7.289062 2.453125 -7.09375 C 2.234375 -6.90625 2.125 -6.644531 2.125 -6.3125 C 2.125 -6.0625 2.175781 -5.84375 2.28125 -5.65625 C 2.394531 -5.476562 2.546875 -5.3125 2.734375 -5.15625 C 2.929688 -5.007812 3.226562 -4.804688 3.625 -4.546875 L 3.953125 -4.3125 C 4.367188 -4.03125 4.695312 -3.785156 4.9375 -3.578125 C 5.1875 -3.378906 5.382812 -3.144531 5.53125 -2.875 C 5.6875 -2.601562 5.765625 -2.285156 5.765625 -1.921875 C 5.765625 -1.460938 5.644531 -1.078125 5.40625 -0.765625 C 5.175781 -0.460938 4.859375 -0.234375 4.453125 -0.078125 C 4.054688 0.078125 3.613281 0.15625 3.125 0.15625 C 2.726562 0.15625 2.398438 0.117188 2.140625 0.046875 C 1.878906 -0.0234375 1.640625 -0.125 1.421875 -0.25 C 1.265625 -0.34375 1.144531 -0.390625 1.0625 -0.390625 C 1 -0.390625 0.945312 -0.351562 0.90625 -0.28125 C 0.875 -0.207031 0.847656 -0.0859375 0.828125 0.078125 L 0.578125 0.078125 C 0.609375 -0.367188 0.625 -1.328125 0.625 -2.796875 L 0.875 -2.796875 C 0.914062 -2.003906 1.085938 -1.359375 1.390625 -0.859375 C 1.703125 -0.367188 2.171875 -0.125 2.796875 -0.125 C 3.179688 -0.125 3.492188 -0.226562 3.734375 -0.4375 C 3.984375 -0.644531 4.109375 -0.9375 4.109375 -1.3125 C 4.109375 -1.707031 3.984375 -2.046875 3.734375 -2.328125 C 3.484375 -2.617188 3.082031 -2.9375 2.53125 -3.28125 C 2.101562 -3.5625 1.757812 -3.800781 1.5 -4 C 1.25 -4.207031 1.039062 -4.453125 0.875 -4.734375 C 0.71875 -5.015625 0.640625 -5.335938 0.640625 -5.703125 C 0.640625 -6.128906 0.742188 -6.488281 0.953125 -6.78125 C 1.171875 -7.070312 1.457031 -7.289062 1.8125 -7.4375 C 2.175781 -7.582031 2.578125 -7.65625 3.015625 -7.65625 Z M 3.015625 -7.65625 "/></g></g></g><g fill="#554289" fill-opacity="1"><g transform="translate(84.639778, 17.180433)"><g><path d="M 6.484375 -0.890625 C 6.578125 -0.660156 6.679688 -0.488281 6.796875 -0.375 C 6.921875 -0.269531 7.039062 -0.21875 7.15625 -0.21875 L 7.15625 0 C 6.726562 -0.0195312 6.1875 -0.03125 5.53125 -0.03125 C 4.8125 -0.03125 4.273438 -0.0195312 3.921875 0 L 3.921875 -0.21875 C 4.191406 -0.226562 4.382812 -0.257812 4.5 -0.3125 C 4.613281 -0.363281 4.671875 -0.457031 4.671875 -0.59375 C 4.671875 -0.71875 4.628906 -0.890625 4.546875 -1.109375 L 3.90625 -2.84375 L 1.59375 -2.84375 L 1.3125 -2.109375 C 1.113281 -1.597656 1.015625 -1.207031 1.015625 -0.9375 C 1.015625 -0.675781 1.09375 -0.492188 1.25 -0.390625 C 1.414062 -0.285156 1.65625 -0.226562 1.96875 -0.21875 L 1.96875 0 C 1.476562 -0.0195312 1.035156 -0.03125 0.640625 -0.03125 C 0.316406 -0.03125 0.0507812 -0.0195312 -0.15625 0 L -0.15625 -0.21875 C 0.1875 -0.28125 0.488281 -0.648438 0.75 -1.328125 L 3.171875 -7.53125 C 3.242188 -7.519531 3.367188 -7.515625 3.546875 -7.515625 C 3.710938 -7.515625 3.832031 -7.519531 3.90625 -7.53125 Z M 3.828125 -3.0625 L 2.78125 -5.921875 L 1.671875 -3.0625 Z M 3.828125 -3.0625 "/></g></g></g><g fill="#554289" fill-opacity="1"><g transform="translate(91.719108, 17.180433)"><g><path d="M 6.03125 -7.515625 C 5.988281 -6.910156 5.96875 -6.375 5.96875 -5.90625 C 5.96875 -5.570312 5.976562 -5.300781 6 -5.09375 L 5.75 -5.09375 C 5.601562 -5.894531 5.390625 -6.457031 5.109375 -6.78125 C 4.828125 -7.101562 4.429688 -7.265625 3.921875 -7.265625 L 3.578125 -7.265625 C 3.359375 -7.265625 3.195312 -7.242188 3.09375 -7.203125 C 3 -7.171875 2.929688 -7.101562 2.890625 -7 C 2.859375 -6.90625 2.84375 -6.742188 2.84375 -6.515625 L 2.84375 -3.84375 L 3.21875 -3.84375 C 3.59375 -3.84375 3.875 -3.976562 4.0625 -4.25 C 4.257812 -4.53125 4.398438 -4.859375 4.484375 -5.234375 L 4.71875 -5.234375 C 4.695312 -4.941406 4.6875 -4.613281 4.6875 -4.25 L 4.6875 -3.734375 C 4.6875 -3.367188 4.707031 -2.867188 4.75 -2.234375 L 4.515625 -2.234375 C 4.359375 -3.160156 3.925781 -3.625 3.21875 -3.625 L 2.84375 -3.625 L 2.84375 -1.1875 C 2.84375 -0.90625 2.875 -0.695312 2.9375 -0.5625 C 3 -0.4375 3.101562 -0.351562 3.25 -0.3125 C 3.40625 -0.269531 3.648438 -0.242188 3.984375 -0.234375 L 3.984375 0 C 3.109375 -0.0195312 2.457031 -0.03125 2.03125 -0.03125 C 1.675781 -0.03125 1.234375 -0.0234375 0.703125 -0.015625 L 0.359375 0 L 0.359375 -0.21875 C 0.585938 -0.226562 0.757812 -0.253906 0.875 -0.296875 C 0.988281 -0.335938 1.0625 -0.414062 1.09375 -0.53125 C 1.132812 -0.65625 1.15625 -0.851562 1.15625 -1.125 L 1.15625 -6.390625 C 1.15625 -6.660156 1.132812 -6.851562 1.09375 -6.96875 C 1.0625 -7.09375 0.988281 -7.175781 0.875 -7.21875 C 0.757812 -7.257812 0.585938 -7.285156 0.359375 -7.296875 L 0.359375 -7.515625 C 1.117188 -7.492188 2.269531 -7.484375 3.8125 -7.484375 C 4.851562 -7.484375 5.59375 -7.492188 6.03125 -7.515625 Z M 6.03125 -7.515625 "/></g></g></g><g fill="#554289" fill-opacity="1"><g transform="translate(98.002414, 17.180433)"><g><path d="M 6.171875 -1.609375 C 6.171875 -0.960938 6.195312 -0.425781 6.25 0 C 5.769531 -0.0195312 4.957031 -0.03125 3.8125 -0.03125 C 2.269531 -0.03125 1.117188 -0.0195312 0.359375 0 L 0.359375 -0.21875 C 0.585938 -0.226562 0.757812 -0.253906 0.875 -0.296875 C 0.988281 -0.335938 1.0625 -0.414062 1.09375 -0.53125 C 1.132812 -0.65625 1.15625 -0.851562 1.15625 -1.125 L 1.15625 -6.390625 C 1.15625 -6.660156 1.132812 -6.851562 1.09375 -6.96875 C 1.0625 -7.09375 0.988281 -7.175781 0.875 -7.21875 C 0.757812 -7.257812 0.585938 -7.285156 0.359375 -7.296875 L 0.359375 -7.515625 C 1.117188 -7.492188 2.269531 -7.484375 3.8125 -7.484375 C 4.851562 -7.484375 5.59375 -7.492188 6.03125 -7.515625 C 5.988281 -6.921875 5.96875 -6.394531 5.96875 -5.9375 C 5.96875 -5.625 5.976562 -5.382812 6 -5.21875 L 5.75 -5.21875 C 5.644531 -5.976562 5.453125 -6.507812 5.171875 -6.8125 C 4.898438 -7.113281 4.515625 -7.265625 4.015625 -7.265625 L 3.578125 -7.265625 C 3.359375 -7.265625 3.195312 -7.242188 3.09375 -7.203125 C 3 -7.171875 2.929688 -7.101562 2.890625 -7 C 2.859375 -6.90625 2.84375 -6.742188 2.84375 -6.515625 L 2.84375 -3.890625 L 3.1875 -3.890625 C 3.5625 -3.890625 3.84375 -4.023438 4.03125 -4.296875 C 4.226562 -4.566406 4.367188 -4.894531 4.453125 -5.28125 L 4.6875 -5.28125 C 4.664062 -4.988281 4.65625 -4.65625 4.65625 -4.28125 L 4.65625 -3.78125 C 4.65625 -3.414062 4.675781 -2.910156 4.71875 -2.265625 L 4.484375 -2.265625 C 4.328125 -3.203125 3.894531 -3.671875 3.1875 -3.671875 L 2.84375 -3.671875 L 2.84375 -1 C 2.84375 -0.769531 2.859375 -0.601562 2.890625 -0.5 C 2.929688 -0.394531 3 -0.328125 3.09375 -0.296875 C 3.195312 -0.265625 3.359375 -0.25 3.578125 -0.25 L 4.09375 -0.25 C 4.59375 -0.25 4.992188 -0.414062 5.296875 -0.75 C 5.609375 -1.09375 5.832031 -1.675781 5.96875 -2.5 L 6.203125 -2.5 C 6.179688 -2.269531 6.171875 -1.972656 6.171875 -1.609375 Z M 6.171875 -1.609375 "/></g></g></g><g fill="#554289" fill-opacity="1"><g transform="translate(104.731494, 17.180433)"><g><path d="M 6.8125 -7.515625 C 6.757812 -6.835938 6.734375 -6.234375 6.734375 -5.703125 C 6.734375 -5.367188 6.742188 -5.101562 6.765625 -4.90625 L 6.53125 -4.90625 C 6.351562 -5.769531 6.117188 -6.378906 5.828125 -6.734375 C 5.535156 -7.085938 5.132812 -7.265625 4.625 -7.265625 L 4.375 -7.265625 L 4.375 -1.203125 C 4.375 -0.910156 4.40625 -0.695312 4.46875 -0.5625 C 4.53125 -0.425781 4.632812 -0.332031 4.78125 -0.28125 C 4.9375 -0.238281 5.179688 -0.21875 5.515625 -0.21875 L 5.515625 0 C 4.628906 -0.0195312 3.957031 -0.03125 3.5 -0.03125 C 3.050781 -0.03125 2.40625 -0.0195312 1.5625 0 L 1.5625 -0.21875 C 1.894531 -0.21875 2.132812 -0.238281 2.28125 -0.28125 C 2.4375 -0.332031 2.539062 -0.425781 2.59375 -0.5625 C 2.65625 -0.695312 2.6875 -0.910156 2.6875 -1.203125 L 2.6875 -7.265625 L 2.46875 -7.265625 C 2.125 -7.265625 1.832031 -7.191406 1.59375 -7.046875 C 1.351562 -6.898438 1.148438 -6.65625 0.984375 -6.3125 C 0.816406 -5.96875 0.671875 -5.5 0.546875 -4.90625 L 0.3125 -4.90625 C 0.332031 -5.101562 0.34375 -5.367188 0.34375 -5.703125 C 0.34375 -6.234375 0.316406 -6.835938 0.265625 -7.515625 C 0.910156 -7.492188 2.003906 -7.484375 3.546875 -7.484375 C 5.085938 -7.484375 6.175781 -7.492188 6.8125 -7.515625 Z M 6.8125 -7.515625 "/></g></g></g><g fill="#554289" fill-opacity="1"><g transform="translate(111.82144, 17.180433)"><g><path d="M 5.734375 -7.484375 C 6.066406 -7.484375 6.335938 -7.492188 6.546875 -7.515625 L 6.546875 -7.3125 C 6.222656 -7.175781 5.882812 -6.765625 5.53125 -6.078125 L 4.28125 -3.59375 L 4.28125 -1.125 C 4.28125 -0.851562 4.296875 -0.65625 4.328125 -0.53125 C 4.367188 -0.414062 4.441406 -0.335938 4.546875 -0.296875 C 4.648438 -0.253906 4.828125 -0.226562 5.078125 -0.21875 L 5.078125 0 C 4.691406 -0.0195312 4.144531 -0.03125 3.4375 -0.03125 C 2.675781 -0.03125 2.128906 -0.0195312 1.796875 0 L 1.796875 -0.21875 C 2.023438 -0.226562 2.191406 -0.253906 2.296875 -0.296875 C 2.410156 -0.335938 2.488281 -0.414062 2.53125 -0.53125 C 2.570312 -0.65625 2.59375 -0.851562 2.59375 -1.125 L 2.59375 -2.921875 L 0.546875 -6.703125 C 0.328125 -7.097656 0.117188 -7.296875 -0.078125 -7.296875 L -0.078125 -7.515625 C 0.234375 -7.484375 0.648438 -7.46875 1.171875 -7.46875 C 1.835938 -7.46875 2.503906 -7.484375 3.171875 -7.515625 L 3.171875 -7.296875 C 2.921875 -7.296875 2.722656 -7.269531 2.578125 -7.21875 C 2.429688 -7.175781 2.359375 -7.097656 2.359375 -6.984375 C 2.359375 -6.921875 2.382812 -6.84375 2.4375 -6.75 L 4.046875 -3.640625 L 4.875 -5.296875 C 5.15625 -5.847656 5.296875 -6.285156 5.296875 -6.609375 C 5.296875 -6.847656 5.21875 -7.019531 5.0625 -7.125 C 4.914062 -7.226562 4.695312 -7.289062 4.40625 -7.3125 L 4.40625 -7.515625 C 4.894531 -7.492188 5.335938 -7.484375 5.734375 -7.484375 Z M 5.734375 -7.484375 "/></g></g></g></svg>